<svg xmlns="http://www.w3.org/2000/svg" viewBox="0 0 748.07164 223.19115"><title>clouds4</title><g style="isolation:isolate"><g id="Layer_1" data-name="Layer 1"><g style="mix-blend-mode:soft-light"><g style="opacity:0.51"><path d="M424.15389,136.9262a9.51528,9.51528,0,0,0-7.4408,2.5357c.0884-.7498.1438-1.5101.1597-2.2806a23.39409,23.39409,0,0,0-45.9463-6.682,19.74978,19.74978,0,0,0-37.1704,6.6049,9.52731,9.52731,0,0,0-14.9199,3.7795,14.27834,14.27834,0,0,0-28.21219,2.8095c-.00311.1455-.01921,1.2527-.04161,2.8196a12.78323,12.78323,0,0,0,12.7891,12.9667l116.6313-.0882a12.78074,12.78074,0,0,0,12.7685-12.5173h0A9.71007,9.71007,0,0,0,424.15389,136.9262Z" transform="translate(-75.16866 -113.30663)" style="fill:#e6e6e6"/><path d="M306.50749,137.573a9.51441,9.51441,0,0,0-7.4553,2.4927c.0927-.7493.1525-1.5093.1729-2.2797a23.39383,23.39383,0,1,0-46.2268,4.4305,10.9138,10.9138,0,0,0-16.0974-1.4909,20.48276,20.48276,0,0,0-37.39179-16.4822,18.078,18.078,0,0,0-26.4682,15.5305l-.0011.0442a19.057,19.057,0,0,0,19.0316,19.5588l110.779.0832a12.21193,12.21193,0,0,0,12.217-11.8899h0A9.71,9.71,0,0,0,306.50749,137.573Z" transform="translate(-75.16866 -113.30663)" style="fill:#e6e6e6"/></g></g><path d="M212.0444,217.23951a9.75032,9.75032,0,0,0-7.62474,2.59848c.09052-.76842.1472-1.54747.1636-2.337a23.97251,23.97251,0,0,0-47.08234-6.84727,20.23814,20.23814,0,0,0-38.08948,6.76829,9.76288,9.76288,0,0,0-15.28885,3.87292,14.63147,14.63147,0,0,0-28.90992,2.879c-.003.149-.01955,1.28362-.04264,2.88934A13.09952,13.09952,0,0,0,88.2755,240.35055l119.51512-.09039a13.09689,13.09689,0,0,0,13.08422-12.82682h0A9.95022,9.95022,0,0,0,212.0444,217.23951Z" transform="translate(-75.16866 -113.30663)" style="fill:#e6e6e6;opacity:0.8200000000000001;mix-blend-mode:overlay"/><path d="M315.4054,257.3844a7.43187,7.43187,0,0,0-5.8117,1.9806c.069-.5857.1122-1.1795.1247-1.7813a18.27223,18.27223,0,0,0-35.8869-5.2191,15.42583,15.42583,0,0,0-29.0324,5.1589,7.44142,7.44142,0,0,0-11.6534,2.952,11.15234,11.15234,0,0,0-22.0356,2.1944c-.0023.1136-.0149.9784-.0325,2.2023A9.98466,9.98466,0,0,0,221.06679,275l91.09631-.0689a9.98265,9.98265,0,0,0,9.973-9.7768h0A7.58422,7.58422,0,0,0,315.4054,257.3844Z" transform="translate(-75.16866 -113.30663)" style="fill:#e6e6e6"/><g style="opacity:0.2"><rect x="294.18767" y="189.2911" width="421.86726" height="33.90005" rx="16.95001" style="fill:#e6e6e6"/><path d="M600.64364,298.89946a11.82619,11.82619,0,0,0-9.26636,3.09835c.11522-.93144.18955-1.87606.2149-2.83349a29.0767,29.0767,0,1,0-57.4563,5.50677,13.565,13.565,0,0,0-20.00781-1.85307A25.45846,25.45846,0,0,0,467.653,282.33193a22.46936,22.46936,0,0,0-32.8979,19.3032l-.00137.05493A23.68631,23.68631,0,0,0,458.40851,326l137.68964.10341a15.17837,15.17837,0,0,0,15.18477-14.77809h0A12.06886,12.06886,0,0,0,600.64364,298.89946Z" transform="translate(-75.16866 -113.30663)" style="fill:#e6e6e6"/><rect x="650.13817" y="203.41612" width="97.93347" height="19.77503" rx="7.37499" style="fill:#e6e6e6"/></g></g></g></svg>