<?xml version="1.0" encoding="utf-8"?>
<!-- Generator: Adobe Illustrator 23.0.3, SVG Export Plug-In . SVG Version: 6.00 Build 0)  -->
<svg version="1.1" id="Layer_1" xmlns="http://www.w3.org/2000/svg" xmlns:xlink="http://www.w3.org/1999/xlink" x="0px" y="0px"
	 viewBox="0 0 1384 794" style="enable-background:new 0 0 1384 794;" xml:space="preserve">
<style type="text/css">
	.st0{opacity:0.51;}
	.st1{fill:#E6E6E6;}
	.st2{opacity:0.82;fill:#E6E6E6;}
</style>
<g>
	<g>
		<g class="st0">
			<path class="st1" d="M416.2,99.9c-2.9-0.3-5.5,0.7-7.4,2.5c0.1-0.7,0.1-1.5,0.2-2.3c0.3-12.9-10-23.6-22.9-23.9
				c-10.9-0.2-20.3,7.1-23,17.2c-3.2-6.2-9.7-10.6-17.2-10.7c-10.2-0.2-18.8,7.4-20,17.3c-1.6-1.3-3.6-2.1-5.9-2.2
				c-4.1-0.1-7.6,2.4-9,6c-1.4-6.3-6.9-11-13.6-11.2c-7.9-0.2-14.4,6.1-14.6,14c0,0.1,0,1.3,0,2.8c-0.1,7.1,5.7,13,12.8,13
				l116.6-0.1c7,0,12.6-5.6,12.8-12.5l0,0C424.9,104.8,421.2,100.4,416.2,99.9z"/>
			<path class="st1" d="M298.5,100.6c-2.9-0.3-5.5,0.7-7.5,2.5c0.1-0.7,0.2-1.5,0.2-2.3c0.4-13.7-11.1-24.9-25.1-24
				c-10.6,0.7-19.4,8.7-21.3,19.1c-0.6,3.2-0.5,6.3,0.2,9.2c-1.9-2.6-5-4.3-8.4-4.4c-2.9-0.1-5.6,1-7.7,2.9c0.9-2.4,1.3-5,1.2-7.7
				c-0.4-10.2-8.4-18.7-18.5-19.6c-8.6-0.8-16.3,3.8-20,10.8c-2.4-1.2-5.1-2-7.9-2.1c-10-0.3-18.3,7.6-18.5,17.6c0,0,0,0,0,0
				c-0.3,10.7,8.3,19.6,19,19.6l110.8,0.1c6.6,0,12-5.3,12.2-11.9l0,0C307.2,105.5,303.5,101.1,298.5,100.6z"/>
		</g>
	</g>
	<path class="st2" d="M214,210.2c-2.9-0.3-5.7,0.8-7.6,2.6c0.1-0.8,0.1-1.5,0.2-2.3c0.3-13.2-10.2-24.2-23.5-24.5
		c-11.2-0.2-20.8,7.3-23.6,17.6c-3.3-6.4-9.9-10.8-17.6-11c-10.5-0.2-19.3,7.6-20.5,17.8c-1.6-1.4-3.7-2.2-6-2.2
		c-4.2-0.1-7.8,2.5-9.3,6.1c-1.4-6.4-7.1-11.3-14-11.4c-8.1-0.2-14.8,6.2-14.9,14.3c0,0.1,0,1.3,0,2.9c-0.1,7.3,5.8,13.3,13.1,13.3
		l119.5-0.1c7.1,0,12.9-5.7,13.1-12.8l0,0C223,215.3,219.2,210.7,214,210.2z"/>
	<path class="st1" d="M317.4,250.4c-2.2-0.2-4.3,0.6-5.8,2c0.1-0.6,0.1-1.2,0.1-1.8c0.2-10.1-7.8-18.4-17.9-18.6
		c-8.5-0.2-15.8,5.5-18,13.4c-2.5-4.9-7.5-8.3-13.4-8.4c-8-0.2-14.7,5.8-15.6,13.5c-1.3-1-2.8-1.7-4.6-1.7c-3.2-0.1-5.9,1.9-7.1,4.7
		c-1.1-4.9-5.4-8.6-10.7-8.7c-6.2-0.1-11.3,4.8-11.4,10.9c0,0.1,0,1,0,2.2c-0.1,5.6,4.4,10.1,10,10.1l91.1-0.1c5.4,0,9.9-4.3,10-9.8
		l0,0C324.2,254.2,321.3,250.8,317.4,250.4z"/>
</g>
</svg>
