<svg xmlns="http://www.w3.org/2000/svg" viewBox="0 0 1384 794"><title>clouds1</title><g style="isolation:isolate"><g id="Layer_1" data-name="Layer 1"><g style="mix-blend-mode:soft-light"><g style="opacity:0.51"><path d="M327.15389,172.9262a9.51528,9.51528,0,0,0-7.4408,2.5357c.0884-.7498.1438-1.5101.1597-2.2806a23.39409,23.39409,0,0,0-45.9463-6.682,19.74978,19.74978,0,0,0-37.1704,6.6049,9.52731,9.52731,0,0,0-14.9199,3.7795,14.27834,14.27834,0,0,0-28.21219,2.8095c-.00311.1455-.01921,1.2527-.04161,2.8196a12.78323,12.78323,0,0,0,12.7891,12.9667l116.6313-.0882a12.78074,12.78074,0,0,0,12.7685-12.5173h0A9.71007,9.71007,0,0,0,327.15389,172.9262Z" style="fill:#e6e6e6"/><path d="M209.50749,173.573a9.51441,9.51441,0,0,0-7.4553,2.4927c.0927-.7493.1525-1.5093.1729-2.2797a23.39383,23.39383,0,1,0-46.2268,4.4305,10.9138,10.9138,0,0,0-16.0974-1.4909,20.48276,20.48276,0,0,0-37.39179-16.4822,18.078,18.078,0,0,0-26.4682,15.5305l-.0011.0442a19.057,19.057,0,0,0,19.0316,19.5588l110.779.0832a12.21193,12.21193,0,0,0,12.217-11.8899h0A9.71,9.71,0,0,0,209.50749,173.573Z" style="fill:#e6e6e6"/></g></g><path d="M317.4054,290.3844a7.43187,7.43187,0,0,0-5.8117,1.9806c.069-.5857.1122-1.1795.1247-1.7813a18.27223,18.27223,0,0,0-35.8869-5.2191,15.42583,15.42583,0,0,0-29.0324,5.1589,7.44142,7.44142,0,0,0-11.6534,2.952,11.15234,11.15234,0,0,0-22.0356,2.1944c-.0023.1136-.0149.9784-.0325,2.2023A9.98466,9.98466,0,0,0,223.06679,308l91.09631-.0689a9.98265,9.98265,0,0,0,9.973-9.7768h0A7.58422,7.58422,0,0,0,317.4054,290.3844Z" style="fill:#e6e6e6"/></g></g></svg>