<?xml version="1.0" encoding="utf-8"?>
<!-- Generator: Adobe Illustrator 23.0.3, SVG Export Plug-In . SVG Version: 6.00 Build 0)  -->
<svg version="1.1" id="Layer_1" xmlns="http://www.w3.org/2000/svg" xmlns:xlink="http://www.w3.org/1999/xlink" x="0px" y="0px"
	 viewBox="0 0 1411.5 794" style="enable-background:new 0 0 1411.5 794;" xml:space="preserve">
<style type="text/css">
	.st0{opacity:0.51;}
	.st1{fill:#E6E6E6;}
	.st2{fill:#464E57;}
	.st3{fill:#6B7785;}
	.st4{fill:#CCCCCC;}
	.st5{opacity:0.6;}
	.st6{opacity:0.24;}
	.st7{opacity:0.44;}
	.st8{opacity:0.57;}
</style>
<g>
	<g>
		<g class="st0">
			<path class="st1" d="M420.4,117.3c-4-0.4-7.6,1-10.3,3.5c0.1-1,0.2-2.1,0.2-3.2c0.4-17.8-13.8-32.6-31.6-33
				c-15.1-0.3-28,9.8-31.8,23.7c-4.4-8.6-13.3-14.6-23.7-14.8c-14.1-0.3-26,10.2-27.6,23.9c-2.2-1.8-5-3-8.1-3
				c-5.6-0.1-10.5,3.3-12.5,8.2c-1.9-8.7-9.6-15.2-18.8-15.4c-10.9-0.2-19.9,8.4-20.1,19.3c0,0.2,0,1.7-0.1,3.9
				c-0.1,9.9,7.8,17.9,17.7,17.9l161.1-0.1c9.6,0,17.4-7.7,17.6-17.3l0,0C432.4,124.1,427.3,118,420.4,117.3z"/>
			<path class="st1" d="M257.9,118.2c-4-0.4-7.6,1-10.3,3.4c0.1-1,0.2-2.1,0.2-3.1c0.5-18.9-15.3-34.4-34.7-33.1
				c-14.6,1-26.8,12-29.4,26.4c-0.8,4.4-0.6,8.7,0.2,12.8c-2.7-3.5-6.9-5.9-11.7-6c-4.1-0.1-7.8,1.4-10.6,4
				c1.2-3.3,1.8-6.9,1.6-10.6c-0.5-14.1-11.6-25.8-25.6-27.1c-11.9-1.1-22.5,5.2-27.7,15c-3.3-1.7-7-2.7-10.9-2.8
				c-13.8-0.4-25.3,10.5-25.6,24.3c0,0,0,0,0,0.1c-0.4,14.8,11.5,27,26.3,27l153,0.1c9.1,0,16.6-7.3,16.9-16.4l0,0
				C269.9,125.1,264.8,118.9,257.9,118.2z"/>
		</g>
	</g>
	<g class="st0">
		<g class="st0">
			<path class="st2" d="M1325,164.1c-3.5-0.3-6.7,0.9-9.1,3.1c0.1-0.9,0.2-1.8,0.2-2.8c0.3-15.7-12.2-28.7-27.9-29.1
				c-13.3-0.3-24.7,8.6-28.1,20.9c-3.9-7.6-11.8-12.9-20.9-13.1c-12.5-0.3-22.9,9-24.4,21.1c-2-1.6-4.4-2.6-7.2-2.7
				c-5-0.1-9.3,2.9-11,7.3c-1.7-7.6-8.4-13.4-16.6-13.6c-9.6-0.2-17.5,7.4-17.7,17c0,0.2,0,1.5-0.1,3.4c-0.1,8.7,6.9,15.8,15.6,15.8
				l142-0.1c8.5,0,15.4-6.8,15.5-15.2l0,0C1335.6,170.1,1331.1,164.7,1325,164.1z"/>
			<path class="st2" d="M1181.7,164.9c-3.5-0.4-6.7,0.9-9.1,3c0.1-0.9,0.2-1.8,0.2-2.8c0.4-16.7-13.5-30.4-30.6-29.2
				c-12.9,0.9-23.7,10.6-25.9,23.3c-0.7,3.9-0.6,7.7,0.2,11.3c-2.4-3.1-6.1-5.2-10.3-5.3c-3.6-0.1-6.9,1.2-9.3,3.5
				c1-2.9,1.6-6.1,1.4-9.4c-0.5-12.4-10.2-22.7-22.6-23.9c-10.5-1-19.9,4.6-24.4,13.2c-2.9-1.5-6.2-2.4-9.6-2.5
				c-12.2-0.3-22.3,9.3-22.6,21.4c0,0,0,0,0,0.1c-0.3,13,10.1,23.8,23.2,23.8l134.9,0.1c8.1,0,14.7-6.4,14.9-14.5l0,0
				C1192.3,171,1187.8,165.5,1181.7,164.9z"/>
		</g>
		<g>
			<path class="st2" d="M1031.3,303.3L1031.3,303.3c0-11.1-9-20.2-20.2-20.2H549.7c-11.1,0-20.2,9-20.2,20.2v0
				c0,11.1,9,20.2,20.2,20.2h461.5C1022.2,323.4,1031.3,314.4,1031.3,303.3z"/>
			<path class="st2" d="M804.6,278.7c-4.2-0.4-8.2,1-11,3.7c0.1-1.1,0.2-2.2,0.3-3.4c0.5-20.2-16.4-36.9-37.1-35.4
				c-15.6,1.1-28.7,12.9-31.5,28.3c-0.8,4.7-0.7,9.3,0.3,13.7c-2.9-3.8-7.4-6.3-12.5-6.4c-4.4-0.1-8.3,1.5-11.3,4.2
				c1.3-3.5,1.9-7.4,1.8-11.4c-0.6-15.1-12.4-27.6-27.4-29c-12.7-1.2-24.1,5.6-29.6,16c-3.5-1.8-7.5-2.9-11.7-3
				c-14.8-0.4-27,11.3-27.4,26c0,0,0,0,0,0.1c-0.4,15.8,12.3,28.9,28.1,28.9l163.8,0.1c9.8,0,17.8-7.8,18.1-17.6l0,0
				C817.4,286.1,812,279.5,804.6,278.7z"/>
			<path class="st2" d="M960.2,323.4H1062c4.1,0,7.4-3.3,7.4-7.4v-8.8c0-4.1-3.3-7.4-7.4-7.4H960.2c-4.1,0-7.4,3.3-7.4,7.4v8.8
				C952.9,320.1,956.2,323.4,960.2,323.4z"/>
		</g>
	</g>
	<path class="st3" d="M887,183.5c-4.4-0.4-8.5,1.1-11.4,3.9c0.1-1.1,0.2-2.3,0.2-3.5c0.4-19.8-15.3-36.1-35.1-36.6
		c-16.8-0.3-31.1,10.9-35.3,26.3c-4.9-9.6-14.8-16.2-26.3-16.4c-15.7-0.3-28.8,11.3-30.6,26.5c-2.5-2-5.6-3.3-9-3.4
		c-6.2-0.1-11.6,3.7-13.8,9.1c-2.1-9.6-10.6-16.9-20.9-17.1c-12.1-0.2-22.1,9.3-22.3,21.4c0,0.2,0,1.9-0.1,4.3
		c-0.2,10.9,8.7,19.9,19.6,19.9l178.6-0.1c10.6,0,19.3-8.5,19.6-19.2l0,0C900.3,191,894.6,184.2,887,183.5z"/>
	<g>
		<g class="st0">
			<path class="st4" d="M1359.9,128.9c-4.2-0.4-8,1.1-10.8,3.7c0.1-1.1,0.2-2.2,0.2-3.3c0.4-18.7-14.5-34.2-33.2-34.6
				c-15.9-0.3-29.4,10.3-33.4,24.9c-4.7-9-14-15.3-24.9-15.6c-14.8-0.3-27.3,10.7-29,25.1c-2.3-1.9-5.3-3.1-8.5-3.2
				c-5.9-0.1-11,3.5-13.1,8.7c-2-9.1-10-16-19.8-16.2c-11.4-0.2-20.9,8.8-21.1,20.3c0,0.2,0,1.8-0.1,4.1
				c-0.1,10.3,8.2,18.8,18.5,18.8l169.1-0.1c10.1,0,18.3-8.1,18.5-18.1l0,0C1372.5,136,1367.2,129.6,1359.9,128.9z"/>
		</g>
	</g>
	<g class="st5">
		<path class="st3" d="M314.5,271.7L314.5,271.7c0-3.9-3.1-7-7-7h-264c-3.9,0-7,3.1-7,7l0,0c0,3.9,3.1,7,7,7h264
			C311.4,278.7,314.5,275.5,314.5,271.7z"/>
	</g>
	<g class="st6">
		<g>
			<path class="st3" d="M691,313.6c-8.2-0.8-15.8,2.1-21.3,7.2c0.3-2.1,0.4-4.3,0.5-6.5c0.8-36.9-28.5-67.4-65.4-68.2
				c-31.2-0.6-57.9,20.3-65.8,49.1c-9.2-17.8-27.6-30.2-49-30.6c-29.2-0.6-53.7,21.1-57.1,49.5c-4.6-3.8-10.4-6.1-16.8-6.3
				c-11.6-0.2-21.7,6.9-25.8,17.1c-4-17.9-19.8-31.5-39-31.9c-22.5-0.5-41.1,17.4-41.6,39.9c0,0.4-0.1,3.6-0.1,8.1
				c-0.3,20.4,16.2,37.1,36.5,37l333.1-0.3c19.9,0,36.1-15.9,36.5-35.8l0,0C715.9,327.6,705.3,314.9,691,313.6z"/>
		</g>
		<g>
			<path class="st3" d="M516.7,282.3c-8.2-0.8-15.8,2-21.3,7.1c0.3-2.1,0.4-4.3,0.5-6.5c1-39.1-31.7-71.2-71.7-68.4
				c-30.2,2.1-55.5,24.9-60.9,54.7c-1.6,9.2-1.3,18.1,0.5,26.4c-5.5-7.3-14.2-12.2-24.1-12.4c-8.4-0.2-16.1,2.9-21.9,8.2
				c2.4-6.8,3.7-14.2,3.4-22c-1.1-29.1-24-53.3-53-56c-24.6-2.3-46.6,10.8-57.2,30.9c-6.8-3.6-14.5-5.7-22.6-5.9
				c-28.5-0.8-52.2,21.7-53,50.2c0,0,0,0.1,0,0.1c-0.8,30.6,23.8,55.8,54.4,55.9l316.4,0.2c18.9,0,34.4-15.1,34.9-34l0,0
				C541.6,296.4,531,283.7,516.7,282.3z"/>
		</g>
	</g>
	<g class="st7">
		<g>
			<g>
				<g>
					<path class="st2" d="M200.1,268.5l-0.9,1.8c0,0,0,0,0,0c0,0,0,0,0,0v0L200.1,268.5z"/>
					<path class="st2" d="M191.9,284.7l-1.8,3.6c-0.1,0.1-0.2,0.1-0.3,0.1c-0.1-0.1-0.1-0.2-0.1-0.3c0,0,0,0,0,0l1.9-3.6
						c0-0.1,0.1-0.1,0.2-0.1C191.9,284.6,191.9,284.7,191.9,284.7z"/>
					<path class="st2" d="M182.7,302.8l-1.8,3.6c-0.1,0.2-0.3,0.3-0.5,0.2c-0.2-0.1-0.3-0.3-0.2-0.5c0,0,0,0,0,0l1.9-3.6
						c0.1-0.2,0.3-0.2,0.5-0.1C182.7,302.4,182.8,302.6,182.7,302.8z"/>
					<path class="st2" d="M173.5,320.9l-1.8,3.6c-0.1,0.3-0.5,0.4-0.8,0.3c-0.3-0.1-0.4-0.5-0.3-0.8c0,0,0,0,0,0l1.9-3.6
						c0.1-0.3,0.5-0.4,0.7-0.2C173.6,320.3,173.7,320.6,173.5,320.9z"/>
					<path class="st2" d="M164.4,338.9l-1.8,3.6c-0.2,0.4-0.7,0.5-1,0.3c-0.4-0.2-0.5-0.7-0.3-1c0,0,0,0,0,0l1.9-3.6
						c0.2-0.4,0.6-0.5,1-0.3C164.4,338.1,164.5,338.5,164.4,338.9z"/>
					<path class="st2" d="M155.2,357l-1.8,3.6c-0.2,0.5-0.8,0.7-1.3,0.4c-0.5-0.2-0.7-0.8-0.4-1.3c0,0,0,0,0,0l1.9-3.6
						c0.2-0.5,0.8-0.6,1.3-0.4C155.2,356,155.4,356.5,155.2,357z"/>
					<path class="st2" d="M146,375l-1.8,3.6c-0.3,0.6-1,0.8-1.6,0.5c-0.6-0.3-0.8-1-0.5-1.6c0,0,0,0,0,0l1.9-3.6
						c0.3-0.5,1-0.8,1.5-0.5C146.1,373.8,146.3,374.5,146,375z"/>
					<path class="st2" d="M136.8,393.1l-1.8,3.6c-0.3,0.7-1.2,0.9-1.8,0.6s-0.9-1.2-0.6-1.8c0,0,0,0,0,0l1.9-3.6
						c0.3-0.6,1.1-0.9,1.8-0.5C136.9,391.7,137.2,392.4,136.8,393.1z"/>
					<path class="st2" d="M127.7,411.1l-1.8,3.6c-0.4,0.8-1.3,1.1-2.1,0.7s-1.1-1.3-0.7-2.1c0,0,0,0,0,0l1.9-3.6
						c0.4-0.7,1.3-1,2-0.6C127.8,409.5,128,410.4,127.7,411.1z"/>
					<path class="st2" d="M118.5,429.2l-1.8,3.6c-0.4,0.9-1.5,1.2-2.3,0.8c-0.9-0.4-1.2-1.5-0.8-2.3c0,0,0,0,0,0l1.9-3.6
						c0.4-0.8,1.5-1.1,2.3-0.7C118.6,427.4,118.9,428.4,118.5,429.2z"/>
					<path class="st2" d="M109.3,447.2l-1.8,3.6c-0.5,0.9-1.6,1.3-2.6,0.8c-0.9-0.5-1.3-1.6-0.8-2.6c0,0,0,0,0,0l1.9-3.6
						c0.5-0.9,1.6-1.3,2.6-0.8C109.4,445.2,109.8,446.3,109.3,447.2z"/>
					<path class="st2" d="M100.2,465.3l-1.8,3.6c-0.5,1-1.8,1.5-2.8,0.9S94,468,94.6,467c0,0,0,0,0,0l1.9-3.6c0.5-1,1.8-1.4,2.8-0.9
						C100.3,463.1,100.7,464.3,100.2,465.3z"/>
					<path class="st2" d="M91,483.4l-1.8,3.6c-0.6,1.1-2,1.6-3.1,1s-1.6-2-1-3.1c0,0,0,0,0,0l1.9-3.6c0.6-1.1,2-1.5,3.1-0.9
						C91.1,480.9,91.6,482.3,91,483.4z"/>
					<path class="st2" d="M81.8,501.4L80,505c-0.6,1.2-2.1,1.7-3.4,1.1c-1.2-0.6-1.7-2.1-1.1-3.4c0,0,0,0,0,0l1.9-3.6
						c0.6-1.2,2.1-1.7,3.3-1C82,498.8,82.4,500.2,81.8,501.4z"/>
					<path class="st2" d="M72.7,519.5l-1.8,3.6c-0.7,1.3-2.3,1.9-3.6,1.2c-1.3-0.7-1.9-2.3-1.2-3.6c0,0,0,0,0,0L68,517
						c0.7-1.3,2.3-1.8,3.6-1.1C72.8,516.6,73.3,518.2,72.7,519.5z"/>
					<path class="st2" d="M63.5,537.5l-1.8,3.6c-0.7,1.4-2.5,2-3.9,1.3c-1.4-0.7-2-2.5-1.3-3.9c0,0,0,0,0,0l1.9-3.6
						c0.7-1.4,2.5-1.9,3.8-1.2C63.7,534.5,64.2,536.2,63.5,537.5z"/>
					<path class="st2" d="M54.3,555.6l-1.8,3.6c-0.8,1.5-2.6,2.1-4.1,1.3c-1.5-0.8-2.1-2.6-1.3-4.1c0,0,0,0,0-0.1l1.9-3.6
						c0.8-1.5,2.6-2,4.1-1.3C54.5,552.3,55.1,554.1,54.3,555.6z"/>
					<path class="st2" d="M45.2,573.6l-1.8,3.6c-0.8,1.6-2.8,2.2-4.4,1.4c-1.6-0.8-2.2-2.8-1.4-4.4c0,0,0,0,0-0.1l1.9-3.6
						c0.8-1.6,2.8-2.2,4.4-1.3C45.3,570.2,45.9,572.1,45.2,573.6z"/>
					<path class="st2" d="M36,591.7l-1.8,3.6c-0.9,1.7-2.9,2.4-4.6,1.5c-1.7-0.9-2.4-2.9-1.5-4.6c0,0,0,0,0-0.1l1.9-3.6
						c0.9-1.7,2.9-2.3,4.6-1.4C36.2,588,36.8,590.1,36,591.7z"/>
					<path class="st2" d="M26.8,609.8l-1.8,3.6c-0.9,1.8-3.1,2.5-4.9,1.6s-2.5-3.1-1.6-4.9c0,0,0,0,0-0.1l1.9-3.6
						c0.9-1.8,3.1-2.4,4.9-1.5C27,605.9,27.7,608,26.8,609.8z"/>
					<path class="st2" d="M17.6,627.8l-1.8,3.6c-1,1.9-3.3,2.6-5.1,1.7c-1.9-1-2.6-3.3-1.7-5.1c0,0,0,0,0-0.1l1.9-3.6
						c1-1.8,3.3-2.6,5.1-1.6C17.9,623.7,18.6,626,17.6,627.8z"/>
					<path class="st2" d="M8.5,645.9l-0.9,1.8c-1,2-3.4,2.8-5.4,1.8c-2-1-2.8-3.4-1.8-5.4c0,0,0-0.1,0-0.1l0.9-1.8
						c1-1.9,3.4-2.7,5.4-1.6C8.7,641.6,9.5,643.9,8.5,645.9z"/>
				</g>
			</g>
			<g>
				<g>
					<path class="st2" d="M258.1,273.7l-0.9,1.8c0,0,0,0,0,0c0,0,0,0,0,0c0,0,0,0,0,0L258.1,273.7z"/>
					<path class="st2" d="M250,289.6l-1.8,3.5c-0.1,0.1-0.2,0.1-0.3,0.1c-0.1-0.1-0.1-0.2-0.1-0.3c0,0,0,0,0,0l1.9-3.5
						c0-0.1,0.1-0.1,0.2-0.1C250,289.4,250.1,289.5,250,289.6z"/>
					<path class="st2" d="M241.1,307.3l-1.8,3.5c-0.1,0.2-0.3,0.3-0.5,0.2c-0.2-0.1-0.3-0.3-0.2-0.5c0,0,0,0,0,0l1.9-3.5
						c0.1-0.2,0.3-0.2,0.5-0.1C241.1,306.9,241.1,307.1,241.1,307.3z"/>
					<path class="st2" d="M232.1,325l-1.8,3.5c-0.1,0.3-0.5,0.4-0.8,0.3c-0.3-0.1-0.4-0.5-0.3-0.8c0,0,0,0,0,0l1.9-3.5
						c0.1-0.3,0.5-0.4,0.7-0.2C232.1,324.4,232.2,324.7,232.1,325z"/>
					<path class="st2" d="M223.1,342.7l-1.8,3.5c-0.2,0.4-0.7,0.5-1.1,0.3c-0.4-0.2-0.5-0.7-0.3-1c0,0,0,0,0,0l1.9-3.5
						c0.2-0.4,0.6-0.5,1-0.3C223.2,341.9,223.3,342.3,223.1,342.7z"/>
					<path class="st2" d="M214.1,360.4l-1.8,3.5c-0.2,0.5-0.8,0.7-1.3,0.4c-0.5-0.2-0.7-0.8-0.4-1.3c0,0,0,0,0,0l1.9-3.5
						c0.2-0.5,0.8-0.6,1.3-0.4C214.2,359.4,214.4,359.9,214.1,360.4z"/>
					<path class="st2" d="M205.2,378.1l-1.8,3.5c-0.3,0.6-1,0.8-1.6,0.5s-0.8-1-0.5-1.6c0,0,0,0,0,0l1.9-3.5c0.3-0.5,1-0.8,1.5-0.5
						C205.2,376.9,205.4,377.5,205.2,378.1z"/>
					<path class="st2" d="M196.2,395.8l-1.8,3.5c-0.3,0.7-1.2,0.9-1.8,0.6c-0.7-0.3-0.9-1.2-0.6-1.8c0,0,0,0,0,0l1.9-3.5
						c0.3-0.6,1.1-0.9,1.8-0.5C196.3,394.3,196.5,395.1,196.2,395.8z"/>
					<path class="st2" d="M187.2,413.4l-1.8,3.5c-0.4,0.8-1.3,1.1-2.1,0.7c-0.8-0.4-1.1-1.3-0.7-2.1c0,0,0,0,0,0l1.9-3.5
						c0.4-0.7,1.3-1,2-0.6C187.3,411.8,187.6,412.7,187.2,413.4z"/>
					<path class="st2" d="M178.2,431.1l-1.8,3.5c-0.4,0.9-1.5,1.2-2.3,0.8s-1.2-1.5-0.8-2.3c0,0,0,0,0,0l1.9-3.5
						c0.4-0.8,1.5-1.1,2.3-0.7C178.3,429.3,178.6,430.3,178.2,431.1z"/>
					<path class="st2" d="M169.3,448.8l-1.8,3.5c-0.5,0.9-1.6,1.3-2.6,0.8s-1.3-1.6-0.8-2.6c0,0,0,0,0,0l1.9-3.5
						c0.5-0.9,1.6-1.3,2.6-0.8C169.4,446.8,169.7,447.9,169.3,448.8z"/>
					<path class="st2" d="M160.3,466.5l-1.8,3.5c-0.5,1-1.8,1.5-2.8,0.9c-1-0.5-1.5-1.8-0.9-2.8c0,0,0,0,0,0l1.9-3.5
						c0.5-1,1.8-1.4,2.8-0.9C160.4,464.3,160.8,465.5,160.3,466.5z"/>
					<path class="st2" d="M151.3,484.2l-1.8,3.5c-0.6,1.1-2,1.6-3.1,1c-1.1-0.6-1.6-2-1-3.1c0,0,0,0,0,0l1.9-3.5
						c0.6-1.1,2-1.5,3.1-0.9C151.4,481.7,151.9,483.1,151.3,484.2z"/>
					<path class="st2" d="M142.3,501.9l-1.8,3.5c-0.6,1.2-2.1,1.7-3.4,1.1c-1.2-0.6-1.7-2.1-1.1-3.4c0,0,0,0,0,0l1.9-3.5
						c0.6-1.2,2.1-1.7,3.3-1C142.5,499.2,142.9,500.7,142.3,501.9z"/>
					<path class="st2" d="M133.4,519.6l-1.8,3.5c-0.7,1.3-2.3,1.9-3.6,1.2c-1.3-0.7-1.9-2.3-1.2-3.6c0,0,0,0,0,0l1.9-3.5
						c0.7-1.3,2.3-1.8,3.6-1.1C133.5,516.7,134,518.3,133.4,519.6z"/>
					<path class="st2" d="M124.4,537.3l-1.8,3.5c-0.7,1.4-2.4,2-3.9,1.3s-2-2.4-1.3-3.9c0,0,0,0,0,0l1.9-3.5
						c0.7-1.4,2.5-1.9,3.8-1.2C124.5,534.2,125.1,535.9,124.4,537.3z"/>
					<path class="st2" d="M115.4,554.9l-1.8,3.5c-0.8,1.5-2.6,2.1-4.1,1.3c-1.5-0.8-2.1-2.6-1.3-4.1c0,0,0,0,0-0.1l1.9-3.5
						c0.8-1.5,2.6-2,4.1-1.3C115.6,551.7,116.1,553.5,115.4,554.9z"/>
					<path class="st2" d="M106.4,572.6l-1.8,3.5c-0.8,1.6-2.8,2.2-4.4,1.4s-2.2-2.8-1.4-4.4c0,0,0,0,0-0.1l1.9-3.5
						c0.8-1.6,2.8-2.2,4.4-1.3C106.6,569.2,107.2,571.1,106.4,572.6z"/>
					<path class="st2" d="M97.4,590.3l-1.8,3.5c-0.9,1.7-2.9,2.4-4.6,1.5s-2.4-2.9-1.5-4.6c0,0,0,0,0-0.1l1.9-3.5
						c0.9-1.7,2.9-2.3,4.6-1.4C97.7,586.6,98.3,588.7,97.4,590.3z"/>
					<path class="st2" d="M88.5,608l-1.8,3.5c-0.9,1.8-3.1,2.5-4.9,1.6s-2.5-3.1-1.6-4.9c0,0,0,0,0-0.1l1.9-3.5
						c0.9-1.8,3.1-2.4,4.9-1.5C88.7,604.1,89.4,606.3,88.5,608z"/>
					<path class="st2" d="M79.5,625.7l-1.8,3.5c-1,1.9-3.3,2.6-5.1,1.7c-1.9-1-2.6-3.3-1.7-5.1c0,0,0,0,0-0.1l1.9-3.5
						c1-1.8,3.3-2.5,5.1-1.6C79.7,621.6,80.4,623.9,79.5,625.7z"/>
					<path class="st2" d="M70.5,643.4l-0.9,1.8c-1,2-3.4,2.8-5.4,1.8c-2-1-2.8-3.4-1.8-5.4c0,0,0-0.1,0-0.1l0.9-1.8
						c1-1.9,3.4-2.7,5.4-1.6C70.8,639.1,71.5,641.4,70.5,643.4z"/>
				</g>
			</g>
			<g>
				<g>
					<path class="st2" d="M316.1,278.9l-0.9,1.8c0,0,0,0,0,0c0,0,0,0,0,0l0,0L316.1,278.9z"/>
					<path class="st2" d="M307.9,295.2l-1.8,3.6c-0.1,0.1-0.2,0.2-0.3,0.1s-0.2-0.2-0.1-0.3c0,0,0,0,0,0l1.9-3.6
						c0-0.1,0.2-0.1,0.2-0.1C307.9,295,307.9,295.1,307.9,295.2z"/>
					<path class="st2" d="M298.6,313.4l-1.8,3.6c-0.1,0.2-0.4,0.3-0.6,0.2s-0.3-0.4-0.2-0.6c0,0,0,0,0,0l1.9-3.6
						c0.1-0.2,0.3-0.3,0.5-0.2C298.7,313,298.7,313.2,298.6,313.4z"/>
					<path class="st2" d="M289.4,331.6l-1.8,3.6c-0.2,0.3-0.5,0.4-0.8,0.3c-0.3-0.2-0.4-0.5-0.3-0.8c0,0,0,0,0,0l1.9-3.6
						c0.2-0.3,0.5-0.4,0.8-0.2C289.4,331,289.5,331.3,289.4,331.6z"/>
					<path class="st2" d="M280.2,349.8l-1.8,3.6c-0.2,0.4-0.7,0.6-1.1,0.4s-0.6-0.7-0.4-1.1c0,0,0,0,0,0l1.9-3.6
						c0.2-0.4,0.7-0.5,1.1-0.3C280.2,349,280.4,349.4,280.2,349.8z"/>
					<path class="st2" d="M271,368l-1.8,3.6c-0.3,0.5-0.9,0.7-1.4,0.4c-0.5-0.3-0.7-0.9-0.4-1.4c0,0,0,0,0,0l1.9-3.6
						c0.3-0.5,0.8-0.7,1.3-0.4C271,366.9,271.2,367.5,271,368z"/>
					<path class="st2" d="M261.7,386.2l-1.8,3.6c-0.3,0.6-1,0.8-1.6,0.5s-0.8-1-0.5-1.6c0,0,0,0,0,0l1.9-3.6c0.3-0.6,1-0.8,1.6-0.5
						C261.8,384.9,262,385.6,261.7,386.2z"/>
					<path class="st2" d="M252.5,404.4l-1.8,3.6c-0.4,0.7-1.2,1-1.9,0.6c-0.7-0.4-1-1.2-0.6-1.9c0,0,0,0,0,0l1.9-3.6
						c0.4-0.7,1.2-0.9,1.9-0.6C252.6,402.9,252.8,403.7,252.5,404.4z"/>
					<path class="st2" d="M243.3,422.6l-1.8,3.6c-0.4,0.8-1.4,1.1-2.2,0.7c-0.8-0.4-1.1-1.4-0.7-2.2c0,0,0,0,0,0l1.9-3.6
						c0.4-0.8,1.4-1.1,2.1-0.7C243.4,420.9,243.7,421.8,243.3,422.6z"/>
					<path class="st2" d="M234.1,440.8l-1.8,3.6c-0.5,0.9-1.5,1.3-2.4,0.8c-0.9-0.5-1.3-1.5-0.8-2.4c0,0,0,0,0,0l1.9-3.6
						c0.5-0.9,1.5-1.2,2.4-0.7C234.2,438.8,234.5,439.9,234.1,440.8z"/>
					<path class="st2" d="M224.8,459l-1.8,3.6c-0.5,1-1.7,1.4-2.7,0.9s-1.4-1.7-0.9-2.7c0,0,0,0,0,0l1.9-3.6c0.5-1,1.7-1.3,2.7-0.8
						C224.9,456.8,225.3,458,224.8,459z"/>
					<path class="st2" d="M215.6,477.1l-1.8,3.6c-0.6,1.1-1.9,1.5-3,1c-1.1-0.6-1.5-1.9-1-3c0,0,0,0,0,0l1.9-3.6
						c0.6-1.1,1.9-1.5,2.9-0.9C215.7,474.8,216.1,476.1,215.6,477.1z"/>
					<path class="st2" d="M206.4,495.3l-1.8,3.6c-0.6,1.2-2.1,1.7-3.3,1.1c-1.2-0.6-1.7-2.1-1.1-3.3c0,0,0,0,0,0l1.9-3.6
						c0.6-1.2,2.1-1.6,3.2-1C206.5,492.8,207,494.2,206.4,495.3z"/>
					<path class="st2" d="M197.2,513.5l-1.8,3.6c-0.7,1.3-2.2,1.8-3.5,1.2c-1.3-0.7-1.8-2.2-1.2-3.5c0,0,0,0,0,0l1.9-3.6
						c0.7-1.3,2.2-1.7,3.5-1.1C197.3,510.7,197.8,512.3,197.2,513.5z"/>
					<path class="st2" d="M187.9,531.7l-1.8,3.6c-0.7,1.4-2.4,1.9-3.8,1.2c-1.4-0.7-1.9-2.4-1.2-3.8c0,0,0,0,0,0l1.9-3.6
						c0.7-1.4,2.4-1.9,3.8-1.1C188.1,528.7,188.6,530.4,187.9,531.7z"/>
					<path class="st2" d="M178.7,549.9l-1.8,3.6c-0.8,1.5-2.6,2.1-4.1,1.3s-2.1-2.6-1.3-4.1c0,0,0,0,0-0.1l1.9-3.6
						c0.8-1.5,2.6-2,4-1.2C178.9,546.7,179.4,548.5,178.7,549.9z"/>
					<path class="st2" d="M169.5,568.1l-1.8,3.6c-0.8,1.6-2.7,2.2-4.3,1.4c-1.6-0.8-2.2-2.7-1.4-4.3c0,0,0,0,0-0.1l1.9-3.6
						c0.8-1.6,2.8-2.1,4.3-1.3C169.7,564.7,170.3,566.6,169.5,568.1z"/>
					<path class="st2" d="M160.2,586.3l-1.8,3.6c-0.9,1.7-2.9,2.4-4.6,1.5c-1.7-0.9-2.4-2.9-1.5-4.6c0,0,0,0,0-0.1l1.9-3.6
						c0.9-1.6,2.9-2.3,4.6-1.4C160.4,582.7,161.1,584.7,160.2,586.3z"/>
					<path class="st2" d="M151,604.5l-1.8,3.6c-0.9,1.8-3.1,2.5-4.9,1.6c-1.8-0.9-2.5-3.1-1.6-4.9c0,0,0,0,0-0.1l1.9-3.6
						c0.9-1.7,3.1-2.4,4.8-1.5C151.2,600.6,151.9,602.8,151,604.5z"/>
					<path class="st2" d="M141.8,622.7l-1.8,3.6c-1,1.9-3.3,2.6-5.1,1.7s-2.6-3.3-1.7-5.1c0,0,0-0.1,0-0.1l1.9-3.6
						c1-1.8,3.3-2.5,5.1-1.6C142,618.6,142.7,620.9,141.8,622.7z"/>
					<path class="st2" d="M132.6,640.9l-0.9,1.8c-1,2-3.4,2.8-5.4,1.8c-2-1-2.8-3.4-1.8-5.4c0,0,0-0.1,0-0.1l0.9-1.8
						c1-1.9,3.4-2.7,5.4-1.6C132.8,636.6,133.5,639,132.6,640.9z"/>
				</g>
			</g>
			<g>
				<g>
					<path class="st2" d="M374.2,284.1l-0.9,1.8c0,0,0,0,0,0c0,0,0,0,0,0l0,0L374.2,284.1z"/>
					<path class="st2" d="M366,300.1l-1.8,3.6c-0.1,0.1-0.2,0.2-0.3,0.1s-0.2-0.2-0.1-0.3c0,0,0,0,0,0l1.9-3.5
						c0-0.1,0.2-0.1,0.2-0.1C366.1,299.9,366.1,300,366,300.1z"/>
					<path class="st2" d="M357,317.9l-1.8,3.6c-0.1,0.2-0.4,0.3-0.6,0.2c-0.2-0.1-0.3-0.4-0.2-0.6c0,0,0,0,0,0l1.9-3.5
						c0.1-0.2,0.3-0.3,0.5-0.2C357,317.5,357.1,317.7,357,317.9z"/>
					<path class="st2" d="M348,335.7l-1.8,3.6c-0.2,0.3-0.5,0.4-0.8,0.3s-0.4-0.5-0.3-0.8c0,0,0,0,0,0l1.9-3.5
						c0.2-0.3,0.5-0.4,0.8-0.2C348,335.1,348.1,335.4,348,335.7z"/>
					<path class="st2" d="M339,353.5l-1.8,3.6c-0.2,0.4-0.7,0.6-1.1,0.4s-0.6-0.7-0.4-1.1c0,0,0,0,0,0l1.9-3.5
						c0.2-0.4,0.7-0.5,1.1-0.3C339,352.7,339.2,353.1,339,353.5z"/>
					<path class="st2" d="M330,371.3l-1.8,3.6c-0.3,0.5-0.9,0.7-1.4,0.4c-0.5-0.3-0.7-0.9-0.4-1.4c0,0,0,0,0,0l1.9-3.5
						c0.3-0.5,0.8-0.7,1.3-0.4C330,370.3,330.2,370.8,330,371.3z"/>
					<path class="st2" d="M320.9,389.1l-1.8,3.6c-0.3,0.6-1,0.8-1.6,0.5s-0.8-1-0.5-1.6c0,0,0,0,0,0l1.9-3.5c0.3-0.6,1-0.8,1.6-0.5
						C321,387.8,321.2,388.5,320.9,389.1z"/>
					<path class="st2" d="M311.9,406.9l-1.8,3.6c-0.4,0.7-1.2,1-1.9,0.6c-0.7-0.4-1-1.2-0.6-1.9c0,0,0,0,0,0l1.9-3.5
						c0.4-0.7,1.2-0.9,1.9-0.6C312,405.4,312.2,406.3,311.9,406.9z"/>
					<path class="st2" d="M302.9,424.7l-1.8,3.6c-0.4,0.8-1.4,1.1-2.2,0.7s-1.1-1.4-0.7-2.2c0,0,0,0,0,0l1.9-3.5
						c0.4-0.8,1.4-1.1,2.1-0.7C303,423,303.3,424,302.9,424.7z"/>
					<path class="st2" d="M293.9,442.5l-1.8,3.6c-0.5,0.9-1.5,1.3-2.4,0.8c-0.9-0.5-1.3-1.5-0.8-2.4c0,0,0,0,0,0l1.9-3.5
						c0.5-0.9,1.5-1.2,2.4-0.7C294,440.6,294.3,441.7,293.9,442.5z"/>
					<path class="st2" d="M284.8,460.3l-1.8,3.6c-0.5,1-1.7,1.4-2.7,0.9c-1-0.5-1.4-1.7-0.9-2.7c0,0,0,0,0,0l1.9-3.5
						c0.5-1,1.7-1.3,2.7-0.8C285,458.2,285.3,459.4,284.8,460.3z"/>
					<path class="st2" d="M275.8,478.1l-1.8,3.6c-0.6,1.1-1.9,1.5-3,1c-1.1-0.6-1.5-1.9-1-3c0,0,0,0,0,0l1.9-3.5
						c0.6-1.1,1.9-1.5,2.9-0.9C275.9,475.8,276.4,477.1,275.8,478.1z"/>
					<path class="st2" d="M266.8,495.9l-1.8,3.6c-0.6,1.2-2.1,1.7-3.3,1.1c-1.2-0.6-1.7-2.1-1.1-3.3c0,0,0,0,0,0l1.9-3.5
						c0.6-1.2,2.1-1.6,3.2-1C266.9,493.4,267.4,494.8,266.8,495.9z"/>
					<path class="st2" d="M257.8,513.7l-1.8,3.6c-0.7,1.3-2.2,1.8-3.5,1.2c-1.3-0.7-1.8-2.2-1.2-3.5c0,0,0,0,0,0l1.9-3.5
						c0.7-1.3,2.2-1.7,3.5-1.1C257.9,511,258.4,512.5,257.8,513.7z"/>
					<path class="st2" d="M248.8,531.6l-1.8,3.6c-0.7,1.4-2.4,1.9-3.8,1.2s-1.9-2.4-1.2-3.8c0,0,0,0,0-0.1l1.9-3.5
						c0.7-1.4,2.4-1.9,3.8-1.1C248.9,528.6,249.4,530.2,248.8,531.6z"/>
					<path class="st2" d="M239.7,549.4l-1.8,3.6c-0.8,1.5-2.6,2.1-4.1,1.3c-1.5-0.8-2.1-2.6-1.3-4.1c0,0,0,0,0-0.1l1.9-3.5
						c0.8-1.5,2.6-2,4-1.2C239.9,546.1,240.5,547.9,239.7,549.4z"/>
					<path class="st2" d="M230.7,567.2l-1.8,3.6c-0.8,1.6-2.7,2.2-4.3,1.4c-1.6-0.8-2.2-2.7-1.4-4.3c0,0,0,0,0-0.1l1.9-3.5
						c0.8-1.6,2.8-2.1,4.3-1.3C230.9,563.7,231.5,565.6,230.7,567.2z"/>
					<path class="st2" d="M221.7,585l-1.8,3.6c-0.9,1.7-2.9,2.4-4.6,1.5c-1.7-0.9-2.4-2.9-1.5-4.6c0,0,0,0,0-0.1l1.9-3.5
						c0.9-1.6,2.9-2.3,4.6-1.4C221.9,581.3,222.5,583.3,221.7,585z"/>
					<path class="st2" d="M212.7,602.8l-1.8,3.6c-0.9,1.8-3.1,2.5-4.9,1.6c-1.8-0.9-2.5-3.1-1.6-4.9c0,0,0,0,0-0.1l1.9-3.5
						c0.9-1.7,3.1-2.4,4.8-1.5C212.9,598.9,213.5,601,212.7,602.8z"/>
					<path class="st2" d="M203.6,620.6l-1.8,3.6c-1,1.9-3.3,2.6-5.1,1.7c-1.9-1-2.6-3.3-1.7-5.1c0,0,0-0.1,0-0.1l1.9-3.5
						c1-1.8,3.3-2.5,5.1-1.6C203.9,616.5,204.6,618.7,203.6,620.6z"/>
					<path class="st2" d="M194.6,638.4l-0.9,1.8c-1,2-3.4,2.8-5.4,1.8c-2-1-2.8-3.4-1.8-5.4c0,0,0-0.1,0-0.1l0.9-1.8
						c1-1.9,3.4-2.7,5.4-1.6C194.9,634.1,195.6,636.5,194.6,638.4z"/>
				</g>
			</g>
			<g>
				<g>
					<path class="st2" d="M432.2,289.2l-0.9,1.8c0,0,0,0,0,0c0,0,0,0,0,0l0,0L432.2,289.2z"/>
					<path class="st2" d="M424.2,305l-1.8,3.5c-0.1,0.1-0.2,0.2-0.3,0.1s-0.2-0.2-0.1-0.3c0,0,0,0,0,0l1.8-3.4
						c0-0.1,0.2-0.1,0.2-0.1C424.2,304.8,424.3,304.9,424.2,305z"/>
					<path class="st2" d="M415.4,322.4l-1.8,3.5c-0.1,0.2-0.4,0.3-0.6,0.2c-0.2-0.1-0.3-0.4-0.2-0.6c0,0,0,0,0,0l1.8-3.4
						c0.1-0.2,0.3-0.3,0.5-0.2C415.4,322,415.5,322.2,415.4,322.4z"/>
					<path class="st2" d="M406.6,339.8l-1.8,3.5c-0.2,0.3-0.5,0.4-0.8,0.3c-0.3-0.2-0.4-0.5-0.3-0.8c0,0,0,0,0,0l1.8-3.4
						c0.2-0.3,0.5-0.4,0.8-0.2C406.6,339.2,406.7,339.5,406.6,339.8z"/>
					<path class="st2" d="M397.8,357.2l-1.8,3.5c-0.2,0.4-0.7,0.6-1.1,0.4c-0.4-0.2-0.6-0.7-0.4-1.1c0,0,0,0,0,0l1.8-3.4
						c0.2-0.4,0.7-0.5,1.1-0.3C397.8,356.4,398,356.8,397.8,357.2z"/>
					<path class="st2" d="M388.9,374.6l-1.8,3.5c-0.3,0.5-0.9,0.7-1.4,0.4s-0.7-0.9-0.4-1.4c0,0,0,0,0,0l1.8-3.4
						c0.3-0.5,0.8-0.7,1.3-0.4C389,373.6,389.2,374.2,388.9,374.6z"/>
					<path class="st2" d="M380.1,392l-1.8,3.5c-0.3,0.6-1,0.8-1.6,0.5c-0.6-0.3-0.8-1-0.5-1.6c0,0,0,0,0,0l1.8-3.4
						c0.3-0.6,1-0.8,1.6-0.5C380.2,390.8,380.4,391.5,380.1,392z"/>
					<path class="st2" d="M371.3,409.5l-1.8,3.5c-0.4,0.7-1.2,1-1.9,0.6s-1-1.2-0.6-1.9c0,0,0,0,0,0l1.8-3.4
						c0.4-0.7,1.2-0.9,1.9-0.6C371.4,408,371.7,408.8,371.3,409.5z"/>
					<path class="st2" d="M362.5,426.9l-1.8,3.5c-0.4,0.8-1.4,1.1-2.2,0.7c-0.8-0.4-1.1-1.4-0.7-2.2c0,0,0,0,0,0l1.8-3.4
						c0.4-0.8,1.4-1.1,2.1-0.7C362.6,425.2,362.9,426.1,362.5,426.9z"/>
					<path class="st2" d="M353.7,444.3l-1.8,3.5c-0.5,0.9-1.5,1.3-2.4,0.8c-0.9-0.5-1.3-1.5-0.8-2.4c0,0,0,0,0,0l1.8-3.4
						c0.5-0.9,1.5-1.2,2.4-0.7C353.8,442.4,354.1,443.4,353.7,444.3z"/>
					<path class="st2" d="M344.9,461.7l-1.8,3.5c-0.5,1-1.7,1.4-2.7,0.9c-1-0.5-1.4-1.7-0.9-2.7c0,0,0,0,0,0l1.8-3.4
						c0.5-1,1.7-1.3,2.7-0.8C345,459.6,345.3,460.8,344.9,461.7z"/>
					<path class="st2" d="M336,479.1l-1.8,3.5c-0.6,1.1-1.9,1.5-3,1c-1.1-0.6-1.5-1.9-1-3c0,0,0,0,0,0l1.8-3.4
						c0.6-1.1,1.9-1.5,2.9-0.9C336.2,476.8,336.6,478.1,336,479.1z"/>
					<path class="st2" d="M327.2,496.5l-1.8,3.5c-0.6,1.2-2.1,1.7-3.3,1.1c-1.2-0.6-1.7-2.1-1.1-3.3c0,0,0,0,0,0l1.8-3.4
						c0.6-1.2,2.1-1.6,3.2-1C327.4,494,327.8,495.4,327.2,496.5z"/>
					<path class="st2" d="M318.4,514l-1.8,3.5c-0.7,1.3-2.2,1.8-3.5,1.2c-1.3-0.7-1.8-2.2-1.2-3.5c0,0,0,0,0,0l1.8-3.4
						c0.7-1.3,2.2-1.7,3.5-1.1C318.6,511.2,319,512.7,318.4,514z"/>
					<path class="st2" d="M309.6,531.4l-1.8,3.5c-0.7,1.4-2.4,1.9-3.8,1.2c-1.4-0.7-1.9-2.4-1.2-3.8c0,0,0,0,0-0.1l1.8-3.4
						c0.7-1.4,2.4-1.9,3.8-1.1C309.7,528.4,310.3,530,309.6,531.4z"/>
					<path class="st2" d="M300.8,548.8l-1.8,3.5c-0.8,1.5-2.6,2.1-4.1,1.3s-2.1-2.6-1.3-4.1c0,0,0,0,0-0.1l1.8-3.4
						c0.8-1.5,2.6-2,4-1.2C300.9,545.6,301.5,547.4,300.8,548.8z"/>
					<path class="st2" d="M291.9,566.2l-1.8,3.5c-0.8,1.6-2.7,2.2-4.3,1.4c-1.6-0.8-2.2-2.7-1.4-4.3c0,0,0,0,0-0.1l1.8-3.4
						c0.8-1.6,2.8-2.1,4.3-1.3C292.1,562.8,292.7,564.7,291.9,566.2z"/>
					<path class="st2" d="M283.1,583.6l-1.8,3.5c-0.9,1.7-2.9,2.4-4.6,1.5c-1.7-0.9-2.4-2.9-1.5-4.6c0,0,0,0,0-0.1l1.8-3.4
						c0.9-1.6,2.9-2.3,4.6-1.4C283.3,580,284,582,283.1,583.6z"/>
					<path class="st2" d="M274.3,601l-1.8,3.5c-0.9,1.8-3.1,2.5-4.9,1.6c-1.8-0.9-2.5-3.1-1.6-4.9c0,0,0,0,0-0.1l1.8-3.4
						c0.9-1.7,3.1-2.4,4.8-1.5C274.5,597.2,275.2,599.3,274.3,601z"/>
					<path class="st2" d="M265.5,618.5l-1.8,3.5c-1,1.9-3.3,2.6-5.1,1.7s-2.6-3.3-1.7-5.1c0,0,0-0.1,0-0.1l1.8-3.4
						c1-1.8,3.3-2.5,5.1-1.6C265.7,614.4,266.4,616.6,265.5,618.5z"/>
					<path class="st2" d="M256.7,635.9l-0.9,1.8c-1,2-3.4,2.8-5.4,1.8c-2-1-2.8-3.4-1.8-5.4c0,0,0-0.1,0-0.1l0.9-1.8
						c1-1.9,3.4-2.7,5.4-1.6C256.9,631.6,257.6,634,256.7,635.9z"/>
				</g>
			</g>
			<g>
				<g>
					<path class="st2" d="M490.2,294.4l-0.9,1.8c0,0,0,0,0,0c0,0,0,0,0,0l0,0L490.2,294.4z"/>
					<path class="st2" d="M482,310.6l-1.8,3.6c-0.1,0.1-0.2,0.2-0.3,0.1s-0.2-0.2-0.1-0.3c0,0,0,0,0,0l1.9-3.5
						c0-0.1,0.2-0.1,0.3-0.1C482.1,310.4,482.1,310.5,482,310.6z"/>
					<path class="st2" d="M473,328.5l-1.8,3.6c-0.1,0.2-0.4,0.3-0.6,0.2c-0.2-0.1-0.3-0.4-0.2-0.6c0,0,0,0,0,0l1.9-3.5
						c0.1-0.2,0.3-0.3,0.5-0.2C473,328.1,473.1,328.3,473,328.5z"/>
					<path class="st2" d="M463.9,346.4l-1.8,3.6c-0.2,0.3-0.6,0.5-0.9,0.3c-0.3-0.2-0.5-0.6-0.3-0.9c0,0,0,0,0,0l1.9-3.5
						c0.2-0.3,0.5-0.4,0.8-0.3C463.9,345.8,464,346.1,463.9,346.4z"/>
					<path class="st2" d="M454.8,364.4L453,368c-0.2,0.4-0.7,0.6-1.2,0.4c-0.4-0.2-0.6-0.7-0.4-1.2c0,0,0,0,0,0l1.9-3.5
						c0.2-0.4,0.7-0.6,1.1-0.3C454.9,363.5,455,364,454.8,364.4z"/>
					<path class="st2" d="M445.7,382.3l-1.8,3.6c-0.3,0.5-0.9,0.7-1.4,0.5c-0.5-0.3-0.7-0.9-0.5-1.4c0,0,0,0,0,0l1.9-3.5
						c0.3-0.5,0.9-0.7,1.4-0.4C445.8,381.2,446,381.8,445.7,382.3z"/>
					<path class="st2" d="M436.7,400.2l-1.8,3.6c-0.3,0.6-1.1,0.9-1.7,0.6c-0.6-0.3-0.9-1.1-0.6-1.7c0,0,0,0,0,0l1.9-3.5
						c0.3-0.6,1.1-0.8,1.7-0.5C436.7,398.9,437,399.6,436.7,400.2z"/>
					<path class="st2" d="M427.6,418.2l-1.8,3.6c-0.4,0.7-1.3,1-2,0.7c-0.7-0.4-1-1.3-0.7-2c0,0,0,0,0,0l1.9-3.5
						c0.4-0.7,1.3-1,2-0.6C427.7,416.6,428,417.5,427.6,418.2z"/>
					<path class="st2" d="M418.5,436.1l-1.8,3.6c-0.4,0.8-1.5,1.2-2.3,0.8s-1.2-1.5-0.8-2.3c0,0,0,0,0,0l1.9-3.5
						c0.4-0.8,1.4-1.1,2.2-0.7C418.6,434.3,418.9,435.3,418.5,436.1z"/>
					<path class="st2" d="M409.5,454l-1.8,3.6c-0.5,0.9-1.6,1.3-2.6,0.8s-1.3-1.6-0.8-2.6c0,0,0,0,0,0l1.9-3.5
						c0.5-0.9,1.6-1.3,2.5-0.8C409.6,452,409.9,453.1,409.5,454z"/>
					<path class="st2" d="M400.4,472l-1.8,3.6c-0.5,1-1.8,1.5-2.9,0.9c-1-0.5-1.5-1.8-0.9-2.9c0,0,0,0,0,0l1.9-3.5
						c0.5-1,1.8-1.4,2.8-0.9C400.5,469.7,400.9,471,400.4,472z"/>
					<path class="st2" d="M391.3,489.9l-1.8,3.6c-0.6,1.2-2,1.6-3.1,1c-1.2-0.6-1.6-2-1-3.1c0,0,0,0,0,0l1.9-3.5
						c0.6-1.1,2-1.5,3.1-0.9C391.4,487.4,391.9,488.8,391.3,489.9z"/>
					<path class="st2" d="M382.2,507.8l-1.8,3.6c-0.6,1.3-2.2,1.8-3.4,1.1s-1.8-2.2-1.1-3.4c0,0,0,0,0,0l1.9-3.5
						c0.7-1.2,2.2-1.7,3.4-1C382.4,505.1,382.8,506.6,382.2,507.8z"/>
					<path class="st2" d="M373.2,525.8l-1.8,3.6c-0.7,1.4-2.3,1.9-3.7,1.2c-1.4-0.7-1.9-2.3-1.2-3.7c0,0,0,0,0-0.1l1.9-3.5
						c0.7-1.3,2.3-1.8,3.7-1.1C373.3,522.8,373.8,524.5,373.2,525.8z"/>
					<path class="st2" d="M364.1,543.7l-1.8,3.6c-0.7,1.5-2.5,2-4,1.3c-1.5-0.7-2-2.5-1.3-4c0,0,0,0,0-0.1l1.9-3.5
						c0.8-1.4,2.5-2,4-1.2C364.3,540.6,364.8,542.3,364.1,543.7z"/>
					<path class="st2" d="M355,561.6l-1.8,3.6c-0.8,1.6-2.7,2.2-4.3,1.4c-1.6-0.8-2.2-2.7-1.4-4.3c0,0,0,0,0-0.1l1.9-3.5
						c0.8-1.5,2.7-2.1,4.2-1.3C355.2,558.3,355.8,560.1,355,561.6z"/>
					<path class="st2" d="M345.9,579.6l-1.8,3.6c-0.8,1.7-2.9,2.3-4.6,1.5c-1.7-0.8-2.3-2.9-1.5-4.6c0,0,0,0,0-0.1l1.9-3.5
						c0.9-1.6,2.9-2.3,4.5-1.4C346.1,576,346.8,578,345.9,579.6z"/>
					<path class="st2" d="M336.9,597.5l-1.8,3.6c-0.9,1.8-3.1,2.5-4.8,1.6c-1.8-0.9-2.5-3.1-1.6-4.8c0,0,0-0.1,0-0.1l1.9-3.5
						c0.9-1.7,3.1-2.4,4.8-1.5C337.1,593.7,337.7,595.8,336.9,597.5z"/>
					<path class="st2" d="M327.8,615.5L326,619c-0.9,1.9-3.2,2.6-5.1,1.7c-1.9-1-2.6-3.2-1.7-5.1c0,0,0-0.1,0-0.1l1.9-3.5
						c1-1.8,3.3-2.5,5.1-1.6C328,611.4,328.7,613.6,327.8,615.5z"/>
					<path class="st2" d="M318.7,633.4l-0.9,1.8c-1,2-3.4,2.8-5.4,1.8c-2-1-2.8-3.4-1.8-5.4c0,0,0-0.1,0-0.1l0.9-1.8
						c1-1.9,3.4-2.7,5.4-1.6C319,629.1,319.7,631.5,318.7,633.4z"/>
				</g>
			</g>
			<g>
				<g>
					<path class="st2" d="M548.2,299.6l-0.9,1.8c0,0,0,0,0,0c0,0,0,0,0,0c0,0,0,0,0,0L548.2,299.6z"/>
					<path class="st2" d="M540.2,315.4l-1.8,3.5c-0.1,0.1-0.2,0.2-0.3,0.1c-0.1-0.1-0.2-0.2-0.1-0.3c0,0,0,0,0,0l1.8-3.5
						c0-0.1,0.2-0.1,0.3-0.1C540.2,315.2,540.3,315.3,540.2,315.4z"/>
					<path class="st2" d="M531.4,332.9l-1.8,3.5c-0.1,0.2-0.4,0.3-0.6,0.2c-0.2-0.1-0.3-0.4-0.2-0.6c0,0,0,0,0,0l1.8-3.5
						c0.1-0.2,0.3-0.3,0.5-0.2C531.4,332.5,531.5,332.8,531.4,332.9z"/>
					<path class="st2" d="M522.5,350.5l-1.8,3.5c-0.2,0.3-0.6,0.5-0.9,0.3c-0.3-0.2-0.5-0.6-0.3-0.9c0,0,0,0,0,0l1.8-3.5
						c0.2-0.3,0.5-0.4,0.8-0.3C522.6,349.8,522.7,350.2,522.5,350.5z"/>
					<path class="st2" d="M513.7,368l-1.8,3.5c-0.2,0.4-0.7,0.6-1.2,0.4s-0.6-0.7-0.4-1.2c0,0,0,0,0,0l1.8-3.5
						c0.2-0.4,0.7-0.6,1.1-0.3C513.7,367.1,513.9,367.6,513.7,368z"/>
					<path class="st2" d="M504.8,385.5L503,389c-0.3,0.5-0.9,0.7-1.4,0.5c-0.5-0.3-0.7-0.9-0.5-1.4c0,0,0,0,0,0l1.8-3.5
						c0.3-0.5,0.9-0.7,1.4-0.4C504.9,384.4,505.1,385,504.8,385.5z"/>
					<path class="st2" d="M495.9,403.1l-1.8,3.5c-0.3,0.6-1.1,0.9-1.7,0.6s-0.9-1.1-0.6-1.7c0,0,0,0,0,0l1.8-3.5
						c0.3-0.6,1.1-0.8,1.7-0.5C496,401.7,496.2,402.4,495.9,403.1z"/>
					<path class="st2" d="M487.1,420.6l-1.8,3.5c-0.4,0.7-1.3,1-2,0.7s-1-1.3-0.7-2c0,0,0,0,0,0l1.8-3.5c0.4-0.7,1.3-1,2-0.6
						C487.2,419,487.4,419.9,487.1,420.6z"/>
					<path class="st2" d="M478.2,438.1l-1.8,3.5c-0.4,0.8-1.5,1.2-2.3,0.8s-1.2-1.5-0.8-2.3c0,0,0,0,0,0l1.8-3.5
						c0.4-0.8,1.4-1.1,2.2-0.7C478.3,436.3,478.6,437.3,478.2,438.1z"/>
					<path class="st2" d="M469.4,455.6l-1.8,3.5c-0.5,0.9-1.6,1.3-2.6,0.8c-0.9-0.5-1.3-1.6-0.8-2.6c0,0,0,0,0,0l1.8-3.5
						c0.5-0.9,1.6-1.3,2.5-0.8C469.5,453.6,469.8,454.7,469.4,455.6z"/>
					<path class="st2" d="M460.5,473.2l-1.8,3.5c-0.5,1-1.8,1.5-2.9,0.9s-1.5-1.8-0.9-2.9c0,0,0,0,0,0l1.8-3.5
						c0.5-1,1.8-1.4,2.8-0.9C460.6,470.9,461,472.1,460.5,473.2z"/>
					<path class="st2" d="M451.6,490.7l-1.8,3.5c-0.6,1.2-2,1.6-3.1,1c-1.2-0.6-1.6-2-1-3.1c0,0,0,0,0,0l1.8-3.5
						c0.6-1.1,2-1.5,3.1-0.9C451.8,488.2,452.2,489.6,451.6,490.7z"/>
					<path class="st2" d="M442.8,508.2l-1.8,3.5c-0.6,1.3-2.2,1.8-3.4,1.1s-1.8-2.2-1.1-3.4c0,0,0,0,0,0l1.8-3.5
						c0.7-1.2,2.2-1.7,3.4-1C442.9,505.5,443.4,507,442.8,508.2z"/>
					<path class="st2" d="M433.9,525.7l-1.8,3.5c-0.7,1.4-2.3,1.9-3.7,1.2s-1.9-2.3-1.2-3.7c0,0,0,0,0-0.1l1.8-3.5
						c0.7-1.3,2.4-1.8,3.7-1.1C434.1,522.8,434.6,524.4,433.9,525.7z"/>
					<path class="st2" d="M425.1,543.3l-1.8,3.5c-0.7,1.5-2.5,2-4,1.3c-1.5-0.7-2-2.5-1.3-4c0,0,0,0,0-0.1l1.8-3.5
						c0.8-1.4,2.5-2,4-1.2C425.2,540.1,425.8,541.8,425.1,543.3z"/>
					<path class="st2" d="M416.2,560.8l-1.8,3.5c-0.8,1.6-2.7,2.2-4.3,1.4c-1.6-0.8-2.2-2.7-1.4-4.3c0,0,0,0,0-0.1l1.8-3.5
						c0.8-1.5,2.7-2.1,4.2-1.3C416.4,557.4,417,559.3,416.2,560.8z"/>
					<path class="st2" d="M407.4,578.3l-1.8,3.5c-0.8,1.7-2.9,2.3-4.6,1.5c-1.7-0.8-2.3-2.9-1.5-4.6c0,0,0,0,0-0.1l1.8-3.5
						c0.9-1.6,2.9-2.2,4.5-1.4C407.5,574.7,408.2,576.7,407.4,578.3z"/>
					<path class="st2" d="M398.5,595.8l-1.8,3.5c-0.9,1.8-3.1,2.5-4.8,1.6c-1.8-0.9-2.5-3.1-1.6-4.8c0,0,0-0.1,0-0.1l1.8-3.5
						c0.9-1.7,3.1-2.4,4.8-1.5C398.7,592,399.4,594.1,398.5,595.8z"/>
					<path class="st2" d="M389.6,613.4l-1.8,3.5c-0.9,1.9-3.2,2.6-5.1,1.7s-2.6-3.2-1.7-5.1c0,0,0-0.1,0-0.1l1.8-3.5
						c1-1.8,3.3-2.5,5.1-1.6C389.9,609.3,390.6,611.5,389.6,613.4z"/>
					<path class="st2" d="M380.8,630.9l-0.9,1.8c-1,2-3.4,2.8-5.4,1.8s-2.8-3.4-1.8-5.4c0,0,0-0.1,0-0.1l0.9-1.8
						c1-1.9,3.4-2.7,5.4-1.6C381,626.6,381.7,629,380.8,630.9z"/>
				</g>
			</g>
			<g>
				<g>
					<path class="st2" d="M606.2,304.8l-0.9,1.8c0,0,0,0,0,0c0,0,0,0,0,0l0,0L606.2,304.8z"/>
					<path class="st2" d="M598,321l-1.8,3.6c-0.1,0.1-0.2,0.2-0.3,0.1c-0.1-0.1-0.2-0.2-0.1-0.3c0,0,0,0,0,0l1.9-3.6
						c0.1-0.1,0.2-0.1,0.3-0.1C598,320.8,598.1,321,598,321z"/>
					<path class="st2" d="M588.9,339.1l-1.8,3.6c-0.1,0.2-0.4,0.3-0.6,0.2s-0.3-0.4-0.2-0.6c0,0,0,0,0,0l1.9-3.6
						c0.1-0.2,0.4-0.3,0.6-0.2C588.9,338.7,589,338.9,588.9,339.1z"/>
					<path class="st2" d="M579.8,357.2l-1.8,3.6c-0.2,0.3-0.6,0.5-0.9,0.3s-0.5-0.6-0.3-0.9c0,0,0,0,0,0l1.9-3.6
						c0.2-0.3,0.6-0.4,0.9-0.3C579.8,356.5,579.9,356.9,579.8,357.2z"/>
					<path class="st2" d="M570.6,375.3l-1.8,3.6c-0.2,0.4-0.8,0.6-1.2,0.4c-0.4-0.2-0.6-0.8-0.4-1.2c0,0,0,0,0,0l1.9-3.6
						c0.2-0.4,0.8-0.6,1.2-0.4C570.7,374.4,570.9,374.9,570.6,375.3z"/>
					<path class="st2" d="M561.5,393.4l-1.8,3.6c-0.3,0.6-1,0.8-1.5,0.5c-0.6-0.3-0.8-1-0.5-1.5c0,0,0,0,0,0l1.9-3.6
						c0.3-0.5,0.9-0.7,1.5-0.4C561.6,392.2,561.8,392.8,561.5,393.4z"/>
					<path class="st2" d="M552.4,411.4l-1.8,3.6c-0.3,0.7-1.2,0.9-1.8,0.6s-0.9-1.2-0.6-1.8c0,0,0,0,0,0l1.9-3.6
						c0.3-0.6,1.1-0.9,1.8-0.5C552.5,410,552.7,410.8,552.4,411.4z"/>
					<path class="st2" d="M543.3,429.5l-1.8,3.6c-0.4,0.8-1.3,1.1-2.1,0.7s-1.1-1.3-0.7-2.1c0,0,0,0,0,0l1.9-3.6
						c0.4-0.7,1.3-1,2.1-0.6C543.3,427.9,543.6,428.8,543.3,429.5z"/>
					<path class="st2" d="M534.1,447.6l-1.8,3.6c-0.4,0.9-1.5,1.2-2.4,0.8c-0.9-0.4-1.2-1.5-0.8-2.4c0,0,0,0,0,0l1.9-3.6
						c0.5-0.9,1.5-1.2,2.4-0.7C534.2,445.7,534.6,446.8,534.1,447.6z"/>
					<path class="st2" d="M525,465.7l-1.8,3.6c-0.5,1-1.7,1.4-2.7,0.9c-1-0.5-1.4-1.7-0.9-2.7c0,0,0,0,0,0l1.9-3.6
						c0.5-1,1.7-1.3,2.7-0.8C525.1,463.5,525.5,464.7,525,465.7z"/>
					<path class="st2" d="M515.9,483.8l-1.8,3.6c-0.6,1.1-1.9,1.6-3,1c-1.1-0.6-1.6-1.9-1-3c0,0,0,0,0,0l1.9-3.6
						c0.6-1.1,1.9-1.5,3-0.9C516,481.4,516.4,482.7,515.9,483.8z"/>
					<path class="st2" d="M506.7,501.8l-1.8,3.6c-0.6,1.2-2.1,1.7-3.3,1.1c-1.2-0.6-1.7-2.1-1.1-3.3c0,0,0,0,0,0l1.9-3.6
						c0.6-1.2,2.1-1.6,3.3-1C506.9,499.2,507.3,500.7,506.7,501.8z"/>
					<path class="st2" d="M497.6,519.9l-1.8,3.6c-0.7,1.3-2.3,1.9-3.6,1.2c-1.3-0.7-1.9-2.3-1.2-3.6c0,0,0,0,0-0.1l1.9-3.6
						c0.7-1.3,2.3-1.8,3.6-1.1C497.8,517.1,498.2,518.6,497.6,519.9z"/>
					<path class="st2" d="M488.5,538l-1.8,3.6c-0.7,1.4-2.5,2-3.9,1.3c-1.4-0.7-2-2.5-1.3-3.9c0,0,0,0,0-0.1l1.9-3.6
						c0.7-1.4,2.5-1.9,3.9-1.2C488.6,534.9,489.2,536.6,488.5,538z"/>
					<path class="st2" d="M479.3,556.1l-1.8,3.6c-0.8,1.5-2.7,2.2-4.2,1.4c-1.5-0.8-2.2-2.7-1.4-4.2c0,0,0,0,0-0.1l1.9-3.6
						c0.8-1.5,2.7-2.1,4.2-1.3C479.5,552.7,480.1,554.6,479.3,556.1z"/>
					<path class="st2" d="M470.2,574.2l-1.8,3.6c-0.8,1.7-2.9,2.3-4.5,1.5c-1.7-0.8-2.3-2.9-1.5-4.5c0,0,0,0,0-0.1l1.9-3.6
						c0.9-1.6,2.9-2.2,4.5-1.4C470.4,570.6,471,572.5,470.2,574.2z"/>
					<path class="st2" d="M461.1,592.2l-1.8,3.6c-0.9,1.8-3,2.5-4.8,1.6c-1.8-0.9-2.5-3-1.6-4.8c0,0,0-0.1,0-0.1l1.9-3.6
						c0.9-1.7,3.1-2.4,4.8-1.5C461.3,588.4,461.9,590.5,461.1,592.2z"/>
					<path class="st2" d="M452,610.3l-1.8,3.6c-0.9,1.9-3.2,2.6-5.1,1.7c-1.9-0.9-2.6-3.2-1.7-5.1c0,0,0-0.1,0-0.1l1.9-3.6
						c1-1.8,3.3-2.5,5.1-1.5C452.2,606.3,452.9,608.5,452,610.3z"/>
					<path class="st2" d="M442.8,628.4l-0.9,1.8c-1,2-3.4,2.8-5.4,1.8c-2-1-2.8-3.4-1.8-5.4c0,0,0-0.1,0-0.1l0.9-1.8
						c1-1.9,3.4-2.7,5.4-1.6C443.1,624.1,443.8,626.5,442.8,628.4z"/>
				</g>
			</g>
			<g>
				<g>
					<path class="st2" d="M664.3,310l-0.9,1.8c0,0,0,0,0,0c0,0,0,0,0,0c0,0,0,0,0,0L664.3,310z"/>
					<path class="st2" d="M656.2,325.9l-1.8,3.5c-0.1,0.1-0.2,0.2-0.3,0.1s-0.2-0.2-0.1-0.3c0,0,0,0,0,0l1.9-3.5
						c0.1-0.1,0.2-0.1,0.3-0.1C656.3,325.7,656.3,325.8,656.2,325.9z"/>
					<path class="st2" d="M647.3,343.5l-1.8,3.5c-0.1,0.2-0.4,0.3-0.6,0.2c-0.2-0.1-0.3-0.4-0.2-0.6c0,0,0,0,0,0l1.9-3.5
						c0.1-0.2,0.4-0.3,0.6-0.2C647.4,343.1,647.4,343.3,647.3,343.5z"/>
					<path class="st2" d="M638.4,361.2l-1.8,3.5c-0.2,0.3-0.6,0.5-0.9,0.3c-0.3-0.2-0.5-0.6-0.3-0.9c0,0,0,0,0,0l1.9-3.5
						c0.2-0.3,0.6-0.4,0.9-0.3C638.5,360.5,638.6,360.9,638.4,361.2z"/>
					<path class="st2" d="M629.5,378.8l-1.8,3.5c-0.2,0.4-0.8,0.6-1.2,0.4c-0.4-0.2-0.6-0.8-0.4-1.2c0,0,0,0,0,0l1.9-3.5
						c0.2-0.4,0.8-0.6,1.2-0.4C629.6,377.9,629.7,378.4,629.5,378.8z"/>
					<path class="st2" d="M620.6,396.5l-1.8,3.5c-0.3,0.6-1,0.8-1.5,0.5c-0.6-0.3-0.8-1-0.5-1.5c0,0,0,0,0,0l1.9-3.5
						c0.3-0.5,0.9-0.7,1.5-0.4C620.7,395.3,620.9,396,620.6,396.5z"/>
					<path class="st2" d="M611.7,414.1l-1.8,3.5c-0.3,0.7-1.2,0.9-1.8,0.6c-0.7-0.3-0.9-1.2-0.6-1.8c0,0,0,0,0,0l1.9-3.5
						c0.3-0.6,1.1-0.9,1.8-0.5C611.8,412.7,612,413.5,611.7,414.1z"/>
					<path class="st2" d="M602.8,431.8l-1.8,3.5c-0.4,0.8-1.3,1.1-2.1,0.7c-0.8-0.4-1.1-1.3-0.7-2.1c0,0,0,0,0,0l1.9-3.5
						c0.4-0.7,1.3-1,2.1-0.6C602.9,430.1,603.2,431,602.8,431.8z"/>
					<path class="st2" d="M593.9,449.4l-1.8,3.5c-0.4,0.9-1.5,1.2-2.4,0.8s-1.2-1.5-0.8-2.4c0,0,0,0,0,0l1.9-3.5
						c0.5-0.9,1.5-1.2,2.4-0.7C594,447.5,594.3,448.6,593.9,449.4z"/>
					<path class="st2" d="M585,467.1l-1.8,3.5c-0.5,1-1.7,1.4-2.7,0.9c-1-0.5-1.4-1.7-0.9-2.7c0,0,0,0,0,0l1.9-3.5
						c0.5-1,1.7-1.3,2.7-0.8C585.1,464.9,585.5,466.1,585,467.1z"/>
					<path class="st2" d="M576.1,484.7l-1.8,3.5c-0.6,1.1-1.9,1.6-3,1c-1.1-0.6-1.6-1.9-1-3c0,0,0,0,0,0l1.9-3.5
						c0.6-1.1,1.9-1.5,3-0.9C576.2,482.3,576.6,483.6,576.1,484.7z"/>
					<path class="st2" d="M567.2,502.4l-1.8,3.5c-0.6,1.2-2.1,1.7-3.3,1.1c-1.2-0.6-1.7-2.1-1.1-3.3c0,0,0,0,0,0l1.9-3.5
						c0.6-1.2,2.1-1.6,3.3-1C567.3,499.8,567.8,501.2,567.2,502.4z"/>
					<path class="st2" d="M558.3,520l-1.8,3.5c-0.7,1.3-2.3,1.9-3.6,1.2c-1.3-0.7-1.9-2.3-1.2-3.6c0,0,0,0,0-0.1l1.9-3.5
						c0.7-1.3,2.3-1.8,3.6-1.1C558.5,517.2,558.9,518.7,558.3,520z"/>
					<path class="st2" d="M549.4,537.7l-1.8,3.5c-0.7,1.4-2.5,2-3.9,1.3c-1.4-0.7-2-2.5-1.3-3.9c0,0,0,0,0-0.1l1.9-3.5
						c0.7-1.4,2.5-1.9,3.9-1.2C549.6,534.6,550.1,536.3,549.4,537.7z"/>
					<path class="st2" d="M540.5,555.3l-1.8,3.5c-0.8,1.5-2.7,2.2-4.2,1.4c-1.5-0.8-2.2-2.7-1.4-4.2c0,0,0,0,0-0.1l1.9-3.5
						c0.8-1.5,2.7-2.1,4.2-1.3C540.7,552,541.2,553.8,540.5,555.3z"/>
					<path class="st2" d="M531.6,572.9l-1.8,3.5c-0.8,1.7-2.9,2.3-4.5,1.5s-2.3-2.9-1.5-4.5c0,0,0,0,0-0.1l1.9-3.5
						c0.9-1.6,2.9-2.2,4.5-1.4C531.8,569.4,532.4,571.3,531.6,572.9z"/>
					<path class="st2" d="M522.7,590.6l-1.8,3.5c-0.9,1.8-3,2.5-4.8,1.6s-2.5-3-1.6-4.8c0,0,0-0.1,0-0.1l1.9-3.5
						c0.9-1.7,3.1-2.4,4.8-1.5C522.9,586.8,523.5,588.9,522.7,590.6z"/>
					<path class="st2" d="M513.8,608.2l-1.8,3.5c-0.9,1.9-3.2,2.6-5.1,1.7c-1.9-0.9-2.6-3.2-1.7-5.1c0,0,0-0.1,0-0.1l1.9-3.5
						c1-1.8,3.3-2.5,5.1-1.5C514,604.2,514.7,606.4,513.8,608.2z"/>
					<path class="st2" d="M504.9,625.9l-0.9,1.8c-1,2-3.4,2.8-5.4,1.8s-2.8-3.4-1.8-5.4c0,0,0-0.1,0-0.1l0.9-1.8
						c1-1.9,3.4-2.7,5.4-1.6C505.1,621.6,505.8,624,504.9,625.9z"/>
				</g>
			</g>
			<g>
				<g>
					<path class="st2" d="M722.3,315.2l-0.9,1.8c0,0,0,0,0,0s0,0,0,0l0,0L722.3,315.2z"/>
					<path class="st2" d="M714,331.5l-1.8,3.6c-0.1,0.1-0.2,0.2-0.3,0.1s-0.2-0.2-0.1-0.3c0,0,0,0,0,0l1.9-3.6
						c0.1-0.1,0.2-0.1,0.3-0.1C714,331.3,714.1,331.4,714,331.5z"/>
					<path class="st2" d="M704.8,349.8l-1.8,3.6c-0.1,0.2-0.4,0.3-0.7,0.2c-0.2-0.1-0.3-0.4-0.2-0.7c0,0,0,0,0,0l1.9-3.6
						c0.1-0.2,0.4-0.3,0.6-0.2C704.9,349.3,704.9,349.6,704.8,349.8z"/>
					<path class="st2" d="M695.6,368l-1.8,3.6c-0.2,0.4-0.6,0.5-1,0.3c-0.4-0.2-0.5-0.6-0.3-1c0,0,0,0,0,0l1.9-3.6
						c0.2-0.3,0.6-0.5,0.9-0.3C695.7,367.3,695.8,367.7,695.6,368z"/>
					<path class="st2" d="M686.4,386.3l-1.8,3.6c-0.2,0.5-0.8,0.7-1.3,0.4c-0.5-0.2-0.7-0.8-0.4-1.3c0,0,0,0,0,0l1.9-3.6
						c0.2-0.4,0.8-0.6,1.2-0.4C686.5,385.3,686.7,385.8,686.4,386.3z"/>
					<path class="st2" d="M677.3,404.5l-1.8,3.6c-0.3,0.6-1,0.8-1.6,0.5s-0.8-1-0.5-1.6c0,0,0,0,0,0l1.9-3.6c0.3-0.6,1-0.8,1.6-0.5
						C677.3,403.3,677.5,404,677.3,404.5z"/>
					<path class="st2" d="M668.1,422.7l-1.8,3.6c-0.4,0.7-1.2,1-1.9,0.6c-0.7-0.4-1-1.2-0.6-1.9c0,0,0,0,0,0l1.9-3.6
						c0.4-0.7,1.2-0.9,1.9-0.6C668.1,421.3,668.4,422.1,668.1,422.7z"/>
					<path class="st2" d="M658.9,441l-1.8,3.6c-0.4,0.8-1.4,1.2-2.2,0.7c-0.8-0.4-1.2-1.4-0.7-2.2c0,0,0,0,0,0l1.9-3.6
						c0.4-0.8,1.4-1.1,2.2-0.7C659,439.2,659.3,440.2,658.9,441z"/>
					<path class="st2" d="M649.7,459.2l-1.8,3.6c-0.5,0.9-1.6,1.3-2.6,0.8s-1.3-1.6-0.8-2.6c0,0,0,0,0,0l1.9-3.6
						c0.5-0.9,1.6-1.2,2.5-0.8C649.8,457.2,650.1,458.3,649.7,459.2z"/>
					<path class="st2" d="M640.5,477.5l-1.8,3.6c-0.5,1.1-1.8,1.5-2.9,0.9c-1.1-0.5-1.5-1.8-0.9-2.9c0,0,0,0,0,0l1.9-3.6
						c0.5-1,1.8-1.4,2.8-0.9C640.6,475.2,641,476.5,640.5,477.5z"/>
					<path class="st2" d="M631.3,495.7l-1.8,3.6c-0.6,1.2-2,1.6-3.2,1.1c-1.2-0.6-1.6-2-1.1-3.2c0,0,0,0,0,0l1.9-3.6
						c0.6-1.1,2-1.6,3.2-1C631.4,493.2,631.8,494.6,631.3,495.7z"/>
					<path class="st2" d="M622.1,514l-1.8,3.6c-0.6,1.3-2.2,1.8-3.5,1.2c-1.3-0.6-1.8-2.2-1.2-3.5c0,0,0,0,0-0.1l1.9-3.6
						c0.7-1.2,2.2-1.7,3.5-1.1C622.2,511.2,622.7,512.7,622.1,514z"/>
					<path class="st2" d="M612.9,532.2l-1.8,3.6c-0.7,1.4-2.4,2-3.8,1.3s-2-2.4-1.3-3.8c0,0,0,0,0-0.1l1.9-3.6
						c0.7-1.4,2.4-1.9,3.8-1.2C613.1,529.2,613.6,530.8,612.9,532.2z"/>
					<path class="st2" d="M603.7,550.4l-1.8,3.6c-0.8,1.5-2.6,2.1-4.1,1.4c-1.5-0.8-2.1-2.6-1.4-4.1c0,0,0,0,0-0.1l1.9-3.6
						c0.8-1.5,2.6-2,4.1-1.3C603.9,547.2,604.4,549,603.7,550.4z"/>
					<path class="st2" d="M594.5,568.7l-1.8,3.6c-0.8,1.6-2.8,2.3-4.5,1.5c-1.6-0.8-2.3-2.8-1.5-4.5c0,0,0-0.1,0-0.1l1.9-3.6
						c0.9-1.6,2.8-2.2,4.4-1.3C594.7,565.1,595.3,567.1,594.5,568.7z"/>
					<path class="st2" d="M585.3,586.9l-1.8,3.6c-0.9,1.8-3,2.5-4.8,1.6c-1.8-0.9-2.5-3-1.6-4.8c0,0,0-0.1,0-0.1l1.9-3.6
						c0.9-1.7,3-2.4,4.7-1.4C585.5,583.1,586.2,585.2,585.3,586.9z"/>
					<path class="st2" d="M576.1,605.2l-1.8,3.6c-0.9,1.9-3.2,2.6-5.1,1.7c-1.9-0.9-2.6-3.2-1.7-5.1c0,0,0-0.1,0-0.1l1.9-3.6
						c1-1.8,3.2-2.5,5.1-1.5C576.3,601.1,577,603.3,576.1,605.2z"/>
					<path class="st2" d="M566.9,623.4l-0.9,1.8c-1,2-3.4,2.8-5.4,1.8c-2-1-2.8-3.4-1.8-5.4c0,0,0-0.1,0-0.1l0.9-1.8
						c1-1.9,3.4-2.7,5.4-1.6C567.2,619.1,567.9,621.5,566.9,623.4z"/>
				</g>
			</g>
		</g>
		<g>
			<g>
				<g>
					<path class="st2" d="M167.9,383.8l-0.9,1.8c0,0,0,0,0,0c0,0,0,0,0,0c0,0,0,0,0,0L167.9,383.8z"/>
					<path class="st2" d="M159.7,400.1l-1.8,3.6c-0.1,0.2-0.3,0.2-0.4,0.1c-0.2-0.1-0.2-0.3-0.1-0.4c0,0,0,0,0,0l1.9-3.6
						c0.1-0.1,0.2-0.2,0.3-0.1C159.7,399.8,159.8,400,159.7,400.1z"/>
					<path class="st2" d="M150.6,418.2l-1.8,3.6c-0.1,0.3-0.5,0.4-0.8,0.3c-0.3-0.1-0.4-0.5-0.3-0.8c0,0,0,0,0,0l1.9-3.6
						c0.1-0.3,0.5-0.4,0.7-0.2C150.6,417.6,150.7,417.9,150.6,418.2z"/>
					<path class="st2" d="M141.5,436.2l-1.8,3.6c-0.2,0.4-0.8,0.6-1.2,0.4c-0.4-0.2-0.6-0.8-0.4-1.2c0,0,0,0,0,0l1.9-3.6
						c0.2-0.4,0.7-0.6,1.1-0.3C141.6,435.3,141.7,435.8,141.5,436.2z"/>
					<path class="st2" d="M132.4,454.3l-1.8,3.6c-0.3,0.6-1,0.8-1.6,0.5c-0.6-0.3-0.8-1-0.5-1.6c0,0,0,0,0,0l1.9-3.6
						c0.3-0.5,1-0.7,1.5-0.5C132.5,453.1,132.7,453.8,132.4,454.3z"/>
					<path class="st2" d="M123.4,472.4l-1.8,3.6c-0.4,0.7-1.2,1-2,0.6c-0.7-0.4-1-1.2-0.6-2c0,0,0,0,0,0l1.9-3.6
						c0.4-0.7,1.2-0.9,1.9-0.6C123.4,470.9,123.7,471.7,123.4,472.4z"/>
					<path class="st2" d="M114.3,490.4l-1.8,3.6c-0.4,0.9-1.5,1.2-2.3,0.8c-0.9-0.4-1.2-1.5-0.8-2.3c0,0,0,0,0,0l1.9-3.6
						c0.4-0.8,1.5-1.1,2.3-0.7C114.4,488.6,114.7,489.6,114.3,490.4z"/>
					<path class="st2" d="M105.2,508.5l-1.8,3.6c-0.5,1-1.7,1.4-2.7,0.9c-1-0.5-1.4-1.7-0.9-2.7c0,0,0,0,0-0.1l1.9-3.6
						c0.5-1,1.7-1.3,2.7-0.8C105.3,506.4,105.7,507.6,105.2,508.5z"/>
					<path class="st2" d="M96.1,526.6l-1.8,3.6c-0.6,1.1-2,1.6-3.1,1c-1.1-0.6-1.6-2-1-3.1c0,0,0,0,0-0.1l1.9-3.6
						c0.6-1.1,2-1.5,3.1-0.9C96.3,524.1,96.7,525.5,96.1,526.6z"/>
					<path class="st2" d="M87,544.6l-1.8,3.6c-0.6,1.3-2.2,1.8-3.5,1.2s-1.8-2.2-1.2-3.5c0,0,0,0,0-0.1l1.9-3.6
						c0.7-1.2,2.2-1.7,3.4-1C87.2,541.9,87.7,543.4,87,544.6z"/>
					<path class="st2" d="M78,562.7l-1.8,3.6c-0.7,1.4-2.5,2-3.9,1.3c-1.4-0.7-2-2.5-1.3-3.9c0,0,0-0.1,0-0.1l1.9-3.6
						c0.7-1.4,2.5-1.9,3.8-1.1C78.1,559.7,78.6,561.3,78,562.7z"/>
					<path class="st2" d="M68.9,580.8l-1.8,3.6c-0.8,1.6-2.7,2.2-4.3,1.4c-1.6-0.8-2.2-2.7-1.4-4.3c0,0,0-0.1,0-0.1l1.9-3.6
						c0.8-1.5,2.7-2.1,4.2-1.3C69.1,577.4,69.6,579.3,68.9,580.8z"/>
					<path class="st2" d="M59.8,598.8l-1.8,3.6c-0.9,1.7-2.9,2.4-4.6,1.5c-1.7-0.9-2.4-2.9-1.5-4.6c0,0,0-0.1,0-0.1l1.9-3.6
						c0.9-1.7,3-2.3,4.6-1.4C60,595.2,60.6,597.2,59.8,598.8z"/>
					<path class="st2" d="M50.7,616.9l-1.8,3.6c-0.9,1.8-3.2,2.6-5,1.7c-1.8-0.9-2.6-3.2-1.7-5c0,0,0-0.1,0-0.1l1.9-3.6
						c1-1.8,3.2-2.5,5-1.5C50.9,613,51.6,615.1,50.7,616.9z"/>
					<path class="st2" d="M41.6,635l-0.9,1.8c-1,2-3.4,2.8-5.4,1.8c-2-1-2.8-3.4-1.8-5.4c0,0,0-0.1,0.1-0.1l0.9-1.8
						c1-1.9,3.4-2.7,5.4-1.6C41.9,630.7,42.6,633.1,41.6,635z"/>
				</g>
			</g>
			<g>
				<g>
					<path class="st2" d="M230.5,380.4l-0.9,1.8c0,0,0,0,0,0s0,0,0,0l0,0L230.5,380.4z"/>
					<path class="st2" d="M222.6,396.2l-1.8,3.5c-0.1,0.2-0.3,0.2-0.4,0.1c-0.2-0.1-0.2-0.3-0.1-0.4c0,0,0,0,0,0l1.9-3.4
						c0.1-0.1,0.2-0.2,0.3-0.1C222.6,395.9,222.7,396,222.6,396.2z"/>
					<path class="st2" d="M213.8,413.7l-1.8,3.5c-0.1,0.3-0.5,0.4-0.8,0.3c-0.3-0.1-0.4-0.5-0.3-0.8c0,0,0,0,0,0l1.9-3.4
						c0.1-0.3,0.5-0.4,0.7-0.2C213.9,413.1,214,413.4,213.8,413.7z"/>
					<path class="st2" d="M205,431.2l-1.8,3.5c-0.2,0.4-0.8,0.6-1.2,0.4c-0.4-0.2-0.6-0.8-0.4-1.2c0,0,0,0,0,0l1.9-3.4
						c0.2-0.4,0.7-0.6,1.1-0.3C205.1,430.3,205.2,430.8,205,431.2z"/>
					<path class="st2" d="M196.2,448.7l-1.8,3.5c-0.3,0.6-1,0.8-1.6,0.5c-0.6-0.3-0.8-1-0.5-1.6c0,0,0,0,0,0l1.9-3.4
						c0.3-0.5,1-0.7,1.5-0.5C196.3,447.5,196.5,448.2,196.2,448.7z"/>
					<path class="st2" d="M187.5,466.2l-1.8,3.5c-0.4,0.7-1.2,1-2,0.6c-0.7-0.4-1-1.2-0.6-2c0,0,0,0,0,0l1.9-3.4
						c0.4-0.7,1.2-0.9,1.9-0.6C187.5,464.7,187.8,465.5,187.5,466.2z"/>
					<path class="st2" d="M178.7,483.7l-1.8,3.5c-0.4,0.9-1.5,1.2-2.3,0.8c-0.9-0.4-1.2-1.5-0.8-2.3c0,0,0,0,0,0l1.9-3.4
						c0.4-0.8,1.5-1.1,2.3-0.7C178.8,481.9,179.1,482.9,178.7,483.7z"/>
					<path class="st2" d="M169.9,501.2l-1.8,3.5c-0.5,1-1.7,1.4-2.7,0.9c-1-0.5-1.4-1.7-0.9-2.7c0,0,0,0,0-0.1l1.9-3.4
						c0.5-1,1.7-1.3,2.7-0.8C170,499.1,170.4,500.3,169.9,501.2z"/>
					<path class="st2" d="M161.1,518.7l-1.8,3.5c-0.6,1.1-2,1.6-3.1,1c-1.1-0.6-1.6-2-1-3.1c0,0,0,0,0-0.1l1.9-3.4
						c0.6-1.1,2-1.5,3.1-0.9C161.2,516.3,161.6,517.7,161.1,518.7z"/>
					<path class="st2" d="M152.3,536.3l-1.8,3.5c-0.6,1.3-2.2,1.8-3.5,1.2s-1.8-2.2-1.2-3.5c0,0,0,0,0-0.1l1.9-3.4
						c0.7-1.2,2.2-1.7,3.4-1C152.5,533.5,152.9,535,152.3,536.3z"/>
					<path class="st2" d="M143.5,553.8l-1.8,3.5c-0.7,1.4-2.4,2-3.9,1.3c-1.4-0.7-2-2.4-1.3-3.9c0,0,0-0.1,0-0.1l1.9-3.4
						c0.7-1.4,2.5-1.9,3.8-1.1C143.7,550.7,144.2,552.4,143.5,553.8z"/>
					<path class="st2" d="M134.7,571.3l-1.8,3.5c-0.8,1.6-2.7,2.2-4.3,1.4c-1.6-0.8-2.2-2.7-1.4-4.3c0,0,0-0.1,0-0.1l1.9-3.4
						c0.8-1.5,2.7-2.1,4.2-1.3C134.9,567.9,135.5,569.8,134.7,571.3z"/>
					<path class="st2" d="M125.9,588.8l-1.8,3.5c-0.9,1.7-2.9,2.4-4.6,1.5c-1.7-0.9-2.4-2.9-1.5-4.6c0,0,0-0.1,0-0.1l1.9-3.4
						c0.9-1.7,3-2.3,4.6-1.4C126.1,585.2,126.8,587.2,125.9,588.8z"/>
					<path class="st2" d="M117.1,606.3l-1.8,3.5c-0.9,1.8-3.2,2.6-5,1.7c-1.8-0.9-2.6-3.2-1.7-5c0,0,0-0.1,0.1-0.1l1.9-3.4
						c1-1.8,3.2-2.5,5-1.5C117.4,602.4,118,604.5,117.1,606.3z"/>
					<path class="st2" d="M108.4,623.8l-0.9,1.8c-1,2-3.4,2.8-5.4,1.8s-2.8-3.4-1.8-5.4c0,0,0-0.1,0.1-0.1l0.9-1.8
						c1-1.9,3.4-2.7,5.4-1.6C108.6,619.6,109.3,621.9,108.4,623.8z"/>
				</g>
			</g>
			<g>
				<g>
					<path class="st2" d="M293.2,376.9l-0.9,1.8c0,0,0,0,0,0s0,0,0,0c0,0,0,0,0,0L293.2,376.9z"/>
					<path class="st2" d="M285,393.3l-1.8,3.7c-0.1,0.2-0.3,0.2-0.5,0.2c-0.2-0.1-0.2-0.3-0.2-0.5c0,0,0,0,0,0l1.9-3.6
						c0.1-0.1,0.2-0.2,0.4-0.1C285,393,285.1,393.2,285,393.3z"/>
					<path class="st2" d="M275.8,411.6l-1.8,3.7c-0.2,0.3-0.5,0.4-0.9,0.3s-0.4-0.5-0.3-0.9c0,0,0,0,0,0l1.9-3.6
						c0.2-0.3,0.5-0.4,0.8-0.2C275.9,410.9,276,411.3,275.8,411.6z"/>
					<path class="st2" d="M266.7,429.9l-1.8,3.7c-0.2,0.5-0.8,0.7-1.3,0.4c-0.5-0.2-0.7-0.8-0.4-1.3c0,0,0,0,0,0l1.9-3.6
						c0.2-0.4,0.8-0.6,1.2-0.4C266.7,428.9,266.9,429.4,266.7,429.9z"/>
					<path class="st2" d="M257.5,448.1l-1.8,3.7c-0.3,0.6-1.1,0.9-1.7,0.6s-0.9-1.1-0.6-1.7c0,0,0,0,0,0l1.9-3.6
						c0.3-0.6,1-0.8,1.6-0.5C257.6,446.8,257.8,447.6,257.5,448.1z"/>
					<path class="st2" d="M248.4,466.4l-1.8,3.7c-0.4,0.8-1.3,1.1-2.1,0.7c-0.8-0.4-1.1-1.3-0.7-2.1c0,0,0,0,0,0l1.9-3.6
						c0.4-0.7,1.3-1,2-0.6C248.4,464.8,248.7,465.7,248.4,466.4z"/>
					<path class="st2" d="M239.2,484.7l-1.8,3.7c-0.5,0.9-1.6,1.3-2.5,0.8c-0.9-0.5-1.3-1.6-0.8-2.5c0,0,0,0,0-0.1l1.9-3.6
						c0.5-0.9,1.6-1.2,2.5-0.7C239.3,482.7,239.6,483.8,239.2,484.7z"/>
					<path class="st2" d="M230,503l-1.8,3.7c-0.5,1.1-1.9,1.5-2.9,1c-1.1-0.5-1.5-1.9-1-2.9c0,0,0,0,0-0.1l1.9-3.6
						c0.6-1,1.8-1.4,2.9-0.9C230.2,500.7,230.6,502,230,503z"/>
					<path class="st2" d="M220.9,521.3l-1.8,3.7c-0.6,1.2-2.1,1.7-3.3,1.1s-1.7-2.1-1.1-3.3c0,0,0,0,0-0.1l1.9-3.6
						c0.6-1.2,2.1-1.6,3.3-1C221,518.7,221.5,520.1,220.9,521.3z"/>
					<path class="st2" d="M211.7,539.5l-1.8,3.7c-0.7,1.4-2.4,1.9-3.8,1.2s-1.9-2.4-1.2-3.8c0,0,0-0.1,0-0.1l1.9-3.6
						c0.7-1.3,2.4-1.8,3.7-1.1C211.9,536.6,212.4,538.2,211.7,539.5z"/>
					<path class="st2" d="M202.6,557.8l-1.8,3.7c-0.8,1.5-2.6,2.2-4.2,1.4c-1.5-0.8-2.2-2.6-1.4-4.2c0,0,0-0.1,0-0.1l1.9-3.6
						c0.8-1.5,2.6-2,4.1-1.2C202.7,554.6,203.3,556.3,202.6,557.8z"/>
					<path class="st2" d="M193.4,576.1l-1.8,3.7c-0.8,1.7-2.9,2.4-4.6,1.5c-1.7-0.8-2.4-2.9-1.5-4.6c0,0,0-0.1,0-0.1l1.9-3.6
						c0.9-1.6,2.9-2.2,4.5-1.4C193.6,572.5,194.2,574.5,193.4,576.1z"/>
					<path class="st2" d="M184.2,594.4l-1.8,3.7c-0.9,1.8-3.2,2.6-5,1.7c-1.8-0.9-2.6-3.2-1.7-5c0,0,0-0.1,0.1-0.1l1.9-3.6
						c1-1.8,3.2-2.4,5-1.5C184.4,590.5,185.1,592.6,184.2,594.4z"/>
					<path class="st2" d="M175.1,612.7l-0.9,1.8c-1,2-3.4,2.8-5.4,1.8c-2-1-2.8-3.4-1.8-5.4c0,0,0-0.1,0.1-0.1l0.9-1.8
						c1-1.9,3.4-2.7,5.4-1.6C175.3,608.4,176,610.7,175.1,612.7z"/>
				</g>
			</g>
			<g>
				<g>
					<path class="st2" d="M355.9,373.4l-0.9,1.8c0,0,0,0,0,0s0,0,0,0c0,0,0,0,0,0L355.9,373.4z"/>
					<path class="st2" d="M347.9,389.3l-1.8,3.5c-0.1,0.2-0.3,0.2-0.5,0.2c-0.2-0.1-0.2-0.3-0.2-0.5c0,0,0,0,0,0l1.9-3.5
						c0.1-0.1,0.2-0.2,0.4-0.1C348,389,348,389.2,347.9,389.3z"/>
					<path class="st2" d="M339.1,407l-1.8,3.5c-0.2,0.3-0.5,0.4-0.9,0.3s-0.4-0.5-0.3-0.9c0,0,0,0,0,0l1.9-3.5
						c0.2-0.3,0.5-0.4,0.8-0.2C339.1,406.4,339.2,406.7,339.1,407z"/>
					<path class="st2" d="M330.3,424.7l-1.8,3.5c-0.2,0.5-0.8,0.7-1.3,0.4c-0.5-0.2-0.7-0.8-0.4-1.3c0,0,0,0,0,0l1.9-3.5
						c0.2-0.4,0.8-0.6,1.2-0.4C330.3,423.7,330.5,424.3,330.3,424.7z"/>
					<path class="st2" d="M321.4,442.4l-1.8,3.5c-0.3,0.6-1.1,0.9-1.7,0.6s-0.9-1.1-0.6-1.7c0,0,0,0,0,0l1.9-3.5
						c0.3-0.6,1-0.8,1.6-0.5C321.5,441.1,321.7,441.8,321.4,442.4z"/>
					<path class="st2" d="M312.6,460.1l-1.8,3.5c-0.4,0.8-1.3,1.1-2.1,0.7c-0.8-0.4-1.1-1.3-0.7-2.1c0,0,0,0,0,0l1.9-3.5
						c0.4-0.7,1.3-1,2-0.6C312.6,458.4,312.9,459.3,312.6,460.1z"/>
					<path class="st2" d="M303.7,477.7l-1.8,3.5c-0.5,0.9-1.6,1.3-2.5,0.8s-1.3-1.6-0.8-2.5c0,0,0,0,0-0.1l1.9-3.5
						c0.5-0.9,1.6-1.2,2.5-0.7C303.8,475.8,304.1,476.9,303.7,477.7z"/>
					<path class="st2" d="M294.9,495.4l-1.8,3.5c-0.5,1.1-1.9,1.5-2.9,1c-1.1-0.5-1.5-1.9-1-2.9c0,0,0,0,0-0.1l1.9-3.5
						c0.6-1,1.8-1.4,2.9-0.9C295,493.1,295.4,494.4,294.9,495.4z"/>
					<path class="st2" d="M286,513.1l-1.8,3.5c-0.6,1.2-2.1,1.7-3.3,1.1s-1.7-2.1-1.1-3.3c0,0,0,0,0-0.1l1.9-3.5
						c0.6-1.2,2.1-1.6,3.3-1C286.2,510.5,286.6,511.9,286,513.1z"/>
					<path class="st2" d="M277.2,530.8l-1.8,3.5c-0.7,1.4-2.4,1.9-3.8,1.3c-1.4-0.7-1.9-2.4-1.3-3.8c0,0,0-0.1,0-0.1l1.9-3.5
						c0.7-1.3,2.4-1.8,3.7-1.1C277.3,527.8,277.8,529.5,277.2,530.8z"/>
					<path class="st2" d="M268.3,548.4l-1.8,3.5c-0.8,1.5-2.6,2.2-4.2,1.4s-2.2-2.6-1.4-4.2c0,0,0-0.1,0-0.1l1.9-3.5
						c0.8-1.5,2.6-2,4.1-1.2C268.5,545.2,269.1,547,268.3,548.4z"/>
					<path class="st2" d="M259.5,566.1l-1.8,3.5c-0.8,1.7-2.9,2.4-4.6,1.5c-1.7-0.8-2.4-2.9-1.5-4.6c0,0,0-0.1,0-0.1l1.9-3.5
						c0.9-1.6,2.9-2.2,4.5-1.4C259.7,562.5,260.3,564.5,259.5,566.1z"/>
					<path class="st2" d="M250.6,583.8l-1.8,3.5c-0.9,1.8-3.2,2.6-5,1.7s-2.6-3.2-1.7-5c0,0,0-0.1,0.1-0.1l1.9-3.5
						c1-1.8,3.2-2.4,5-1.5C250.8,579.9,251.5,582,250.6,583.8z"/>
					<path class="st2" d="M241.8,601.5l-0.9,1.8c-1,2-3.4,2.8-5.4,1.8c-2-1-2.8-3.4-1.8-5.4c0,0,0-0.1,0.1-0.1l1-1.8
						c1-1.9,3.4-2.6,5.4-1.6C242,597.2,242.7,599.6,241.8,601.5z"/>
				</g>
			</g>
			<g>
				<g>
					<path class="st2" d="M418.6,369.9l-0.9,1.8c0,0,0,0,0,0c0,0,0,0,0,0l0,0L418.6,369.9z"/>
					<path class="st2" d="M410.3,386.5l-1.9,3.7c-0.1,0.2-0.3,0.3-0.5,0.2c-0.2-0.1-0.3-0.3-0.2-0.5c0,0,0,0,0,0l2-3.6
						c0.1-0.1,0.3-0.2,0.4-0.1C410.3,386.2,410.4,386.4,410.3,386.5z"/>
					<path class="st2" d="M401.1,405.1l-1.9,3.7c-0.2,0.3-0.6,0.5-0.9,0.3c-0.3-0.2-0.5-0.6-0.3-0.9c0,0,0,0,0,0l2-3.6
						c0.2-0.3,0.6-0.4,0.9-0.3C401.1,404.4,401.2,404.8,401.1,405.1z"/>
					<path class="st2" d="M391.8,423.6l-1.9,3.7c-0.3,0.5-0.9,0.7-1.4,0.5c-0.5-0.3-0.7-0.9-0.5-1.4c0,0,0,0,0,0l2-3.6
						c0.3-0.5,0.8-0.6,1.3-0.4C391.9,422.5,392,423.1,391.8,423.6z"/>
					<path class="st2" d="M382.5,442.1l-1.9,3.7c-0.3,0.7-1.2,0.9-1.8,0.6c-0.7-0.3-0.9-1.2-0.6-1.8c0,0,0,0,0,0l2-3.6
						c0.3-0.6,1.1-0.9,1.8-0.5C382.6,440.7,382.9,441.5,382.5,442.1z"/>
					<path class="st2" d="M373.3,460.6l-1.9,3.7c-0.4,0.8-1.4,1.2-2.3,0.8c-0.8-0.4-1.2-1.4-0.8-2.3c0,0,0,0,0,0l2-3.6
						c0.4-0.8,1.4-1.1,2.2-0.7C373.4,458.9,373.7,459.9,373.3,460.6z"/>
					<path class="st2" d="M364,479.2l-1.9,3.7c-0.5,1-1.7,1.4-2.7,0.9c-1-0.5-1.4-1.7-0.9-2.7c0,0,0,0,0-0.1l2-3.6
						c0.5-1,1.7-1.3,2.7-0.8C364.1,477.1,364.5,478.2,364,479.2z"/>
					<path class="st2" d="M354.8,497.7l-1.9,3.7c-0.6,1.2-2,1.6-3.2,1.1c-1.2-0.6-1.6-2-1.1-3.2c0,0,0,0,0-0.1l2-3.6
						c0.6-1.1,2-1.5,3.1-0.9C354.9,495.2,355.3,496.6,354.8,497.7z"/>
					<path class="st2" d="M345.5,516.2l-1.9,3.7c-0.7,1.3-2.3,1.9-3.6,1.2c-1.3-0.7-1.9-2.3-1.2-3.6c0,0,0-0.1,0-0.1l2-3.6
						c0.7-1.3,2.3-1.8,3.6-1.1C345.7,513.4,346.2,515,345.5,516.2z"/>
					<path class="st2" d="M336.3,534.7l-1.9,3.7c-0.7,1.5-2.6,2.1-4.1,1.4c-1.5-0.7-2.1-2.6-1.4-4.1c0,0,0-0.1,0-0.1l2-3.6
						c0.8-1.4,2.6-2,4-1.2C336.4,531.6,337,533.3,336.3,534.7z"/>
					<path class="st2" d="M327,553.3l-1.9,3.7c-0.8,1.7-2.9,2.3-4.5,1.5c-1.7-0.8-2.3-2.9-1.5-4.5c0,0,0-0.1,0.1-0.1l2-3.6
						c0.9-1.6,2.9-2.2,4.5-1.3C327.2,549.7,327.8,551.7,327,553.3z"/>
					<path class="st2" d="M317.8,571.8l-1.9,3.7c-0.9,1.8-3.1,2.6-5,1.7c-1.8-0.9-2.6-3.1-1.7-5c0,0,0-0.1,0.1-0.1l2-3.6
						c1-1.8,3.2-2.4,4.9-1.5C318,567.9,318.6,570,317.8,571.8z"/>
					<path class="st2" d="M308.5,590.3l-0.9,1.8c-1,2-3.4,2.8-5.4,1.8s-2.8-3.4-1.8-5.4c0,0,0-0.1,0.1-0.1l1-1.8
						c1-1.9,3.4-2.6,5.4-1.6C308.7,586.1,309.5,588.4,308.5,590.3z"/>
				</g>
			</g>
			<g>
				<g>
					<path class="st2" d="M481.3,366.4l-0.9,1.8c0,0,0,0,0,0c0,0,0,0,0,0c0,0,0,0,0,0L481.3,366.4z"/>
					<path class="st2" d="M473.3,382.5l-1.8,3.6c-0.1,0.2-0.3,0.3-0.5,0.2c-0.2-0.1-0.3-0.3-0.2-0.5c0,0,0,0,0,0l1.9-3.5
						c0.1-0.1,0.3-0.2,0.4-0.1C473.3,382.2,473.3,382.4,473.3,382.5z"/>
					<path class="st2" d="M464.4,400.4l-1.8,3.6c-0.2,0.3-0.6,0.5-0.9,0.3c-0.3-0.2-0.5-0.6-0.3-0.9c0,0,0,0,0,0l1.9-3.5
						c0.2-0.3,0.6-0.4,0.9-0.3C464.4,399.7,464.5,400.1,464.4,400.4z"/>
					<path class="st2" d="M455.4,418.3l-1.8,3.6c-0.3,0.5-0.9,0.7-1.4,0.5c-0.5-0.3-0.7-0.9-0.5-1.4c0,0,0,0,0,0l1.9-3.5
						c0.3-0.5,0.8-0.6,1.3-0.4C455.5,417.2,455.7,417.8,455.4,418.3z"/>
					<path class="st2" d="M446.5,436.2l-1.8,3.6c-0.3,0.7-1.2,1-1.8,0.6s-1-1.2-0.6-1.8c0,0,0,0,0,0l1.9-3.5
						c0.3-0.6,1.1-0.9,1.8-0.5C446.6,434.8,446.8,435.5,446.5,436.2z"/>
					<path class="st2" d="M437.6,454l-1.8,3.6c-0.4,0.8-1.4,1.2-2.3,0.8s-1.2-1.4-0.8-2.3c0,0,0,0,0-0.1l1.9-3.5
						c0.4-0.8,1.4-1.1,2.2-0.7C437.7,452.3,438,453.2,437.6,454z"/>
					<path class="st2" d="M428.7,471.9l-1.8,3.6c-0.5,1-1.7,1.4-2.7,0.9s-1.4-1.7-0.9-2.7c0,0,0,0,0-0.1l1.9-3.5
						c0.5-1,1.7-1.3,2.7-0.8C428.8,469.8,429.2,471,428.7,471.9z"/>
					<path class="st2" d="M419.8,489.8l-1.8,3.6c-0.6,1.2-2,1.6-3.2,1.1s-1.6-2-1.1-3.2c0,0,0,0,0-0.1l1.9-3.5
						c0.6-1.1,2-1.5,3.1-0.9C419.9,487.3,420.3,488.7,419.8,489.8z"/>
					<path class="st2" d="M410.9,507.7l-1.8,3.6c-0.7,1.3-2.3,1.9-3.6,1.2c-1.3-0.7-1.9-2.3-1.2-3.6c0,0,0-0.1,0-0.1l1.9-3.5
						c0.7-1.3,2.3-1.8,3.6-1.1C411,504.8,411.5,506.4,410.9,507.7z"/>
					<path class="st2" d="M402,525.5l-1.8,3.6c-0.7,1.5-2.6,2.1-4.1,1.4c-1.5-0.7-2.1-2.6-1.4-4.1c0,0,0-0.1,0-0.1l1.9-3.5
						c0.8-1.4,2.6-2,4-1.2C402.1,522.4,402.7,524.1,402,525.5z"/>
					<path class="st2" d="M393.1,543.4l-1.8,3.6c-0.8,1.7-2.9,2.3-4.5,1.5c-1.7-0.8-2.3-2.9-1.5-4.5c0,0,0-0.1,0.1-0.1l1.9-3.5
						c0.9-1.6,2.9-2.2,4.5-1.3C393.2,539.9,393.8,541.8,393.1,543.4z"/>
					<path class="st2" d="M384.1,561.3l-1.8,3.6c-0.9,1.8-3.1,2.6-5,1.7c-1.8-0.9-2.6-3.1-1.7-5c0,0,0-0.1,0.1-0.1l1.9-3.5
						c1-1.8,3.2-2.4,4.9-1.5C384.3,557.4,385,559.5,384.1,561.3z"/>
					<path class="st2" d="M375.2,579.2l-0.9,1.8c-1,2-3.4,2.8-5.4,1.8s-2.8-3.4-1.8-5.4c0,0,0-0.1,0.1-0.1l1-1.8
						c1-1.9,3.4-2.6,5.4-1.6C375.4,574.9,376.2,577.3,375.2,579.2z"/>
				</g>
			</g>
			<g>
				<g>
					<path class="st2" d="M544,363l-0.9,1.8c0,0,0,0,0,0c0,0,0,0,0,0l0,0L544,363z"/>
					<path class="st2" d="M536.2,378.5l-1.7,3.4c-0.1,0.2-0.3,0.3-0.5,0.2c-0.2-0.1-0.3-0.3-0.2-0.5c0,0,0,0,0,0l1.8-3.4
						c0.1-0.1,0.3-0.2,0.4-0.1C536.2,378.2,536.3,378.4,536.2,378.5z"/>
					<path class="st2" d="M527.7,395.7l-1.7,3.4c-0.2,0.3-0.6,0.5-0.9,0.3c-0.3-0.2-0.5-0.6-0.3-0.9c0,0,0,0,0,0l1.8-3.4
						c0.2-0.3,0.6-0.4,0.9-0.3C527.7,395.1,527.8,395.4,527.7,395.7z"/>
					<path class="st2" d="M519.1,413l-1.7,3.4c-0.3,0.5-0.9,0.7-1.4,0.5c-0.5-0.3-0.7-0.9-0.5-1.4c0,0,0,0,0,0l1.8-3.4
						c0.3-0.5,0.8-0.6,1.3-0.4C519.1,411.9,519.3,412.5,519.1,413z"/>
					<path class="st2" d="M510.5,430.2l-1.7,3.4c-0.3,0.7-1.2,1-1.8,0.6s-1-1.2-0.6-1.8c0,0,0,0,0,0l1.8-3.4
						c0.3-0.6,1.1-0.9,1.8-0.5C510.6,428.8,510.8,429.6,510.5,430.2z"/>
					<path class="st2" d="M501.9,447.4l-1.7,3.4c-0.4,0.8-1.4,1.2-2.3,0.8c-0.8-0.4-1.2-1.4-0.8-2.3c0,0,0,0,0-0.1l1.8-3.4
						c0.4-0.8,1.4-1.1,2.2-0.7C502,445.7,502.3,446.6,501.9,447.4z"/>
					<path class="st2" d="M493.4,464.6l-1.7,3.4c-0.5,1-1.7,1.4-2.7,0.9c-1-0.5-1.4-1.7-0.9-2.7c0,0,0,0,0-0.1l1.8-3.4
						c0.5-1,1.7-1.3,2.7-0.8C493.5,462.5,493.8,463.7,493.4,464.6z"/>
					<path class="st2" d="M484.8,481.9l-1.7,3.4c-0.6,1.2-2,1.6-3.2,1.1s-1.6-2-1.1-3.2c0,0,0-0.1,0-0.1l1.8-3.4
						c0.6-1.1,2-1.5,3.1-0.9C484.9,479.4,485.3,480.8,484.8,481.9z"/>
					<path class="st2" d="M476.2,499.1l-1.7,3.4c-0.7,1.3-2.3,1.9-3.6,1.2s-1.9-2.3-1.2-3.6c0,0,0-0.1,0-0.1l1.8-3.4
						c0.7-1.3,2.3-1.8,3.6-1.1C476.4,496.3,476.9,497.8,476.2,499.1z"/>
					<path class="st2" d="M467.7,516.3l-1.7,3.4c-0.7,1.5-2.6,2.1-4.1,1.4s-2.1-2.6-1.4-4.1c0,0,0-0.1,0-0.1l1.8-3.4
						c0.8-1.4,2.6-2,4-1.2C467.8,513.2,468.4,514.9,467.7,516.3z"/>
					<path class="st2" d="M459.1,533.5l-1.7,3.4c-0.8,1.7-2.8,2.3-4.5,1.5c-1.7-0.8-2.3-2.8-1.5-4.5c0,0,0-0.1,0.1-0.1l1.8-3.4
						c0.9-1.6,2.9-2.2,4.5-1.3C459.3,530,459.9,532,459.1,533.5z"/>
					<path class="st2" d="M450.5,550.8l-1.7,3.4c-0.9,1.8-3.1,2.6-5,1.7s-2.6-3.1-1.7-5c0,0,0-0.1,0.1-0.1l1.8-3.4
						c1-1.8,3.2-2.4,4.9-1.5C450.7,546.9,451.4,549,450.5,550.8z"/>
					<path class="st2" d="M441.9,568l-0.9,1.8c-1,2-3.4,2.8-5.4,1.8c-2-1-2.8-3.4-1.8-5.4c0,0,0-0.1,0.1-0.1l1-1.8
						c1-1.9,3.4-2.6,5.4-1.6C442.2,563.8,442.9,566.1,441.9,568z"/>
				</g>
			</g>
			<g>
				<g>
					<path class="st2" d="M606.7,359.5l-0.9,1.8c0,0,0,0,0,0s0,0,0,0c0,0,0,0,0,0L606.7,359.5z"/>
					<path class="st2" d="M598.6,375.8l-1.8,3.6c-0.1,0.2-0.3,0.3-0.5,0.2c-0.2-0.1-0.3-0.3-0.2-0.5c0,0,0,0,0,0l1.9-3.6
						c0.1-0.2,0.3-0.2,0.4-0.1C598.6,375.4,598.7,375.6,598.6,375.8z"/>
					<path class="st2" d="M589.6,393.9l-1.8,3.6c-0.2,0.4-0.6,0.5-1,0.3s-0.5-0.6-0.3-1c0,0,0,0,0,0l1.9-3.6
						c0.2-0.3,0.6-0.5,0.9-0.3C589.6,393.1,589.8,393.5,589.6,393.9z"/>
					<path class="st2" d="M580.6,412l-1.8,3.6c-0.3,0.6-1,0.8-1.5,0.5s-0.8-1-0.5-1.5c0,0,0,0,0,0l1.9-3.6c0.3-0.5,0.9-0.7,1.4-0.4
						C580.7,410.8,580.8,411.5,580.6,412z"/>
					<path class="st2" d="M571.6,430.1l-1.8,3.6c-0.4,0.7-1.3,1-2,0.7s-1-1.3-0.7-2c0,0,0,0,0,0l1.9-3.6c0.4-0.7,1.2-0.9,1.9-0.6
						C571.7,428.6,571.9,429.4,571.6,430.1z"/>
					<path class="st2" d="M562.6,448.2l-1.8,3.6c-0.5,0.9-1.6,1.3-2.5,0.8s-1.3-1.6-0.8-2.5c0,0,0,0,0-0.1l1.9-3.6
						c0.5-0.9,1.6-1.2,2.4-0.7C562.7,446.3,563,447.3,562.6,448.2z"/>
					<path class="st2" d="M553.6,466.3l-1.8,3.6c-0.5,1.1-1.9,1.5-3,1c-1.1-0.5-1.5-1.9-1-3c0,0,0-0.1,0-0.1l1.9-3.6
						c0.6-1,1.9-1.4,2.9-0.9C553.7,464,554.1,465.3,553.6,466.3z"/>
					<path class="st2" d="M544.6,484.4l-1.8,3.6c-0.6,1.3-2.2,1.8-3.5,1.2s-1.8-2.2-1.2-3.5c0,0,0-0.1,0-0.1l1.9-3.6
						c0.7-1.2,2.2-1.7,3.4-1C544.8,481.7,545.2,483.2,544.6,484.4z"/>
					<path class="st2" d="M535.6,502.5l-1.8,3.6c-0.7,1.5-2.5,2.1-3.9,1.3c-1.5-0.7-2.1-2.5-1.3-3.9c0,0,0-0.1,0-0.1l1.9-3.6
						c0.8-1.4,2.5-1.9,3.9-1.2C535.8,499.4,536.3,501.1,535.6,502.5z"/>
					<path class="st2" d="M526.6,520.6l-1.8,3.6c-0.8,1.6-2.8,2.3-4.4,1.5c-1.6-0.8-2.3-2.8-1.5-4.4c0,0,0-0.1,0.1-0.1l1.9-3.6
						c0.9-1.6,2.8-2.2,4.4-1.3C526.8,517.2,527.4,519.1,526.6,520.6z"/>
					<path class="st2" d="M517.6,538.7l-1.8,3.6c-0.9,1.8-3.1,2.6-4.9,1.7c-1.8-0.9-2.6-3.1-1.7-4.9c0,0,0-0.1,0.1-0.1l1.9-3.6
						c0.9-1.7,3.1-2.4,4.9-1.4C517.8,534.9,518.5,537,517.6,538.7z"/>
					<path class="st2" d="M508.7,556.8l-0.9,1.8c-1,2-3.4,2.8-5.4,1.8c-2-1-2.8-3.4-1.8-5.4c0,0,0-0.1,0.1-0.1l1-1.8
						c1-1.9,3.5-2.6,5.4-1.6C508.9,552.6,509.6,554.9,508.7,556.8z"/>
				</g>
			</g>
			<g>
				<g>
					<path class="st2" d="M669.4,356l-0.9,1.8c0,0,0,0-0.1,0c0,0,0,0,0-0.1l0,0L669.4,356z"/>
					<path class="st2" d="M661.6,371.7l-1.7,3.5c-0.1,0.2-0.3,0.3-0.5,0.2c-0.2-0.1-0.3-0.3-0.2-0.5c0,0,0,0,0,0l1.9-3.4
						c0.1-0.2,0.3-0.2,0.4-0.1C661.6,371.4,661.6,371.5,661.6,371.7z"/>
					<path class="st2" d="M652.9,389.1l-1.7,3.5c-0.2,0.4-0.6,0.5-1,0.3c-0.4-0.2-0.5-0.6-0.3-1c0,0,0,0,0,0l1.9-3.4
						c0.2-0.3,0.6-0.5,0.9-0.3C653,388.4,653.1,388.8,652.9,389.1z"/>
					<path class="st2" d="M644.3,406.5l-1.7,3.5c-0.3,0.6-1,0.8-1.5,0.5c-0.6-0.3-0.8-1-0.5-1.5c0,0,0,0,0,0l1.9-3.4
						c0.3-0.5,0.9-0.7,1.4-0.4C644.4,405.4,644.6,406,644.3,406.5z"/>
					<path class="st2" d="M635.7,423.9l-1.7,3.5c-0.4,0.7-1.3,1-2,0.7c-0.7-0.4-1-1.3-0.7-2c0,0,0,0,0,0l1.9-3.4
						c0.4-0.7,1.2-0.9,1.9-0.6C635.8,422.4,636,423.2,635.7,423.9z"/>
					<path class="st2" d="M627.1,441.3l-1.7,3.5c-0.5,0.9-1.6,1.3-2.5,0.8c-0.9-0.5-1.3-1.6-0.8-2.5c0,0,0,0,0-0.1l1.9-3.4
						c0.5-0.9,1.6-1.2,2.4-0.7C627.2,439.4,627.5,440.4,627.1,441.3z"/>
					<path class="st2" d="M618.5,458.7l-1.7,3.5c-0.5,1.1-1.9,1.5-3,1c-1.1-0.5-1.5-1.9-1-3c0,0,0-0.1,0-0.1l1.9-3.4
						c0.6-1,1.9-1.4,2.9-0.9C618.6,456.4,619,457.7,618.5,458.7z"/>
					<path class="st2" d="M609.9,476.1l-1.7,3.5c-0.6,1.3-2.2,1.8-3.5,1.2c-1.3-0.6-1.8-2.2-1.2-3.5c0,0,0-0.1,0-0.1l1.9-3.4
						c0.7-1.2,2.2-1.7,3.4-1C610,473.4,610.4,474.9,609.9,476.1z"/>
					<path class="st2" d="M601.2,493.5l-1.7,3.5c-0.7,1.5-2.5,2.1-3.9,1.3c-1.5-0.7-2.1-2.5-1.3-3.9c0,0,0-0.1,0.1-0.1l1.9-3.4
						c0.8-1.4,2.5-1.9,3.9-1.2C601.4,490.4,601.9,492.1,601.2,493.5z"/>
					<path class="st2" d="M592.6,510.9l-1.7,3.5c-0.8,1.6-2.8,2.3-4.4,1.5s-2.3-2.8-1.5-4.4c0,0,0-0.1,0.1-0.1l1.9-3.4
						c0.9-1.6,2.8-2.2,4.4-1.3C592.8,507.4,593.4,509.3,592.6,510.9z"/>
					<path class="st2" d="M584,528.3l-1.7,3.5c-0.9,1.8-3.1,2.6-4.9,1.7c-1.8-0.9-2.6-3.1-1.7-4.9c0,0,0-0.1,0.1-0.1l1.9-3.4
						c0.9-1.7,3.1-2.4,4.9-1.4C584.2,524.4,584.8,526.5,584,528.3z"/>
					<path class="st2" d="M575.4,545.7l-0.9,1.8c-1,2-3.4,2.8-5.4,1.8c-2-1-2.8-3.4-1.8-5.4c0,0,0-0.1,0.1-0.1l1-1.8
						c1-1.9,3.5-2.6,5.4-1.6C575.6,541.4,576.3,543.8,575.4,545.7z"/>
				</g>
			</g>
			<g>
				<g>
					<path class="st2" d="M732,352.5l-0.9,1.8c0,0,0,0-0.1,0s0,0,0-0.1c0,0,0,0,0,0L732,352.5z"/>
					<path class="st2" d="M723.9,369l-1.8,3.7c-0.1,0.2-0.4,0.3-0.6,0.2c-0.2-0.1-0.3-0.4-0.2-0.6c0,0,0,0,0,0l2-3.6
						c0.1-0.2,0.3-0.2,0.5-0.1C723.9,368.6,724,368.8,723.9,369z"/>
					<path class="st2" d="M714.8,387.4l-1.8,3.7c-0.2,0.4-0.7,0.6-1.1,0.4s-0.6-0.7-0.4-1.1c0,0,0,0,0,0l2-3.6
						c0.2-0.4,0.7-0.5,1-0.3C714.8,386.6,715,387,714.8,387.4z"/>
					<path class="st2" d="M705.7,405.8l-1.8,3.7c-0.3,0.6-1,0.9-1.7,0.6c-0.6-0.3-0.9-1-0.6-1.7c0,0,0,0,0,0l2-3.6
						c0.3-0.6,1-0.8,1.6-0.5C705.8,404.6,706,405.2,705.7,405.8z"/>
					<path class="st2" d="M696.6,424.2l-1.8,3.7c-0.4,0.8-1.4,1.1-2.2,0.7c-0.8-0.4-1.1-1.4-0.7-2.2c0,0,0,0,0-0.1l2-3.6
						c0.4-0.8,1.4-1,2.1-0.6C696.7,422.5,697,423.4,696.6,424.2z"/>
					<path class="st2" d="M687.5,442.6l-1.8,3.7c-0.5,1-1.7,1.4-2.7,0.9s-1.4-1.7-0.9-2.7c0,0,0,0,0-0.1l2-3.6
						c0.5-1,1.7-1.3,2.7-0.8C687.6,440.5,688,441.6,687.5,442.6z"/>
					<path class="st2" d="M678.4,460.9l-1.8,3.7c-0.6,1.2-2.1,1.7-3.3,1.1c-1.2-0.6-1.7-2.1-1.1-3.3c0,0,0-0.1,0-0.1l2-3.6
						c0.6-1.1,2.1-1.6,3.2-0.9C678.6,458.4,679,459.8,678.4,460.9z"/>
					<path class="st2" d="M669.4,479.3l-1.8,3.7c-0.7,1.4-2.4,2-3.8,1.3c-1.4-0.7-2-2.4-1.3-3.8c0,0,0-0.1,0.1-0.1l2-3.6
						c0.7-1.3,2.4-1.8,3.7-1.1C669.5,476.4,670,478,669.4,479.3z"/>
					<path class="st2" d="M660.3,497.7l-1.8,3.7c-0.8,1.6-2.7,2.3-4.3,1.5c-1.6-0.8-2.3-2.7-1.5-4.3c0,0,0-0.1,0.1-0.1l2-3.6
						c0.8-1.5,2.8-2.1,4.3-1.3C660.4,494.4,661,496.2,660.3,497.7z"/>
					<path class="st2" d="M651.2,516.1l-1.8,3.7c-0.9,1.8-3.1,2.5-4.9,1.7c-1.8-0.9-2.5-3.1-1.7-4.9c0,0,0-0.1,0.1-0.1l2-3.6
						c0.9-1.7,3.1-2.4,4.8-1.4C651.4,512.3,652,514.4,651.2,516.1z"/>
					<path class="st2" d="M642.1,534.5l-0.9,1.8c-1,2-3.4,2.8-5.4,1.8c-2-1-2.8-3.4-1.8-5.4c0,0,0.1-0.1,0.1-0.1l1-1.8
						c1-1.9,3.5-2.6,5.4-1.6C642.3,530.3,643,532.6,642.1,534.5z"/>
				</g>
			</g>
		</g>
	</g>
	<path class="st3" d="M780.4,302.3c-2.8-0.3-5.3,0.7-7.2,2.4c0.1-0.7,0.1-1.5,0.2-2.2c0.3-12.4-9.6-22.7-22.1-23
		c-10.5-0.2-19.5,6.8-22.2,16.6c-3.1-6-9.3-10.2-16.5-10.3c-9.9-0.2-18.1,7.1-19.3,16.7c-1.5-1.3-3.5-2.1-5.7-2.1
		c-3.9-0.1-7.3,2.3-8.7,5.8c-1.3-6.1-6.7-10.6-13.1-10.8c-7.6-0.2-13.9,5.9-14,13.5c0,0.1,0,1.2,0,2.7c-0.1,6.9,5.4,12.5,12.3,12.5
		l112.4-0.1c6.7,0,12.2-5.4,12.3-12.1l0,0C788.8,307,785.2,302.7,780.4,302.3z"/>
	<g class="st8">
		<path class="st3" d="M388.5,232L388.5,232c0-9.9-6.9-18-15.3-18H22.8c-8.5,0-15.3,8.1-15.3,18v0c0,9.9,6.9,18,15.3,18h350.4
			C381.6,250,388.5,241.9,388.5,232z"/>
		<path class="st3" d="M221.9,203.9c-4.6-0.5-8.9,1.1-12.1,4c0.2-1.2,0.2-2.4,0.3-3.7c0.6-22.2-18-40.4-40.6-38.8
			c-17.1,1.2-31.5,14.1-34.5,31c-0.9,5.2-0.8,10.2,0.3,15c-3.1-4.2-8.1-6.9-13.7-7c-4.8-0.1-9.1,1.7-12.4,4.6
			c1.4-3.9,2.1-8.1,1.9-12.5c-0.6-16.5-13.6-30.2-30-31.7c-13.9-1.3-26.4,6.1-32.4,17.5c-3.8-2-8.2-3.2-12.8-3.3
			c-16.2-0.4-29.6,12.3-30,28.5c0,0,0,0,0,0.1c-0.5,17.3,13.5,31.7,30.8,31.7l179.3,0.1c10.7,0,19.5-8.5,19.8-19.2l0,0
			C236,211.9,230,204.7,221.9,203.9z"/>
		<path class="st3" d="M329,250h83c5.8,0,10.5-4.7,10.5-10.5v0c0-5.8-4.7-10.5-10.5-10.5h-83c-5.8,0-10.5,4.7-10.5,10.5v0
			C318.5,245.3,323.2,250,329,250z"/>
	</g>
</g>
</svg>
