<?xml version="1.0" encoding="utf-8"?>
<!-- Generator: Adobe Illustrator 23.0.3, SVG Export Plug-In . SVG Version: 6.00 Build 0)  -->
<svg version="1.1" id="Layer_1" xmlns="http://www.w3.org/2000/svg" xmlns:xlink="http://www.w3.org/1999/xlink" x="0px" y="0px"
	 viewBox="0 0 1395 794" style="enable-background:new 0 0 1395 794;" xml:space="preserve">
<style type="text/css">
	.st0{opacity:0.51;}
	.st1{fill:#E6E6E6;}
	.st2{opacity:0.12;}
	.st3{opacity:0.6;}
</style>
<g>
	<g>
		<g class="st0">
			<path class="st1" d="M421.2,109.9c-2.9-0.3-5.5,0.7-7.4,2.5c0.1-0.7,0.1-1.5,0.2-2.3c0.3-12.9-10-23.6-22.9-23.9
				c-10.9-0.2-20.3,7.1-23,17.2c-3.2-6.2-9.7-10.6-17.2-10.7c-10.2-0.2-18.8,7.4-20,17.3c-1.6-1.3-3.6-2.1-5.9-2.2
				c-4.1-0.1-7.6,2.4-9,6c-1.4-6.3-6.9-11-13.6-11.2c-7.9-0.2-14.4,6.1-14.6,14c0,0.1,0,1.3,0,2.8c-0.1,7.1,5.7,13,12.8,13
				l116.6-0.1c7,0,12.6-5.6,12.8-12.5l0,0C429.9,114.8,426.2,110.4,421.2,109.9z"/>
			<path class="st1" d="M303.5,110.6c-2.9-0.3-5.5,0.7-7.5,2.5c0.1-0.7,0.2-1.5,0.2-2.3c0.4-13.7-11.1-24.9-25.1-24
				c-10.6,0.7-19.4,8.7-21.3,19.1c-0.6,3.2-0.5,6.3,0.2,9.2c-1.9-2.6-5-4.3-8.4-4.4c-2.9-0.1-5.6,1-7.7,2.9c0.9-2.4,1.3-5,1.2-7.7
				c-0.4-10.2-8.4-18.7-18.5-19.6c-8.6-0.8-16.3,3.8-20,10.8c-2.4-1.2-5.1-2-7.9-2.1c-10-0.3-18.3,7.6-18.5,17.6l0,0
				c-0.3,10.7,8.3,19.6,19,19.6l110.8,0.1c6.6,0,12-5.3,12.2-11.9l0,0C312.2,115.5,308.5,111.1,303.5,110.6z"/>
		</g>
	</g>
	<g>
		<g class="st0">
			<path class="st1" d="M1254.2,179.6c-2.9-0.3-5.7,0.8-7.6,2.6c0.1-0.8,0.1-1.5,0.2-2.3c0.3-13.2-10.2-24.2-23.5-24.4
				c-11.2-0.2-20.8,7.3-23.6,17.6c-3.3-6.4-9.9-10.8-17.6-11c-10.5-0.2-19.2,7.6-20.5,17.7c-1.6-1.4-3.7-2.2-6-2.2
				c-4.2-0.1-7.8,2.5-9.3,6.1c-1.4-6.4-7.1-11.3-14-11.4c-8.1-0.2-14.8,6.2-14.9,14.3c0,0.1,0,1.3,0,2.9
				c-0.1,7.3,5.8,13.3,13.1,13.3l119.4-0.1c7.1,0,12.9-5.7,13.1-12.8l0,0C1263.1,184.6,1259.3,180,1254.2,179.6z"/>
			<path class="st1" d="M1133.7,180.2c-2.9-0.3-5.7,0.7-7.6,2.6c0.1-0.8,0.2-1.5,0.2-2.3c0.4-14-11.4-25.5-25.7-24.5
				c-10.8,0.8-19.9,8.9-21.8,19.6c-0.6,3.3-0.5,6.5,0.2,9.5c-2-2.6-5.1-4.4-8.6-4.5c-3-0.1-5.8,1-7.8,2.9c0.9-2.4,1.3-5.1,1.2-7.9
				c-0.4-10.4-8.6-19.1-19-20.1c-8.8-0.8-16.7,3.9-20.5,11.1c-2.4-1.3-5.2-2-8.1-2.1c-10.2-0.3-18.7,7.8-19,18l0,0
				c-0.3,11,8.5,20,19.5,20l113.4,0.1c6.8,0,12.3-5.4,12.5-12.2l0,0C1142.6,185.3,1138.8,180.7,1133.7,180.2z"/>
		</g>
		<g>
			<path class="st1" d="M1007.2,296.5L1007.2,296.5c0-9.4-7.6-17-17-17h-388c-9.4,0-17,7.6-17,17l0,0c0,9.4,7.6,17,17,17h388
				C999.6,313.5,1007.2,305.9,1007.2,296.5z"/>
			<path class="st1" d="M816.6,275.9c-3.6-0.4-6.9,0.9-9.3,3.1c0.1-0.9,0.2-1.9,0.2-2.8c0.4-17-13.8-31-31.2-29.8
				c-13.1,0.9-24.2,10.8-26.5,23.8c-0.7,4-0.6,7.9,0.2,11.5c-2.4-3.2-6.2-5.3-10.5-5.4c-3.7-0.1-7,1.3-9.5,3.6
				c1.1-3,1.6-6.2,1.5-9.6c-0.5-12.7-10.4-23.2-23.1-24.4c-10.7-1-20.3,4.7-24.9,13.5c-2.9-1.6-6.3-2.5-9.8-2.6
				c-12.4-0.3-22.7,9.5-23.1,21.9c0,0,0,0,0,0.1c-0.4,13.3,10.3,24.3,23.7,24.3l137.7,0.1c8.2,0,15-6.5,15.2-14.8l0,0
				C827.4,282.1,822.9,276.5,816.6,275.9z"/>
			<path class="st1" d="M948.7,313.5h83.2c4.1,0,7.4-3.3,7.4-7.4v-5c0-4.1-3.3-7.4-7.4-7.4h-83.2c-4.1,0-7.4,3.3-7.4,7.4v5
				C941.3,310.2,944.6,313.5,948.7,313.5z"/>
		</g>
	</g>
	<g class="st2">
		<g>
			<path class="st1" d="M506.1,335.5c-5.7-0.5-10.9,1.5-14.7,5c0.2-1.5,0.3-3,0.3-4.5c0.5-25.5-19.7-46.6-45.2-47.1
				c-21.6-0.4-40,14-45.5,33.9c-6.3-12.3-19.1-20.9-33.9-21.2c-20.2-0.4-37.1,14.6-39.5,34.2c-3.2-2.6-7.2-4.2-11.6-4.3
				c-8-0.2-15,4.7-17.8,11.8c-2.7-12.4-13.7-21.8-26.9-22c-15.6-0.3-28.4,12-28.8,27.6c0,0.3,0,2.5-0.1,5.6
				c-0.2,14.1,11.2,25.6,25.2,25.6l230.2-0.2c13.7,0,24.9-11,25.2-24.7l0,0C523.3,345.2,516,336.4,506.1,335.5z"/>
		</g>
		<g>
			<path class="st1" d="M385.7,313.8c-5.7-0.6-10.9,1.4-14.7,4.9c0.2-1.5,0.3-3,0.3-4.5c0.7-27-21.9-49.2-49.5-47.3
				c-20.9,1.5-38.4,17.2-42,37.8c-1.1,6.3-0.9,12.5,0.3,18.2c-3.8-5.1-9.8-8.4-16.7-8.6c-5.8-0.2-11.1,2-15.1,5.6
				c1.7-4.7,2.5-9.8,2.3-15.2c-0.8-20.1-16.6-36.8-36.6-38.7c-17-1.6-32.2,7.5-39.5,21.4c-4.7-2.5-10-3.9-15.6-4.1
				c-19.7-0.5-36.1,15-36.6,34.7v0.1c-0.6,21.1,16.4,38.6,37.6,38.6l218.6,0.2c13.1,0,23.8-10.4,24.1-23.5l0,0
				C402.9,323.6,395.6,314.8,385.7,313.8z"/>
		</g>
	</g>
	<g>
		<g class="st0">
			<path class="st1" d="M1281.2,146.9c-2.9-0.3-5.5,0.7-7.4,2.5c0.1-0.7,0.1-1.5,0.2-2.3c0.3-12.9-10-23.6-22.9-23.9
				c-10.9-0.2-20.3,7.1-23,17.2c-3.2-6.2-9.7-10.6-17.2-10.7c-10.2-0.2-18.8,7.4-20,17.3c-1.6-1.3-3.6-2.1-5.9-2.2
				c-4.1-0.1-7.6,2.4-9,6c-1.4-6.3-6.9-11-13.6-11.2c-7.9-0.2-14.4,6.1-14.6,14c0,0.1,0,1.3,0,2.8c-0.1,7.1,5.7,13,12.8,13
				l116.6-0.1c7,0,12.6-5.6,12.8-12.5l0,0C1289.9,151.8,1286.2,147.4,1281.2,146.9z"/>
		</g>
	</g>
	<g class="st3">
		<path class="st1" d="M223,219.9c-2.9-0.3-5.7,0.8-7.6,2.6c0.1-0.8,0.1-1.5,0.2-2.3c0.3-13.2-10.2-24.2-23.5-24.5
			c-11.2-0.2-20.8,7.3-23.6,17.6c-3.3-6.4-9.9-10.8-17.6-11c-10.5-0.2-19.3,7.6-20.5,17.8c-1.6-1.4-3.7-2.2-6-2.2
			c-4.2-0.1-7.8,2.5-9.3,6.1c-1.4-6.4-7.1-11.3-14-11.4c-8.1-0.2-14.8,6.2-14.9,14.3c0,0.1,0,1.3,0,2.9C86.1,237,92,243,99.3,243
			l119.5-0.1c7.1,0,12.9-5.7,13.1-12.8l0,0C232,224.9,228.2,220.4,223,219.9z"/>
		<path class="st1" d="M7,228.7h264c3.9,0,7,3.1,7,7l0,0c0,3.9-3.1,7-7,7H7c-3.9,0-7-3.1-7-7l0,0C0,231.8,3.1,228.7,7,228.7z"/>
	</g>
	<path class="st1" d="M761.9,310.3c-2.8-0.3-5.3,0.7-7.2,2.4c0.1-0.7,0.1-1.5,0.2-2.2c0.3-12.4-9.6-22.7-22.1-23
		c-10.5-0.2-19.5,6.8-22.2,16.6c-3.1-6-9.3-10.2-16.5-10.3c-9.9-0.2-18.1,7.1-19.3,16.7c-1.5-1.3-3.5-2.1-5.7-2.1
		c-3.9-0.1-7.3,2.3-8.7,5.8c-1.3-6.1-6.7-10.6-13.1-10.8c-7.6-0.2-13.9,5.9-14,13.5c0,0.1,0,1.2,0,2.7c-0.1,6.9,5.4,12.5,12.3,12.5
		L758,332c6.7,0,12.2-5.4,12.3-12.1l0,0C770.3,315,766.7,310.7,761.9,310.3z"/>
</g>
</svg>
