<svg xmlns="http://www.w3.org/2000/svg" viewBox="0 0 1179.74034 218.69338"><title>clouds1</title><g style="isolation:isolate"><g id="Layer_1" data-name="Layer 1"><g style="mix-blend-mode:soft-light"><g style="opacity:0.51"><path d="M416.15389,134.9262a9.51528,9.51528,0,0,0-7.4408,2.5357c.0884-.7498.1438-1.5101.1597-2.2806a23.39409,23.39409,0,0,0-45.9463-6.682,19.74978,19.74978,0,0,0-37.1704,6.6049,9.52731,9.52731,0,0,0-14.9199,3.7795,14.27834,14.27834,0,0,0-28.21219,2.8095c-.00311.1455-.01921,1.2527-.04161,2.8196a12.78323,12.78323,0,0,0,12.7891,12.9667l116.6313-.0882a12.78074,12.78074,0,0,0,12.7685-12.5173h0A9.71007,9.71007,0,0,0,416.15389,134.9262Z" transform="translate(-165.03307 -111.30663)" style="fill:#e6e6e6"/><path d="M298.50749,135.573a9.51441,9.51441,0,0,0-7.4553,2.4927c.0927-.7493.1525-1.5093.1729-2.2797a23.39383,23.39383,0,1,0-46.2268,4.4305,10.9138,10.9138,0,0,0-16.0974-1.4909,20.48276,20.48276,0,0,0-37.39179-16.4822,18.078,18.078,0,0,0-26.4682,15.5305l-.0011.0442a19.057,19.057,0,0,0,19.0316,19.5588l110.779.0832a12.21193,12.21193,0,0,0,12.217-11.8899h0A9.71,9.71,0,0,0,298.50749,135.573Z" transform="translate(-165.03307 -111.30663)" style="fill:#e6e6e6"/></g></g><g style="mix-blend-mode:soft-light"><g style="opacity:0.51"><path d="M1336.15389,307.4467a9.51528,9.51528,0,0,0-7.4408,2.5357c.0884-.7498.1438-1.5101.1597-2.2806a23.39409,23.39409,0,0,0-45.9463-6.682,19.74978,19.74978,0,0,0-37.1704,6.6049,9.52731,9.52731,0,0,0-14.9199,3.7795,14.27834,14.27834,0,0,0-28.21219,2.8095c-.00311.1455-.01921,1.2527-.04161,2.8196A12.78323,12.78323,0,0,0,1215.37149,330l116.6313-.0882a12.78074,12.78074,0,0,0,12.7685-12.5173h0A9.71007,9.71007,0,0,0,1336.15389,307.4467Z" transform="translate(-165.03307 -111.30663)" style="fill:#e6e6e6"/></g></g></g></g></svg>