<?xml version="1.0" encoding="UTF-8"?>
<svg width="1392px" height="798px" viewBox="0 0 1392 798" version="1.1" xmlns="http://www.w3.org/2000/svg" xmlns:xlink="http://www.w3.org/1999/xlink">
    <!-- Generator: Sketch 56.3 (81716) - https://sketch.com -->
    <title>intro_cloud_bg</title>
    <desc>Created with Sketch.</desc>
    <defs>
        <linearGradient x1="49.9999986%" y1="0%" x2="49.9999986%" y2="100%" id="linearGradient-1">
            <stop stop-color="#A4CADD" offset="2.165098e-05%"></stop>
            <stop stop-color="#ABCBDC" offset="5.445%"></stop>
            <stop stop-color="#B8CCD9" offset="20.443%"></stop>
            <stop stop-color="#BDCCD8" offset="33.784%"></stop>
            <stop stop-color="#909DA8" offset="54.51%"></stop>
            <stop stop-color="#6C7781" offset="74.367%"></stop>
            <stop stop-color="#56606A" offset="90.19%"></stop>
            <stop stop-color="#4E5761" offset="100%"></stop>
        </linearGradient>
    </defs>
    <g id="Page-1" stroke="none" stroke-width="1" fill="none" fill-rule="evenodd">
        <g id="intro_cloud_bg" transform="translate(0.607620, 0.000000)">
            <rect id="Rectangle" fill="url(#linearGradient-1)" fill-rule="nonzero" x="0" y="0" width="1390" height="798"></rect>
            <g id="Group" opacity="0.42" transform="translate(2.392380, 161.000000)" stroke="#BDCCD8" stroke-linecap="round" stroke-linejoin="round" stroke-width="5">
                <g id="Path">
                    <path d="M0.86784,1.47508 C2.88502,1.47508 4.88508,1.48269 6.86822,1.49783"></path>
                    <path d="M18.83563,1.68484 C385.11551,10.41766 143.87155,288.83438 456.76642,275.00482 C548.65296,270.94354 567.69336,133.01007 691.02661,132.18329 C792.00079,131.50641 834.40997,260.11347 891.96527,260.11347 C963.66412,260.11347 959.61804,153.84345 1028.28052,151.81281 C1088.79016,150.02326 1080.39466,173.08582 1124.20606,176.8573 C1178.40772,181.52325 1174.1659,141.0918 1244.17347,129.6554 C1274.85157,124.64386 1306.14271,123.11475 1374.79896,144.02094" stroke-dasharray="11.96544,11.96544"></path>
                    <path d="M1380.51416,145.78619 C1382.39343,146.37469 1384.29993,146.97937 1386.23413,147.60064"></path>
                </g>
            </g>
            <g id="Group" transform="translate(32.392380, 137.000000)" fill-rule="nonzero">
                <path d="M142.77121,44.99261 C143.03348,41.33122 141.85382,37.78616 139.45042,35.01142 C137.04702,32.2367 133.70642,30.56435 130.04527,30.30221 L39.25313,23.85919 L18.0087,3.77791 C16.44396,2.29636 14.39638,1.41394 12.24772,1.2885 L3.31426,0.7683 C2.57504,0.72574 1.86263,1.03959 1.399,1.6157 C0.93435,2.18873 0.77514,2.95184 0.97155,3.66341 L7.60581,27.73218 C9.54363,34.75405 14.38032,40.43823 20.64315,43.57408 C23.53761,45.02336 26.73945,45.92847 30.09661,46.16841 L132.97816,53.47867 C135.4199,53.65317 137.78254,52.86711 139.63125,51.26364 C141.48203,49.66058 142.59669,47.43437 142.77121,44.99261 Z" id="Path" fill="#D7DBE0"></path>
                <path d="M141.71587,46.22031 L38.83433,38.91005 C35.47717,38.67011 32.27533,37.765 29.38087,36.31572 C23.11803,33.17987 18.28135,27.49568 16.34352,20.47382 L11.03611,1.2179 L3.31425,0.7683 C2.57503,0.72574 1.86262,1.03959 1.39899,1.6157 C0.93434,2.18873 0.77513,2.95184 0.97154,3.66341 L7.6058,27.73218 C9.54362,34.75405 14.38031,40.43823 20.64314,43.57408 C23.5376,45.02336 26.73944,45.92847 30.0966,46.16841 L132.97815,53.47867 C135.41989,53.65317 137.78253,52.86711 139.63124,51.26364 C141.1694,49.93187 142.1618,48.15774 142.56575,46.1985 C142.28188,46.20398 142.0027,46.24095 141.71587,46.22031 Z" id="Path" fill="#9A5044"></path>
                <path d="M88.21027,57.11066 L56.22249,54.81923 L57.12785,42.7784 L89.08938,45.06789 C91.62332,45.24948 93.52571,47.45795 93.32989,49.99086 L93.10736,52.86809 C92.92654,55.39215 90.73409,57.29135 88.21027,57.11066 Z" id="Path" fill="#8A8895"></path>
                <path d="M121.49463,41.00377 C120.96259,40.73737 120.54273,40.24695 120.3698,39.67265 C120.1642,39.10923 120.20542,38.4622 120.48194,37.90994 C120.74834,37.3779 121.24184,36.95701 121.81612,36.78409 C122.93181,36.39455 124.32592,37.09258 124.7024,38.22927 C124.908,38.7927 124.84476,39.4287 124.57824,39.96099 C124.30184,40.51301 123.83036,40.94491 123.25607,41.11784 C122.69289,41.32355 122.04868,41.28119 121.49463,41.00377 Z" id="Path" fill="#5C546A"></path>
                <path d="M46.1214,35.59389 C45.56735,35.31647 45.13748,34.84601 44.96455,34.27173 C44.75895,33.70831 44.82129,33.0741 45.09871,32.52004 C45.36511,31.988 45.83556,31.55814 46.42087,31.36319 C47.54858,31.00464 48.93067,31.67168 49.29919,32.82936 C49.50209,33.39368 49.46152,34.03879 49.195,34.57107 C48.91758,35.12513 48.4351,35.524 47.85287,35.71794 C47.28765,35.92262 46.65344,35.86029 46.1214,35.59389 Z" id="Path" fill="#5C546A"></path>
                <path d="M39.24689,35.09879 C38.71485,34.8324 38.29601,34.33992 38.11,33.78663 C37.9171,33.20234 37.9578,32.55699 38.2242,32.02494 C38.49162,31.49085 38.9841,31.07201 39.56633,30.87809 C40.68407,30.48957 42.07613,31.18658 42.45464,32.32429 C42.65023,32.90768 42.5879,33.5419 42.32048,34.07598 C42.05408,34.60802 41.58363,35.03788 40.99832,35.23283 C40.43606,35.43675 39.80095,35.37621 39.24689,35.09879 Z" id="Path" fill="#5C546A"></path>
                <path d="M114.65213,40.49971 C114.1201,40.23332 113.68921,39.7598 113.49528,39.17755 C113.31236,38.62323 113.35292,37.97812 113.62945,37.42586 C113.89686,36.89177 114.38934,36.47293 114.97158,36.27901 C116.09928,35.92046 117.48138,36.58751 117.8599,37.72522 C118.05549,38.30861 117.99316,38.94283 117.72573,39.4769 C117.45933,40.00894 116.98888,40.43881 116.40357,40.63376 C115.81929,40.82666 115.20415,40.77611 114.65213,40.49971 Z" id="Path" fill="#5C546A"></path>
                <path d="M104.07312,39.41335 C103.90866,38.35273 103.03171,37.54599 101.97235,37.47831 L56.27627,34.20425 C55.75217,34.16696 55.22963,34.31071 54.79831,34.61254 L16.11197,61.69681 C15.31837,62.25275 14.95964,63.24867 15.21931,64.18437 C15.39502,64.82281 15.83293,65.33731 16.40107,65.62179 C16.66504,65.75396 16.95606,65.83723 17.26337,65.85853 L37.8262,67.33074 C38.16924,67.35488 38.51361,67.30219 38.83265,67.17406 L102.6525,41.89176 C103.64694,41.49884 104.23682,40.47102 104.07312,39.41335 Z" id="Path" fill="#B8BAC0"></path>
                <path d="M141.36734,38.00435 L133.56845,37.44508 C132.30795,37.35447 131.21193,38.30401 131.12028,39.56656 C131.05163,40.51784 131.57743,41.37673 132.37959,41.77837 C132.64151,41.90952 132.93278,41.99291 133.24188,42.01511 L142.71167,42.69403 C142.55626,41.05064 142.08899,39.47749 141.36734,38.00435 Z" id="Path" fill="#5C546A"></path>
            </g>
        </g>
    </g>
</svg>