<?xml version="1.0" encoding="utf-8"?>
<!-- Generator: Adobe Illustrator 23.0.3, SVG Export Plug-In . SVG Version: 6.00 Build 0)  -->
<svg version="1.1" id="Layer_1" xmlns="http://www.w3.org/2000/svg" xmlns:xlink="http://www.w3.org/1999/xlink" x="0px" y="0px"
	 viewBox="0 0 1425.5 794" style="enable-background:new 0 0 1425.5 794;" xml:space="preserve">
<style type="text/css">
	.st0{filter:url(#Adobe_OpacityMaskFilter);}
	.st1{filter:url(#Adobe_OpacityMaskFilter_1_);}
	.st2{mask:url(#SVGID_1_);fill:url(#SVGID_2_);}
	.st3{fill:url(#SVGID_3_);}
	.st4{opacity:0.5;fill:url(#SVGID_4_);}
	.st5{opacity:0.5;fill:url(#SVGID_5_);}
	.st6{opacity:0.5;fill:url(#SVGID_6_);}
	.st7{opacity:0.33;fill:url(#SVGID_7_);}
	.st8{opacity:0.33;fill:url(#SVGID_8_);}
	.st9{opacity:0.33;fill:url(#SVGID_9_);}
	.st10{opacity:0.33;fill:url(#SVGID_10_);}
	.st11{fill:url(#SVGID_11_);}
	.st12{fill:url(#SVGID_12_);}
	.st13{fill:url(#SVGID_13_);}
</style>
<g>
	<defs>
		<filter id="Adobe_OpacityMaskFilter" filterUnits="userSpaceOnUse" x="142.9" y="339.9" width="38" height="26.8">
			<feFlood  style="flood-color:white;flood-opacity:1" result="back"/>
			<feBlend  in="SourceGraphic" in2="back" mode="normal"/>
		</filter>
	</defs>
	<mask maskUnits="userSpaceOnUse" x="142.9" y="339.9" width="38" height="26.8" id="SVGID_1_">
		<g class="st0">
			<defs>
				<filter id="Adobe_OpacityMaskFilter_1_" filterUnits="userSpaceOnUse" x="142.9" y="339.9" width="38" height="26.8">
					<feFlood  style="flood-color:white;flood-opacity:1" result="back"/>
					<feBlend  in="SourceGraphic" in2="back" mode="normal"/>
				</filter>
			</defs>
			<mask maskUnits="userSpaceOnUse" x="142.9" y="339.9" width="38" height="26.8" id="SVGID_1_">
				<g class="st1">
				</g>
			</mask>
			
				<radialGradient id="SVGID_2_" cx="-314.0294" cy="-1190.6362" r="116.4035" gradientTransform="matrix(0.7711 -0.6368 -0.6368 -0.7711 -329.726 -780.6402)" gradientUnits="userSpaceOnUse">
				<stop  offset="0" style="stop-color:#FFFFFF"/>
				<stop  offset="0.3153" style="stop-color:#FFFFFF"/>
				<stop  offset="1" style="stop-color:#000000"/>
			</radialGradient>
			<path class="st2" d="M180.9,340.6l-1.2-0.6l-3,3l-2.3,0.6l-3.3,0.4l-1.1,2.3l-1.9,1.2l-1.8-0.3l-2.5,0.2l-2.9,1.8l-1.5,1.6
				l-1,1.1l-0.5-0.2l-0.9-0.9l-3-0.3l-1.5,0.3l-1.3,1c0,0-0.2,0.9-0.5,1.1c-0.3,0.2-1.5,1.2-1.7,1.2c-0.1,0-1.4,1.1-1.4,1.1
				l-1.5,0.8l-1.5,0.7l-0.6,2.1l-1.1,1.1l1.4-1.1l0.5-1.8l3.1-1.6l3-2.4l0.6-1.2l1.1-0.8l1.6-0.2l2.5,0.3l1.8,1.2l0.8-1.4l1.7-1.5
				l2.9-1.7l2,0.4l-1.8,4.4l-2.7,1.3c0,0-1.4,1.5-1.5,1.6c-0.1,0.1-0.9,2.6-0.9,2.7c0,0.1-0.5,2.7-0.5,2.7s0.3,1.5,0.4,1.7
				c0,0.2,3,2.8,3,2.8l1.3,1.4l-1.2-1.6l-2.8-2.8l-0.4-1.6l1.5-5.2c0,0,1.3-1.3,1.4-1.4c0.1-0.1,2.9-1.2,2.9-1.2l1.5-3.2l0.6-1.4
				l1.6-0.4c0,0,1.7-0.3,1.8-0.3c0.1,0,0.6-0.8,0.6-0.9c0-0.1,1.1-2.1,1.1-2.1l3.8-0.1c0,0,0.1,1.1-0.1,1.2
				c-0.1,0.1-0.3,1.5-0.3,1.6c0,0.1,0.7,2,0.7,2l0.5,1.8L176,352c0,0-1.3,0.5-1.5,0.6c-0.1,0.1-1.1,0-1.1,0l-3.2,2.6l-0.6,1.3
				c0,0-1.7,0.8-1.7,0.9s-1.2,1.4-1.2,1.4s1.5,1.9,1.5,2c0,0.1,1.1,1.3,1.1,1.3l-1.1-2.1l-1-1.2l1-1.2l1.8-0.8l0.7-1.5l3-2.4
				l1.2-0.2l1.6-0.4l0.9-1l-1.4-3.9c0,0,0.6-1.9,0.6-2c0-0.1,0-0.8,0-0.8l1.1-1.1L180.9,340.6z"/>
		</g>
	</mask>
	
		<linearGradient id="SVGID_3_" gradientUnits="userSpaceOnUse" x1="-361.7505" y1="-1188.8687" x2="-320.1771" y2="-1188.8687" gradientTransform="matrix(0.7711 -0.6368 -0.6368 -0.7711 -329.726 -780.6402)">
		<stop  offset="0" style="stop-color:#FFFFFF;stop-opacity:0.33"/>
		<stop  offset="1" style="stop-color:#FFFFFF"/>
	</linearGradient>
	<path class="st3" d="M180.9,340.6l-1.2-0.6l-3,3l-2.3,0.6l-3.3,0.4l-1.1,2.3l-1.9,1.2l-1.8-0.3l-2.5,0.2l-2.9,1.8l-1.5,1.6l-1,1.1
		l-0.5-0.2l-0.9-0.9l-3-0.3l-1.5,0.3l-1.3,1c0,0-0.2,0.9-0.5,1.1c-0.3,0.2-1.5,1.2-1.7,1.2c-0.1,0-1.4,1.1-1.4,1.1l-1.5,0.8
		l-1.5,0.7l-0.6,2.1l-1.1,1.1l1.4-1.1l0.5-1.8l3.1-1.6l3-2.4l0.6-1.2l1.1-0.8l1.6-0.2l2.5,0.3l1.8,1.2l0.8-1.4l1.7-1.5l2.9-1.7
		l2,0.4l-1.8,4.4l-2.7,1.3c0,0-1.4,1.5-1.5,1.6c-0.1,0.1-0.9,2.6-0.9,2.7c0,0.1-0.5,2.7-0.5,2.7s0.3,1.5,0.4,1.7c0,0.2,3,2.8,3,2.8
		l1.3,1.4l-1.2-1.6l-2.8-2.8l-0.4-1.6l1.5-5.2c0,0,1.3-1.3,1.4-1.4c0.1-0.1,2.9-1.2,2.9-1.2l1.5-3.2l0.6-1.4l1.6-0.4
		c0,0,1.7-0.3,1.8-0.3c0.1,0,0.6-0.8,0.6-0.9c0-0.1,1.1-2.1,1.1-2.1l3.8-0.1c0,0,0.1,1.1-0.1,1.2c-0.1,0.1-0.3,1.5-0.3,1.6
		c0,0.1,0.7,2,0.7,2l0.5,1.8L176,352c0,0-1.3,0.5-1.5,0.6c-0.1,0.1-1.1,0-1.1,0l-3.2,2.6l-0.6,1.3c0,0-1.7,0.8-1.7,0.9
		s-1.2,1.4-1.2,1.4s1.5,1.9,1.5,2c0,0.1,1.1,1.3,1.1,1.3l-1.1-2.1l-1-1.2l1-1.2l1.8-0.8l0.7-1.5l3-2.4l1.2-0.2l1.6-0.4l0.9-1
		l-1.4-3.9c0,0,0.6-1.9,0.6-2c0-0.1,0-0.8,0-0.8l1.1-1.1L180.9,340.6z"/>
	<linearGradient id="SVGID_4_" gradientUnits="userSpaceOnUse" x1="213.5375" y1="276.4421" x2="233.8841" y2="276.4421">
		<stop  offset="0" style="stop-color:#FFFFFF"/>
		<stop  offset="1" style="stop-color:#FFFFFF;stop-opacity:0.33"/>
	</linearGradient>
	<path class="st4" d="M214.5,272.5l-0.3,0.7l1.5-0.4l-0.4,0.8l-1.8,1.4l0.1,0.4l1.7-0.7l0.8-1.3l2.9,1.1l1.7,3l1.7,0.8l2.7,4
		l-0.6-1.6l2.8,0.9l5.9,1.4l0.6-0.2l-1-0.3l-5.5-1.3l-3-1.1l-1.7-2.2l-1.7-0.8l-1.8-3.2l-3.1-1l1.5-1l0.8-1.1c0,0,3.5,0,3.5,0.1
		c0.1,0.1,1.3,1.3,1.3,1.3l4.4-0.3l-1.4-0.9l-1.3,0.4l-1.6,0l-0.8-0.6l0.9-0.6l-1.3-0.4l-0.3,0.4l-3.5-0.1l-0.5-0.2l-0.5,1.5
		l-1.6,0.7L214.5,272.5z"/>
	<linearGradient id="SVGID_5_" gradientUnits="userSpaceOnUse" x1="178.859" y1="242.518" x2="214.5374" y2="242.518">
		<stop  offset="0" style="stop-color:#FFFFFF"/>
		<stop  offset="1" style="stop-color:#FFFFFF;stop-opacity:0.33"/>
	</linearGradient>
	<path class="st5" d="M214.5,230.2l-0.9,0.9l0.1,1.7l-1.3,1.7l-1.5,0.3l-1.3,0.8l-1.2,1l-1.5,0.6l-0.8,1.4c0,0-1.3,0.7-1.4,0.8
		c-0.1,0.1-1.8-0.1-2,0.1c-0.1,0.2-0.6,0.2-0.6,0.2l-1.6,1c0,0-0.7,0.4-0.8,0.4c-0.1,0-1.3,0.1-1.7,0.1c-0.4,0-1.8-0.1-1.8-0.1
		l-1.4,2l-1,1.1l-1.5,1.4c0,0-2.3,0.4-2.5,0.4c-0.2,0-4.8,0.2-4.8,0.2l-0.3,3.3c0,0-0.2,1.3-2.8,1.6c-2.6,0.3-2.9,3.7-2.9,3.7
		s-0.6-2.1,1.8-3.7c0,0,1.4-0.4,1.5-0.5c0.1-0.1,2.1-0.4,2.2-1.7c0.1-1.3,0.1-2.9,0.1-2.9l1.5-0.2c0,0,3.8-0.2,4-0.2
		c0.2,0,2.2-0.5,2.2-0.5s1.8-1.9,2.1-2.1c0.3-0.2,1-1.5,1.1-1.6c0.1-0.1,1.3-1.4,1.3-1.4s-1.5-0.2-1.8-0.2c-0.3,0-3.5,1.2-3.5,1.2
		s0.8-0.9,1.1-1c0.4-0.1,2.5-0.6,2.5-0.6s1,0.2,1.6,0c0.1,0,0.5,0.4,0.5,0.4l-0.3,0.6l1.3,0.2l1.6-0.2c0,0,1.3-0.8,1.4-0.8
		c0.1,0,0.1-0.3,0.9-0.5c0.8-0.2,0.8-0.2,1.3-0.3c0.5-0.1,1,0.1,1.1,0c0.2,0,0.6-0.1,0.8-0.5s0.4-0.3,0.6-0.5
		c0.2-0.3,0.7-1.2,0.7-1.2l1.5-1l0.8-0.2l0.5-0.6l1-0.5c0,0,0.2-0.3,0.6-0.4c0.4-0.1,0.5,0.1,0.8-0.1c0.3-0.2,0.2-0.1,0.7-0.6
		c0.5-0.5,0.6-1,0.6-1.1c0-0.1,0.2-0.9,0-1.1c-0.1-0.3,0-0.8,0-0.8l0.4-0.4L214.5,230.2z"/>
	<linearGradient id="SVGID_6_" gradientUnits="userSpaceOnUse" x1="133.1501" y1="376.4223" x2="174.4603" y2="376.4223">
		<stop  offset="0" style="stop-color:#FFFFFF;stop-opacity:0.33"/>
		<stop  offset="1" style="stop-color:#FFFFFF"/>
	</linearGradient>
	<path class="st6" d="M174.5,370l-1.1,0.6l-0.4,1.7l-1.8,1.2l-1.6-0.1l-1.5,0.4l-1.5,0.6l-1.6,0.1l-1.2,1.1c0,0-1.4,0.3-1.6,0.4
		s-1.7-0.6-1.9-0.5c-0.1,0.1-0.7,0-0.7,0l-1.8,0.5c0,0-0.8,0.2-0.9,0.2c-0.1,0-1.2-0.3-1.6-0.4c-0.4-0.1-1.7-0.6-1.7-0.6l-2,1.5
		l-1.3,0.8l-1.8,0.9c0,0-2.3-0.3-2.5-0.4c-0.2-0.1-4.6-1.2-4.6-1.2l-1.3,3c0,0-0.6,1.2-3.2,0.7c-2.6-0.4-3.9,2.7-3.9,2.7
		s0-2.2,2.8-3c0,0,1.4,0,1.6-0.1s2.1,0.2,2.5-1c0.5-1.2,0.9-2.8,0.9-2.8l1.5,0.2c0,0,3.7,0.9,3.8,1c0.1,0.1,2.2,0.2,2.2,0.2
		s2.3-1.3,2.6-1.4c0.3-0.1,1.4-1.2,1.5-1.2c0.1-0.1,1.7-0.9,1.7-0.9s-1.4-0.6-1.7-0.7c-0.3-0.1-3.7,0.2-3.7,0.2s1-0.6,1.4-0.6
		c0.4,0,2.6,0.1,2.6,0.1s0.9,0.5,1.5,0.5c0.1,0,0.4,0.5,0.4,0.5l-0.5,0.5l1.2,0.6l1.6,0.3c0,0,1.5-0.4,1.6-0.4c0.1,0,0.2-0.2,1-0.2
		c0.9,0,0.8,0.1,1.3,0.1c0.5,0,0.9,0.3,1.1,0.4c0.1,0,0.6,0,0.9-0.2c0.4-0.3,0.4-0.1,0.7-0.3c0.2-0.2,1-0.9,1-0.9l1.7-0.5l0.8,0
		l0.6-0.4l1.1-0.2c0,0,0.3-0.3,0.7-0.2c0.4,0,0.4,0.2,0.8,0.1c0.4-0.1,0.3,0,0.8-0.4c0.6-0.3,0.9-0.8,0.9-0.9c0-0.1,0.4-0.8,0.4-1.1
		c-0.1-0.3,0.2-0.7,0.2-0.7l0.5-0.3L174.5,370z"/>
	<linearGradient id="SVGID_7_" gradientUnits="userSpaceOnUse" x1="155.2218" y1="287.3924" x2="206.6259" y2="287.3924">
		<stop  offset="0" style="stop-color:#FFFFFF;stop-opacity:0.33"/>
		<stop  offset="1" style="stop-color:#FFFFFF"/>
	</linearGradient>
	<path class="st7" d="M195.3,287.5l1.7,0.1l-2.6-0.7l-1-1.1l1.9-0.8l-0.2-2.8l1.4-0.6l1.1-0.8l0.1-1.4c0,0,1.3-0.4,1.4-0.2
		c0.1,0.1,2.5,0.7,2.5,0.7l-0.7,0.9l1.1,0l0.5-0.8l1.7-0.8l2.2,0.6l0.3-0.6l-3-0.7l-1.5,0.9l-1.7-0.5l-2-0.1l-1.1,0.2l-0.3,1.5
		l-1,0.8l-1.6,0.7l0.4,2.5l-2.1,1c0,0-0.3-0.2-0.6-0.3c-0.2-0.1-0.8-0.6-0.8-0.6l-2.5,0.3l-0.9,0.8l-1.2-0.2l-0.8-1l-4.9-0.7
		l4.8,1.3l0.7,0.8l1.6,0.4c0,0,1.1-0.9,1.1-0.9c0,0,1.7-0.2,1.7-0.2l0.9,0.7l-1.7,1.3l-2.1,1.2l0.5,1.6l-1.5,1.9l-0.3,2.8l-1.4,1.2
		l-1.6-1.8l-2.4-0.4l-5,0c0,0-1.4-0.5-1.5-0.6c-0.1-0.1-1.1-2.1-1.1-2.1s0.4-1.4,0.3-1.6c-0.1-0.2-1.7-1.5-1.7-1.5l0.6-2.3l-0.3-2.8
		l-0.5,1.9l-2.1-2.6l1.8,3.1l0.3,0.8l-0.3,0.8l-0.4,0.9l1.8,2l-0.1,0.9c0,0-1.4-0.9-1.6-0.9s-2.4-1-2.4-1l-1.4,0.4l-1.5,1.3
		l-11.3-0.1l11.5,1l2-1.7l1.5,0.1l1.7,0.8l1.2,0.8l1.7,2.5c0,0-4.3,0-4.1,0.1c0.2,0.1,4.3,0.6,4.3,0.6l1.9,0c0,0,2.2-0.3,2.5-0.3
		c0.2,0,2.3,0,2.3,0l1.7,0.6l1.9,1.8l2.1-1.6l0.3-2.5l1.5-1.9l0.2-0.8l-0.7-1.2c0,0,1.4-0.5,1.5-0.6c0.1-0.1,2-1.8,2-1.8l0.8,0.1
		l1.4,1.1L195.3,287.5z"/>
	<linearGradient id="SVGID_8_" gradientUnits="userSpaceOnUse" x1="190.8764" y1="336.102" x2="212.4018" y2="336.102">
		<stop  offset="0" style="stop-color:#FFFFFF"/>
		<stop  offset="1" style="stop-color:#FFFFFF;stop-opacity:0.33"/>
	</linearGradient>
	<path class="st8" d="M193.1,325.6l-1-1.4l2,1.8l1.4,0.2l-0.4-2.1l2.5-1.3l-0.2-1.5l0.1-1.3l1.2-0.8c0,0-0.4-1.3-0.5-1.3
		c-0.2,0-1.9-1.8-1.9-1.8l-0.4,1.1l-0.6-0.9l0.4-0.8l-0.2-1.9l-1.6-1.5l0.3-0.5l2.2,2.1l0,1.7l1.3,1.2l1.2,1.6l0.4,1l-1.1,1.1
		l-0.1,1.3l0.3,1.7l-2.3,1l0.3,2.4c0,0,0.3,0.2,0.5,0.3c0.2,0.1,1,0.3,1,0.3l1.1,2.2l-0.2,1.2l0.8,0.9l1.3,0.2l3.2,3.7l-3.6-3.3
		l-1.1-0.2l-1.2-1.1c0,0,0.1-1.4,0.2-1.4c0,0-0.8-1.5-0.8-1.5l-1-0.4l-0.2,2.1l0.1,2.4l-1.7,0.4l-0.8,2.3l-2.2,1.7l-0.3,1.9l2.4,0.3
		l1.7,1.8l2.7,4.2c0,0,1.1,0.9,1.3,0.9c0.2,0,2.4-0.2,2.4-0.2s1-1.1,1.2-1.1c0.2,0,2.2,0.6,2.2,0.6l1.6-1.7l2.5-1.2l-1.3,1.4
		l3.3,0.4l-3.6,0.1l-0.8,0.1l-0.5,0.7l-0.5,0.8l-2.7-0.4l-0.7,0.5c0,0,1.5,0.8,1.6,0.8c0.1,0.1,2.1,1.4,2.1,1.4l0.5,1.4l-0.3,2
		l6.2,9.5l-7-9.1l0.4-2.6l-0.9-1.2l-1.6-1l-1.3-0.6l-3-0.1c0,0,2.3,3.6,2.1,3.5c-0.2-0.1-2.8-3.3-2.8-3.3l-1.1-1.6c0,0-1-2-1.1-2.2
		c-0.1-0.2-1.2-1.9-1.2-1.9l-1.4-1.1l-2.5-0.6l0.2-2.6l1.9-1.6l0.8-2.2l0.6-0.6l1.4,0c0,0-0.3-1.4-0.3-1.6c0-0.1,0.4-2.7,0.4-2.7
		l-0.5-0.6l-1.6-0.6L193.1,325.6z"/>
	<linearGradient id="SVGID_9_" gradientUnits="userSpaceOnUse" x1="220.3985" y1="337.1021" x2="268.4967" y2="337.1021">
		<stop  offset="0" style="stop-color:#FFFFFF"/>
		<stop  offset="1" style="stop-color:#FFFFFF;stop-opacity:0.33"/>
	</linearGradient>
	<path class="st9" d="M230.4,335.5l-1.7-0.5l2.5,0.1l1-0.9l-1.8-1.5l0.5-2.9l-1.3-1.1l-0.9-1.2l0.1-1.5c0,0-1.2-0.8-1.3-0.7
		c-0.1,0.1-2.5-0.1-2.5-0.1l0.6,1.2l-1-0.4l-0.4-1l-1.5-1.4l-2.1-0.1l-0.2-0.7l2.9,0.3l1.3,1.5l1.6,0.1l1.9,0.6l1,0.6l0.2,1.7
		l0.9,1.1l1.4,1.2l-0.6,2.6l1.9,1.8c0,0,0.3-0.1,0.6-0.1c0.2,0,0.8-0.4,0.8-0.4l2.3,1.1l0.8,1.1l1.1,0.1l0.9-0.8l4.7,0.9l-4.7-0.2
		l-0.8,0.6l-1.6-0.1c0,0-1-1.3-1-1.3c0,0-1.6-0.7-1.6-0.7l-0.9,0.4l1.5,1.9l1.9,1.9l-0.7,1.6l1.2,2.5l0,3l1.3,1.8l1.7-1.4l2.4,0.3
		l4.8,1.7c0,0,1.3,0,1.5-0.1c0.1-0.1,1.3-1.8,1.3-1.8s-0.3-1.7-0.1-1.8c0.1-0.1,1.7-1.1,1.7-1.1l-0.4-2.6l0.6-2.9l0.2,2.2l2.3-2
		l-2,2.7l-0.4,0.7l0.2,1l0.3,1.1l-1.9,1.6l0,1c0,0,1.5-0.4,1.6-0.5c0.1,0,2.4-0.3,2.4-0.3l1.3,0.9l1.3,1.9l10.9,3.6l-11.1-2.7
		l-1.7-2.5l-1.5-0.4l-1.7,0.3l-1.2,0.5l-1.9,2.1c0,0,4.1,1.5,3.9,1.5c-0.2,0-4.2-0.8-4.2-0.8l-1.9-0.6c0,0-2.1-1-2.3-1.1
		c-0.2-0.1-2.2-0.7-2.2-0.7l-1.7,0.1l-1.9,1.3l-1.9-2.4l0-2.7l-1.2-2.5l-0.1-1l0.8-1c0,0-1.3-1-1.4-1.1c-0.1-0.1-1.8-2.6-1.8-2.6
		l-0.8-0.1l-1.4,0.7L230.4,335.5z"/>
	<linearGradient id="SVGID_10_" gradientUnits="userSpaceOnUse" x1="225.724" y1="228.4066" x2="261.1615" y2="228.4066">
		<stop  offset="0" style="stop-color:#FFFFFF"/>
		<stop  offset="1" style="stop-color:#FFFFFF;stop-opacity:0.33"/>
	</linearGradient>
	<path class="st10" d="M236.7,237.5l-1,0.9l1.1-1.8l0-1.1l-1.5,0.6l-1.3-1.7l-1.1,0.4l-1,0.1l-0.8-0.8c0,0-0.9,0.5-0.9,0.6
		c0,0.1-1.1,1.7-1.1,1.7l0.9,0.1l-0.6,0.6l-0.7-0.2l-1.4,0.4l-1,1.5l-0.4-0.2l1.4-1.9l1.3-0.2l0.7-1.1l1.1-1.1l0.7-0.5l1,0.7l1-0.1
		l1.2-0.4l1.1,1.6l1.8-0.5c0,0,0.1-0.3,0.2-0.4c0.1-0.2,0.1-0.8,0.1-0.8l1.6-1.1l0.9,0l0.6-0.7l0-1l2.4-2.9l-2.1,3.2l0,0.8l-0.7,1.1
		c0,0-1.1,0.1-1.1,0.1c0,0-1.1,0.8-1.1,0.8l-0.1,0.8l1.6-0.1l1.8-0.4l0.5,1.2l1.8,0.3l1.6,1.5l1.5,0l0-1.9l1.2-1.5l2.9-2.6
		c0,0,0.5-1,0.5-1.1c0-0.1-0.4-1.8-0.4-1.8s-1-0.6-1-0.8c0-0.2,0.1-1.8,0.1-1.8l-1.5-1l-1.3-1.8l1.2,0.8l-0.1-2.6l0.6,2.7l0.2,0.6
		l0.6,0.3l0.7,0.3l0,2.1l0.5,0.5c0,0,0.4-1.2,0.4-1.4c0-0.1,0.8-1.8,0.8-1.8l1-0.5l1.6,0l6.5-6l-6.1,6.6l-2,0.1l-0.8,0.9l-0.6,1.3
		l-0.3,1.1l0.3,2.3c0,0,2.5-2.2,2.4-2.1c-0.1,0.2-2.2,2.6-2.2,2.6l-1.1,1c0,0-1.4,1-1.6,1.1c-0.1,0.1-1.3,1.2-1.3,1.2l-0.7,1.3
		l-0.1,2l-2.1,0.2l-1.5-1.3l-1.8-0.3l-0.6-0.4l-0.2-1.1c0,0-1.1,0.4-1.2,0.4c-0.1,0-2.1,0.1-2.1,0.1l-0.4,0.5l-0.2,1.3L236.7,237.5z
		"/>
	<g>
		
			<image style="overflow:visible;opacity:0.81;" width="56" height="36" xlink:href="3940E349A8A5EC62.png"  transform="matrix(1 0 0 1 155.4967 213)">
		</image>
		<g>
			<linearGradient id="SVGID_11_" gradientUnits="userSpaceOnUse" x1="158.6582" y1="230.9288" x2="207.857" y2="230.9288">
				<stop  offset="0" style="stop-color:#FFFFFF;stop-opacity:0.33"/>
				<stop  offset="1" style="stop-color:#FFFFFF"/>
			</linearGradient>
			<path class="st11" d="M161.3,242.4c0.7-0.4,3.6-2.5,3.6-2.5s-0.1,0-0.3,0v-1.4l0.5,0.2l2.4-0.2l7.7-4.9l4.3-1.1l5.7-1.7l1.7-2.7
				c0,0,1.6-1.9,1.8-2.1c0.2-0.2,0.2-0.2,0.2-0.2l3.7-8l2.9-1c0,0,1.9,0.1,2.2,0.1c0.3-0.1,4.5,0.2,4.5,0.2l5.4,0.7l0.6,0.2
				l-0.5,1.2l-0.5-0.2l-5.3-0.5l-4.1-0.6l-3.7,0.6l-1.2,3c0,0-1.2,2-1.3,2.3c-0.1,0.3-1.1,2.7-1.1,2.7l-1.8,1.3c0,0-0.8,2.5-1.2,2.9
				c-0.3,0.4-5.2,2.4-5.2,2.4s-1.7,0.2-3.1,0.4c-1.3,0.3-3.1,1.2-3.1,1.2l-5.1,3.1l-4.9,3.1l-7.1,4
				C158.7,245,160.5,242.8,161.3,242.4z"/>
		</g>
	</g>
	<g>
		
			<image style="overflow:visible;opacity:0.81;" width="49" height="43" xlink:href="3940E349A8A5EC66.png"  transform="matrix(1 0 0 1 212.4967 230)">
		</image>
		<g>
			<linearGradient id="SVGID_12_" gradientUnits="userSpaceOnUse" x1="215.7577" y1="251.7406" x2="257.5312" y2="251.7406">
				<stop  offset="0" style="stop-color:#FFFFFF"/>
				<stop  offset="1" style="stop-color:#FFFFFF;stop-opacity:0.33"/>
			</linearGradient>
			<path class="st12" d="M242.8,241.4c-0.3,0-9.9-1.4-9.9-1.4l9,4.4l1.7,1.2l-2.9-0.4l-4.8-2.2l-3.3-1.2l-1.5-1.5c0,0-0.8,0-1.2-0.2
				c-0.3-0.2-2.3-0.6-2.7-0.6c-0.3,0-3.2-0.9-3.4-1c-0.3-0.1-3.1-0.6-3.1-0.6l1.5,1.8l2.2,2l0,2.4c0,0-0.6,1.6-0.6,2
				c0,0.4-0.2,2,0.3,2.9c0.5,1,1.4,3.4,1.8,3.9c0.4,0.5,1.5,2.7,2.1,3.1c0.7,0.4,1.9,3,2.1,3.2c0.2,0.2,0.4,2.7,0.3,2.9
				c-0.2,0.1,0.3,4.4,0.3,4.4l-1.4-3.6l-0.4-2.5l-3.1,3.7c0,0-1.1,0.9-1.2,1.2c-0.1,0.3-2,4.4-2,4.4l0.6-3.7l0.9-1.9l4.2-4.6
				l-0.3-1.6c0,0-1.2-1.4-1.6-1.9c-0.4-0.5-1.3-2.1-1.3-2.1l-1.1-2.5l-1.1-1.9l-0.4-2.2l0.1-1.7l0.8-2.7l-1.1-1.8
				c0,0-2.1-1.6-2.3-1.8c-0.1-0.2-2.3-2.5-2.3-2.5l-2.1-1.5l0.6-1.2c0.1,0.1,0.2,0.3,0.3,0.4c0.5,0.6,3.4,1.9,3.4,1.9
				s2.8,0.6,3.7,0.7c0.9,0.1,4.6,0.7,5,0.9c0.5,0.2,4.6,1.2,4.6,1.2s7.9,0.6,8.2,0.7c0.3,0.1,4.1,0.4,5.9,1c1.8,0.6,6.4,1.5,7.3,2.1
				c0.9,0.5,2.7,1.4,2.7,1.4S243.1,241.4,242.8,241.4z"/>
		</g>
	</g>
	<g>
		
			<image style="overflow:visible;opacity:0.81;" width="68" height="273" xlink:href="3940E349A8A5EC61.png"  transform="matrix(1 0 0 1 158.4967 140)">
		</image>
		<g>
			<radialGradient id="SVGID_13_" cx="192.5387" cy="276.442" r="96.6682" gradientUnits="userSpaceOnUse">
				<stop  offset="0" style="stop-color:#FFFFFF"/>
				<stop  offset="1" style="stop-color:#FFFFFF;stop-opacity:0.33"/>
			</radialGradient>
			<path class="st13" d="M166.6,409.8l-4.3-3.1l0.2-4.1l4.4-6.2l-0.8-2.3l1.5-5l1.4-8l4.1-5.8l0.6-3.9l-0.5-4.8l1.5-5.4l2.3-3.7
				l2.9-0.3l2.5-3.5l0.6-2.3l-2.7-3.5l-1-7.9l3.4-6.5l-0.1-4l6.9-11.7l5.5-8.9l2.3-5.9l-0.4-6.3l2.6-9.7l5-3.5l2.1-5.3l-2.6-4.2
				l3.2-4.5l-1.9-2.9l1.3-6.5l-1.3-0.6v-3.3l1.4-1.9c0,0,2-5.4,2.3-5.8c0.3-0.4,1.6-3.7,1.9-4.1c0.3-0.4,2.4-6.1,2.4-6.1l1.6-6.1
				l-2.6-2.8l0.3-4.5l-5.5-3.9l-1.4-3.7l-2.1-4.4l-2-8.4l-1.2-5.3l-2.2-4.3l0.6-3.3l0-2.7l-0.5-1.9l-2.3-4.2l-3-1.8l-4.3-2.8
				l-4.3-1.1l-2.6-4.2l-1.7-2.2l0.8-4.3l4.7-6.6l-0.6-2l-0.4-2.8l1.7-2.3l0.9-3.2l1-4.5l2.6-1.7l-0.4,4.9l-1.8,3.9l-2.5,3.1l0.5,1.5
				l0.5,3.5l-3.6,4.9c0,0-1.8,3.5-1.8,3.9c0,0.4,0.9,2.6,0.9,2.6l2.5,3.5l4.5,1.5l3.9,2.4l3.6,2.6l3.8,6.6l-0.9,5.1l3.2,6.1
				l2.5,11.1l2.7,9.7l5.7,3.4l0.3,5.3l2.6,2.3l-0.5,5.3l-1.1,3.4l-3.1,6.5l-1.4,5l-2.4,5.7l1.9,1.4l1,8.5l2.5,2.5l1.4,4.8l-3.5,6
				l0.1,5.5l-1.2,6.1l1.3,3.6l3.4,2.7l0.3,4l-0.1-0.1l-1.3,3.2l2.2,3.8l4.6,3.6l1.8,5.5l-1.3,4.9l-1.5,4.8l-2.3,5.7l0.6,4.3
				l-1.6,3.6l0.4,2.7l0.7,2.2l-3,6.7l0.6,5.3l3.2,5.8l-15,22l13.7-21.7l-3.1-5.7l-0.6-5.7l2.8-6.6l-0.3-2l-0.9-3l1.8-3.6l-0.5-4.6
				l2.5-5.6l1.1-4.1l1-4.5l-1.5-4.6l-4.8-3.4l-2.8-4.5l1.4-6l-3.8-3.1l-1.5-4.8c0,0,1.2-6.2,1.6-6.6c0.5-0.4,0.1-5.6,0.1-5.6
				l3.7-5.7l-1-4.1l-2.6-2.6l-0.8-3.1l-0.7-4.6l-0.3,3.7l0.4,6.1l-2.3,3.7l1.5,2.2l0.2,5.8l-4,4.9l-2.6,2.4l-1.1,4.5l-0.8,8.6
				l-1.1,5.9l-1.6,2.1l-5.6,8.9l7.3,5.6l0.3,7.2l2,4l-3-3.2l-0.3-7.3l-6.7-4.9l-5.9,9.4l0.4,3.7l-3.7,6l0,6.7l2.5,2.5l0.4,4.4
				l1.7,4.2l-2.8,5.5l-0.7,3.9l-0.3,3.8l0.9,1.8l-3.7,5.1l0.4,1.4l-1.6,3.1l-0.8,5.7l1.1,5.5l3,4.3l3,1l-2.5-0.1l-3.1,6.5l2-6.9
				l-3.1-4.3l-1.5-4.9c0,0,1.1-6,1-6.2c-0.1-0.2,1.2-3.5,1.2-3.5l-0.1-1.5l3.2-5l-0.6-1l0.4-4.4l0.7-4.3l2.4-5.3l-1.4-2.3l-2.3,3.3
				l-2.9,0.3l-2,2.8l-1.3,4.2l-0.1,5.1l-0.4,5l-4.1,5.7l-1.8,7.5l-1.3,4.7l1,2.5l-4.7,6.2l0.1,3L166.6,409.8z"/>
		</g>
	</g>
</g>
</svg>
