<?xml version="1.0" encoding="utf-8"?>
<!-- Generator: Adobe Illustrator 23.0.3, SVG Export Plug-In . SVG Version: 6.00 Build 0)  -->
<svg version="1.1" id="Layer_1" xmlns="http://www.w3.org/2000/svg" xmlns:xlink="http://www.w3.org/1999/xlink" x="0px" y="0px"
	 viewBox="0 0 450.61 53.3" style="enable-background:new 0 0 450.61 53.3;" xml:space="preserve">
<style type="text/css">
	.st0{fill:#E6E6E6;}
	.st1{fill:#808080;}
	.st2{fill:#8CACBD;}
	.st3{fill:#FFFFFF;}
</style>
<g>
	<path class="st0" d="M187.08,21.42c0,2.38-1.94,4.32-4.32,4.32s-4.32-1.94-4.32-4.32c0-2.38,1.94-4.32,4.32-4.32
		C185.14,17.14,187.08,19.04,187.08,21.42z M195.33,32.31v7.49c0,0.71-0.44,1.32-1.1,1.54l-19.18,6.52
		c-0.71,0.26-1.45-0.31-1.45-1.06V42.8h-4.54c-1.63,0-2.91-1.32-2.91-2.91v-7.98h-2.16c-1.15,0-1.85-1.28-1.19-2.2
		c0.62-0.97,1.41-2.34,2.12-3.75c0.71-1.32,1.28-3.66,1.28-5.2l0.04-0.44l0,0c0.53-9.08,8.38-16.13,17.77-15.47
		c8.42,0.62,15.16,7.67,15.43,16.13C199.51,25.3,197.97,29.27,195.33,32.31z M194.71,20.36c0-0.44-0.35-0.79-0.79-0.79h-1.81
		c-0.26-1.23-0.75-2.42-1.41-3.44l1.28-1.28c0.31-0.31,0.31-0.79,0-1.1l-1.54-1.5c-0.31-0.31-0.79-0.31-1.1,0l-1.28,1.28
		c-1.01-0.71-2.2-1.19-3.44-1.41v-1.81c0-0.44-0.35-0.79-0.79-0.79h-2.16c-0.44,0-0.79,0.35-0.79,0.79v1.81
		c-1.23,0.26-2.42,0.75-3.44,1.41l-1.28-1.28c-0.31-0.31-0.79-0.31-1.1,0l-1.5,1.5c-0.31,0.31-0.31,0.79,0,1.1l1.28,1.28
		c-0.71,1.01-1.19,2.2-1.41,3.44h-1.81c-0.44,0-0.79,0.35-0.79,0.79v2.16c0,0.44,0.35,0.79,0.79,0.79h1.81
		c0.26,1.23,0.75,2.42,1.41,3.44l-1.28,1.28c-0.31,0.31-0.31,0.79,0,1.1l1.5,1.5c0.31,0.31,0.79,0.31,1.1,0l1.28-1.28
		c1.01,0.71,2.2,1.19,3.44,1.41v1.81c0,0.44,0.35,0.79,0.79,0.79h2.16c0.44,0,0.79-0.35,0.79-0.79v-1.81
		c1.23-0.26,2.42-0.75,3.44-1.41l1.28,1.28c0.31,0.31,0.79,0.31,1.1,0l1.5-1.5c0.31-0.31,0.31-0.79,0-1.1l-1.28-1.28
		c0.71-1.01,1.19-2.2,1.41-3.44h1.81c0.44,0,0.79-0.35,0.79-0.79v-2.16H194.71z"/>
	<g>
		<g>
			<path class="st1" d="M17.79,15.82c-2.87-0.57-4.73-3.4-4.15-6.3c0.58-2.9,3.39-4.78,6.26-4.21c2.88,0.57,4.73,3.39,4.15,6.29
				C23.46,14.5,20.66,16.39,17.79,15.82"/>
			<path class="st1" d="M39.8,7.98c-4.83-2.8-9.2-2.57-9.67-2.57c0,0,0,0,0,0C27.3,5.41,25,7.7,25,10.53v0v0v18.79
				c0,1.26,1.02,2.29,2.29,2.29c1.26,0,2.29-1.02,2.29-2.29v-13.7c0.18,0.02,0.36,0.03,0.55,0.03c0.01,0,0.34,0.01,0.9,0.11v13.56
				c0,1.26,1.02,2.29,2.29,2.29s2.29-1.02,2.29-2.29V17.57c3.15,2.04,4.39,6.01,4.39,7.81c0,1.44,0,19.02,0,19.02
				c0,1.05,0.36,1.92,1.09,2.63c0.73,0.7,1.62,1.06,2.67,1.06c1,0,1.87-0.35,2.6-1.06c0.73-0.71,1.09-1.59,1.09-2.63V21.99
				C47.42,21.07,47.54,12.47,39.8,7.98z"/>
		</g>
		<g>
			<rect x="4.75" y="29.6" class="st1" width="9.49" height="2.76"/>
		</g>
		<g>
			<path class="st1" d="M9.49,40.39C4.26,40.39,0,36.13,0,30.89s4.26-9.49,9.49-9.49s9.49,4.26,9.49,9.49S14.73,40.39,9.49,40.39z
				 M9.49,23.3c-4.19,0-7.6,3.41-7.6,7.6s3.41,7.6,7.6,7.6s7.6-3.41,7.6-7.6S13.68,23.3,9.49,23.3z"/>
		</g>
	</g>
	<g>
		<g>
			<ellipse class="st2" cx="342.39" cy="5.01" rx="5.01" ry="5.01"/>
			<path class="st2" d="M353.62,5.57c-0.12-1.31-1.25-2.26-2.5-2.15c-1.31,0.12-2.26,1.25-2.15,2.5c0.18,2.03,0.06,5.36-0.48,6.91
				c-1.01,0-3.1-0.77-3.99-1.07c-0.48-0.18-0.83-0.3-1.19-0.42l-7.45-2.26c-3.58-1.07-9.53,2.56-11.02,4.35
				c-1.07,1.31-3.75,5.66-4.05,6.14c-0.66,1.13-0.36,2.56,0.77,3.22c0.36,0.24,0.83,0.36,1.25,0.36c0.77,0,1.55-0.42,2.03-1.13
				c1.07-1.73,2.98-4.77,3.63-5.54c0.36-0.42,1.25-1.01,2.26-1.55c-1.31,2.92-3.52,10.31-3.63,10.96c-0.3,1.49,0.18,3.63,1.07,7.33
				c0.36,1.55,0.95,3.99,0.95,4.59c-0.06,1.19-1.85,6.97-3.4,11.68c-0.48,1.49,0.3,3.1,1.79,3.63c0.3,0.12,0.6,0.18,0.89,0.18
				c1.19,0,2.32-0.77,2.74-1.97c1.07-3.22,3.63-10.96,3.69-13.29c0.06-1.25-0.36-2.98-0.95-5.66c1.37,2.92,2.62,5.54,2.86,6.32
				c0.12,1.19-0.12,6.85-0.42,11.5c-0.12,1.55,1.13,2.92,2.68,3.04c1.61,0.12,2.92-1.13,3.04-2.68c0.3-5.12,0.6-11.56,0.3-12.99
				c-0.24-1.31-2.5-6.08-4.59-10.31c0.77-3.46,2.62-8.22,4.29-11.32c0.24,0.06,0.54,0.18,0.89,0.3c2.86,0.95,7.63,2.62,9.47-0.72
				C354.03,12.49,353.68,6.71,353.62,5.57z"/>
		</g>
		<g>
			<path class="st2" d="M356.16,44.6c-5.24,0-9.49-4.26-9.49-9.49s4.26-9.49,9.49-9.49c5.24,0,9.49,4.26,9.49,9.49
				S361.4,44.6,356.16,44.6z M356.16,27.51c-4.19,0-7.6,3.41-7.6,7.6s3.41,7.6,7.6,7.6c4.19,0,7.6-3.41,7.6-7.6
				S360.35,27.51,356.16,27.51z"/>
		</g>
		<polygon class="st2" points="360.91,33.82 357.54,33.82 357.54,30.45 354.78,30.45 354.78,33.82 351.41,33.82 351.41,36.58 
			354.78,36.58 354.78,39.94 357.54,39.94 357.54,36.58 360.91,36.58 		"/>
	</g>
	<g>
		<path class="st1" d="M57.65,16.99v7.02h-2.23V11.34h2.21l2.91,7.32v-7.32h2.23v12.67h-2.23L57.65,16.99z"/>
		<path class="st1" d="M65.73,11.34h5.99v2.16h-3.45v3.06h2.91v2.12h-2.91v3.17h3.45v2.16h-5.99V11.34z"/>
		<path class="st1" d="M77.6,16.26h4.15v2.12h-0.77v4.19c0,0.88-0.62,1.5-1.52,1.5h-3.89c-0.9,0-1.5-0.62-1.5-1.5v-9.78
			c0-0.9,0.6-1.52,1.5-1.52h5.42v2.25h-4.24c-0.07,0-0.15,0.09-0.15,0.21v7.9c0,0.11,0.08,0.19,0.15,0.19h1.75
			c0.11,0,0.17-0.07,0.17-0.19v-3.25H77.6V16.26z"/>
		<path class="st1" d="M90.96,24.01h-2.52v-3.49h-2.01v3.49h-2.52v-11.3c0-0.81,0.54-1.37,1.35-1.37h4.32
			c0.81,0,1.37,0.56,1.37,1.37V24.01z M88.44,18.42v-4.65c0-0.19-0.15-0.3-0.34-0.3h-1.35c-0.19,0-0.32,0.13-0.32,0.3v4.65H88.44z"
			/>
		<path class="st1" d="M99.4,11.34v2.16h-2.06v10.51h-2.53V13.5h-2.06v-2.16H99.4z"/>
		<path class="st1" d="M103.76,24.01h-2.46V11.34h2.46V24.01z"/>
		<path class="st1" d="M113.63,11.34l-2.67,12.67h-2.5l-2.65-12.67h2.65l1.28,8.62l1.41-8.62H113.63z"/>
		<path class="st1" d="M115.71,11.34h5.99v2.16h-3.45v3.06h2.91v2.12h-2.91v3.17h3.45v2.16h-5.99V11.34z"/>
		<path class="st1" d="M55,40.56h3.3c0.11,0,0.17-0.08,0.17-0.17v-2.67c0-0.09-0.06-0.17-0.17-0.17h-1.95
			c-0.79,0-1.35-0.58-1.35-1.37v-4.71c0-0.81,0.56-1.37,1.35-1.37h4.5v2.16h-3.17c-0.09,0-0.17,0.09-0.17,0.21v2.63
			c0,0.07,0.07,0.17,0.17,0.17h1.95c0.79,0,1.37,0.56,1.37,1.37v4.77c0,0.81-0.58,1.37-1.37,1.37H55V40.56z"/>
		<path class="st1" d="M65.36,42.78v-3.83h-0.81c-0.88,0-1.5-0.62-1.5-1.5v-7.34h2.53v6.42c0,0.09,0.09,0.19,0.17,0.19h1.8
			c0.07,0,0.09-0.09,0.09-0.19v-6.42h2.53v7.34c0,0.88-0.64,1.5-1.52,1.5h-0.79v3.83H65.36z"/>
		<path class="st1" d="M75.02,35.44v7.34h-2.31V30.11h2.38l2.05,5.99l1.95-5.99h2.5v12.67h-2.4v-7.39l-1.61,4.39h-0.94L75.02,35.44z
			"/>
		<path class="st1" d="M90.09,30.11c0.88,0,1.52,0.62,1.52,1.5v6.23c0,0.88-0.64,1.5-1.52,1.5h-2.98v3.43h-2.55V30.11H90.09z
			 M88.91,37.24c0.08,0,0.15-0.09,0.15-0.17v-4.62c0-0.09-0.08-0.19-0.15-0.19h-1.8v4.97H88.91z"/>
		<path class="st1" d="M99.72,30.11v2.16h-2.06v10.51h-2.53V32.27h-2.06v-2.16H99.72z"/>
		<path class="st1" d="M107.3,30.03c0.81,0,1.37,0.56,1.37,1.37v10.06c0,0.81-0.56,1.37-1.37,1.37h-4.43
			c-0.83,0-1.37-0.56-1.37-1.37V31.41c0-0.81,0.54-1.37,1.37-1.37H107.3z M106.14,32.36c0-0.11-0.09-0.21-0.15-0.21h-1.82
			c-0.09,0-0.13,0.13-0.13,0.21v8.15c0,0.07,0.06,0.17,0.13,0.17h1.82c0.06,0,0.15-0.07,0.15-0.17V32.36z"/>
		<path class="st1" d="M113.83,35.44v7.34h-2.31V30.11h2.38l2.05,5.99l1.95-5.99h2.5v12.67H118v-7.39l-1.61,4.39h-0.94L113.83,35.44
			z"/>
		<path class="st1" d="M122.96,40.56h3.3c0.11,0,0.17-0.08,0.17-0.17v-2.67c0-0.09-0.06-0.17-0.17-0.17h-1.95
			c-0.79,0-1.35-0.58-1.35-1.37v-4.71c0-0.81,0.56-1.37,1.35-1.37h4.5v2.16h-3.17c-0.09,0-0.17,0.09-0.17,0.21v2.63
			c0,0.07,0.07,0.17,0.17,0.17h1.95c0.79,0,1.37,0.56,1.37,1.37v4.77c0,0.81-0.58,1.37-1.37,1.37h-4.64V40.56z"/>
	</g>
	<g>
		<path class="st2" d="M382.59,12.12c0.88,0,1.52,0.62,1.52,1.5v6.23c0,0.88-0.64,1.5-1.52,1.5h-2.98v3.43h-2.55V12.12H382.59z
			 M381.41,19.26c0.08,0,0.15-0.09,0.15-0.17v-4.62c0-0.09-0.08-0.19-0.15-0.19h-1.8v4.97H381.41z"/>
		<path class="st2" d="M392.07,12.05c0.81,0,1.37,0.56,1.37,1.37v10.06c0,0.81-0.56,1.37-1.37,1.37h-4.43
			c-0.83,0-1.37-0.56-1.37-1.37V13.42c0-0.81,0.54-1.37,1.37-1.37H392.07z M390.91,14.38c0-0.11-0.09-0.21-0.15-0.21h-1.82
			c-0.09,0-0.13,0.13-0.13,0.21v8.15c0,0.07,0.06,0.17,0.13,0.17h1.82c0.06,0,0.15-0.08,0.15-0.17V14.38z"/>
		<path class="st2" d="M395.88,22.58h3.3c0.11,0,0.17-0.08,0.17-0.17v-2.67c0-0.09-0.06-0.17-0.17-0.17h-1.95
			c-0.79,0-1.35-0.58-1.35-1.37v-4.71c0-0.81,0.56-1.37,1.35-1.37h4.5v2.16h-3.17c-0.09,0-0.17,0.09-0.17,0.21v2.63
			c0,0.07,0.07,0.17,0.17,0.17h1.95c0.79,0,1.37,0.56,1.37,1.37v4.77c0,0.81-0.58,1.37-1.37,1.37h-4.64V22.58z"/>
		<path class="st2" d="M406.82,24.79h-2.46V12.12h2.46V24.79z"/>
		<path class="st2" d="M415.38,12.12v2.16h-2.06v10.51h-2.53V14.28h-2.06v-2.16H415.38z"/>
		<path class="st2" d="M419.73,24.79h-2.46V12.12h2.46V24.79z"/>
		<path class="st2" d="M429.61,12.12l-2.67,12.67h-2.5l-2.65-12.67h2.65l1.28,8.62l1.41-8.62H429.61z"/>
		<path class="st2" d="M431.69,12.12h5.99v2.16h-3.45v3.06h2.91v2.12h-2.91v3.17h3.45v2.16h-5.99V12.12z"/>
		<path class="st2" d="M376.64,41.35h3.3c0.11,0,0.17-0.08,0.17-0.17v-2.67c0-0.09-0.06-0.17-0.17-0.17h-1.95
			c-0.79,0-1.35-0.58-1.35-1.37v-4.71c0-0.81,0.56-1.37,1.35-1.37h4.5v2.16h-3.17c-0.09,0-0.17,0.09-0.17,0.21v2.63
			c0,0.07,0.08,0.17,0.17,0.17h1.95c0.79,0,1.37,0.56,1.37,1.37v4.77c0,0.81-0.58,1.37-1.37,1.37h-4.64V41.35z"/>
		<path class="st2" d="M387,43.56v-3.83h-0.81c-0.88,0-1.5-0.62-1.5-1.5v-7.34h2.53v6.42c0,0.09,0.09,0.19,0.17,0.19h1.8
			c0.08,0,0.09-0.09,0.09-0.19v-6.42h2.53v7.34c0,0.88-0.64,1.5-1.52,1.5h-0.79v3.83H387z"/>
		<path class="st2" d="M396.67,36.22v7.34h-2.31V30.89h2.38l2.05,5.99l1.95-5.99h2.5v12.67h-2.4v-7.39l-1.61,4.39h-0.94
			L396.67,36.22z"/>
		<path class="st2" d="M411.74,30.89c0.88,0,1.52,0.62,1.52,1.5v6.23c0,0.88-0.64,1.5-1.52,1.5h-2.98v3.43h-2.55V30.89H411.74z
			 M410.56,38.02c0.08,0,0.15-0.09,0.15-0.17v-4.62c0-0.09-0.08-0.19-0.15-0.19h-1.8v4.97H410.56z"/>
		<path class="st2" d="M421.37,30.89v2.16h-2.06v10.51h-2.53V33.05h-2.06v-2.16H421.37z"/>
		<path class="st2" d="M428.95,30.82c0.81,0,1.37,0.56,1.37,1.37v10.06c0,0.81-0.56,1.37-1.37,1.37h-4.43
			c-0.83,0-1.37-0.56-1.37-1.37V32.19c0-0.81,0.54-1.37,1.37-1.37H428.95z M427.78,33.14c0-0.11-0.09-0.21-0.15-0.21h-1.82
			c-0.09,0-0.13,0.13-0.13,0.21v8.15c0,0.07,0.06,0.17,0.13,0.17h1.82c0.06,0,0.15-0.07,0.15-0.17V33.14z"/>
		<path class="st2" d="M435.48,36.22v7.34h-2.31V30.89h2.38l2.05,5.99l1.95-5.99h2.5v12.67h-2.4v-7.39l-1.61,4.39h-0.94
			L435.48,36.22z"/>
		<path class="st2" d="M444.6,41.35h3.3c0.11,0,0.17-0.08,0.17-0.17v-2.67c0-0.09-0.06-0.17-0.17-0.17h-1.95
			c-0.79,0-1.35-0.58-1.35-1.37v-4.71c0-0.81,0.56-1.37,1.35-1.37h4.5v2.16h-3.17c-0.09,0-0.17,0.09-0.17,0.21v2.63
			c0,0.07,0.08,0.17,0.17,0.17h1.95c0.79,0,1.37,0.56,1.37,1.37v4.77c0,0.81-0.58,1.37-1.37,1.37h-4.64V41.35z"/>
	</g>
	<g>
		<path class="st3" d="M215.55,19.81v3.3c0,0.88-0.62,1.5-1.5,1.5h-4c-0.86,0-1.48-0.62-1.48-1.5v-9.8c0-0.9,0.62-1.52,1.48-1.52h4
			c0.88,0,1.5,0.62,1.5,1.52v3.25h-2.53v-2.4c0-0.11-0.08-0.21-0.13-0.21h-1.61c-0.09,0-0.17,0.09-0.17,0.21v8.09
			c0,0.11,0.08,0.19,0.17,0.19h1.58c0.09,0,0.17-0.07,0.17-0.19v-2.44H215.55z"/>
		<path class="st3" d="M223.66,11.79c0.81,0,1.37,0.56,1.37,1.37v10.06c0,0.81-0.56,1.37-1.37,1.37h-4.43
			c-0.83,0-1.37-0.56-1.37-1.37V13.16c0-0.81,0.54-1.37,1.37-1.37H223.66z M222.49,14.12c0-0.11-0.09-0.21-0.15-0.21h-1.82
			c-0.09,0-0.13,0.13-0.13,0.21v8.15c0,0.07,0.06,0.17,0.13,0.17h1.82c0.06,0,0.15-0.07,0.15-0.17V14.12z"/>
		<path class="st3" d="M231.3,16.79h4.15v2.12h-0.77v4.19c0,0.88-0.62,1.5-1.52,1.5h-3.88c-0.9,0-1.5-0.62-1.5-1.5v-9.78
			c0-0.9,0.6-1.52,1.5-1.52h5.42v2.25h-4.24c-0.08,0-0.15,0.09-0.15,0.21v7.9c0,0.11,0.08,0.19,0.15,0.19h1.75
			c0.11,0,0.17-0.07,0.17-0.19v-3.25h-1.07V16.79z"/>
		<path class="st3" d="M239.97,17.52v7.02h-2.23V11.87h2.21l2.91,7.32v-7.32h2.23v12.67h-2.23L239.97,17.52z"/>
		<path class="st3" d="M250.51,24.54h-2.46V11.87h2.46V24.54z"/>
		<path class="st3" d="M259.07,11.87v2.16h-2.06v10.51h-2.53V14.03h-2.06v-2.16H259.07z"/>
		<path class="st3" d="M263.42,24.54h-2.46V11.87h2.46V24.54z"/>
		<path class="st3" d="M273.3,11.87l-2.67,12.67h-2.5l-2.65-12.67h2.65l1.28,8.62l1.41-8.62H273.3z"/>
		<path class="st3" d="M275.38,11.87h5.99v2.16h-3.45v3.06h2.91v2.12h-2.91v3.17h3.45v2.16h-5.99V11.87z"/>
		<path class="st3" d="M208.27,41.09h3.3c0.11,0,0.17-0.08,0.17-0.17v-2.67c0-0.09-0.06-0.17-0.17-0.17h-1.95
			c-0.79,0-1.35-0.58-1.35-1.37V32c0-0.81,0.56-1.37,1.35-1.37h4.5v2.16h-3.17c-0.09,0-0.17,0.09-0.17,0.21v2.63
			c0,0.07,0.07,0.17,0.17,0.17h1.95c0.79,0,1.37,0.56,1.37,1.37v4.77c0,0.81-0.58,1.37-1.37,1.37h-4.64V41.09z"/>
		<path class="st3" d="M218.63,43.3v-3.83h-0.81c-0.88,0-1.5-0.62-1.5-1.5v-7.34h2.53v6.42c0,0.09,0.09,0.19,0.17,0.19h1.8
			c0.08,0,0.09-0.09,0.09-0.19v-6.42h2.53v7.34c0,0.88-0.64,1.5-1.52,1.5h-0.79v3.83H218.63z"/>
		<path class="st3" d="M228.29,35.96v7.34h-2.31V30.63h2.38l2.05,5.99l1.95-5.99h2.5V43.3h-2.4v-7.39l-1.61,4.39h-0.94L228.29,35.96
			z"/>
		<path class="st3" d="M243.36,30.63c0.88,0,1.52,0.62,1.52,1.5v6.23c0,0.88-0.64,1.5-1.52,1.5h-2.98v3.43h-2.55V30.63H243.36z
			 M242.18,37.77c0.08,0,0.15-0.09,0.15-0.17v-4.62c0-0.09-0.08-0.19-0.15-0.19h-1.8v4.97H242.18z"/>
		<path class="st3" d="M252.99,30.63v2.16h-2.06V43.3h-2.53V32.79h-2.06v-2.16H252.99z"/>
		<path class="st3" d="M260.57,30.56c0.81,0,1.37,0.56,1.37,1.37v10.06c0,0.81-0.56,1.37-1.37,1.37h-4.43
			c-0.83,0-1.37-0.56-1.37-1.37V31.93c0-0.81,0.54-1.37,1.37-1.37H260.57z M259.41,32.89c0-0.11-0.09-0.21-0.15-0.21h-1.82
			c-0.09,0-0.13,0.13-0.13,0.21v8.15c0,0.07,0.06,0.17,0.13,0.17h1.82c0.06,0,0.15-0.08,0.15-0.17V32.89z"/>
		<path class="st3" d="M267.1,35.96v7.34h-2.31V30.63h2.38l2.05,5.99l1.95-5.99h2.5V43.3h-2.4v-7.39l-1.61,4.39h-0.94L267.1,35.96z"
			/>
		<path class="st3" d="M276.23,41.09h3.3c0.11,0,0.17-0.08,0.17-0.17v-2.67c0-0.09-0.06-0.17-0.17-0.17h-1.95
			c-0.79,0-1.35-0.58-1.35-1.37V32c0-0.81,0.56-1.37,1.35-1.37h4.5v2.16h-3.17c-0.09,0-0.17,0.09-0.17,0.21v2.63
			c0,0.07,0.08,0.17,0.17,0.17h1.95c0.79,0,1.37,0.56,1.37,1.37v4.77c0,0.81-0.58,1.37-1.37,1.37h-4.64V41.09z"/>
	</g>
</g>
</svg>
