<?xml version="1.0" encoding="utf-8"?>
<!-- Generator: Adobe Illustrator 23.0.3, SVG Export Plug-In . SVG Version: 6.00 Build 0)  -->
<svg version="1.1" id="Layer_1" xmlns="http://www.w3.org/2000/svg" xmlns:xlink="http://www.w3.org/1999/xlink" x="0px" y="0px"
	 viewBox="0 0 123.0625 41" style="enable-background:new 0 0 123.0625 41;" xml:space="preserve">
<style type="text/css">
	.st0{fill:#B3B3B3;}
</style>
<g>
	<path class="st0" d="M11.89453,36.79297l-2.5-2.5c-0.39062-0.39062-1.02344-0.39062-1.41406,0s-0.39062,1.02344,0,1.41406
		L8.77344,36.5H3.29688C2.58154,36.5,2,35.91846,2,35.20312V5.79688C2,5.08154,2.58154,4.5,3.29688,4.5H8c0.55225,0,1-0.44775,1-1
		s-0.44775-1-1-1H3.29688C1.479,2.5,0,3.979,0,5.79688v29.40625C0,37.021,1.479,38.5,3.29688,38.5h5.47656l-0.79297,0.79297
		c-0.39062,0.39062-0.39062,1.02344,0,1.41406C8.17578,40.90234,8.43164,41,8.6875,41s0.51172-0.09766,0.70703-0.29297l2.5-2.5
		C12.28516,37.81641,12.28516,37.18359,11.89453,36.79297z"/>
	<path class="st0" d="M111.16797,4.20703l2.5,2.5c0.39062,0.39062,1.02344,0.39062,1.41406,0s0.39062-1.02344,0-1.41406
		L114.28906,4.5h5.47656c0.71533,0,1.29688,0.58154,1.29688,1.29688v29.40625c0,0.71533-0.58154,1.29688-1.29688,1.29688h-4.70312
		c-0.55225,0-1,0.44775-1,1s0.44775,1,1,1h4.70312c1.81787,0,3.29688-1.479,3.29688-3.29688V5.79688
		c0-1.81787-1.479-3.29688-3.29688-3.29688h-5.47656l0.79297-0.79297c0.39062-0.39062,0.39062-1.02344,0-1.41406
		C114.88672,0.09766,114.63086,0,114.375,0c-0.25586,0-0.51172,0.09766-0.70703,0.29297l-2.5,2.5
		C110.77734,3.18359,110.77734,3.81641,111.16797,4.20703z"/>
</g>
</svg>
