<?xml version="1.0" encoding="utf-8"?>
<!-- Generator: Adobe Illustrator 19.2.1, SVG Export Plug-In . SVG Version: 6.00 Build 0)  -->
<svg version="1.1" id="Layer_1" xmlns="http://www.w3.org/2000/svg" xmlns:xlink="http://www.w3.org/1999/xlink" x="0px" y="0px"
	 viewBox="0 0 32.9 32.4" style="enable-background:new 0 0 32.9 32.4;" xml:space="preserve">
<style type="text/css">
	.st0{fill:#CCCCCC;}
</style>
<path class="st0" d="M26,13.1c0,0-4.4,0.9-5.5-0.6c-1-1.5-3.8-6.3-3.8-6.3L13.7,1c0,0-0.8-1.4-2.5-0.9C9.5,0.5,9.2,0.9,9.6,2.1
	C10,3.4,13,12.5,12.3,13.6l-8.1,0.7c0,0-1.4-4.8-4.2-3.2v10.2c2.8,1.6,4.2-3.2,4.2-3.2l8.1,0.7C13,19.9,10,28.9,9.6,30.2
	c-0.4,1.3-0.1,1.7,1.5,2.1c1.7,0.4,2.5-0.9,2.5-0.9l3.1-5.3c0,0,2.8-4.8,3.8-6.3c1-1.5,5.5-0.6,5.5-0.6C35.2,19.2,35.2,13.2,26,13.1
	z"/>
</svg>
