<?xml version="1.0" encoding="UTF-8"?>
<svg width="1114px" height="355px" viewBox="0 0 1114 355" version="1.1" xmlns="http://www.w3.org/2000/svg" xmlns:xlink="http://www.w3.org/1999/xlink">
    <!-- Generator: Sketch 56.3 (81716) - https://sketch.com -->
    <title>Path 3</title>
    <desc>Created with Sketch.</desc>
    <g id="Page-1" stroke="none" stroke-width="1" fill="none" fill-rule="evenodd">
        <path d="M0.73,76.5855442 C51.0276862,69.5399091 95.0285995,88.8901366 132.73274,134.636227 C189.28895,203.255362 209.63498,282.540906 328.518152,277.773491 C447.401323,273.006077 458.804253,135.405731 389.642339,104.419092 C320.480426,73.4324519 257.904072,107.002366 257.904072,186.886056 C257.904072,234.244723 320.480426,269.824593 361.564749,262.813615 C375.152447,260.494895 367.448495,257.221945 396.42024,227.67122 C427.279987,196.194762 426.704815,215.856507 461.270803,179.657549 C471.958083,169.729513 470.427507,152.644513 486.727891,140.113383 C503.028275,127.582252 535.857998,109.575711 562.930689,107.094494 C625.769806,101.335275 662.557701,169.945452 685.4978,218.934526 C704.297221,259.081094 742.285655,306.410783 798.696351,329.165145 C810.397556,333.885056 836.148314,353.779169 880.037749,353.779169 C923.927185,353.779169 952.65672,313.403204 973.779746,304.809381 C1017.79947,286.900123 1036.74466,286.594325 1057.25484,267.536641 C1106.60623,221.68023 1100.24698,172.826487 1097.59352,122.550111 C1093.8373,51.3791368 993.652388,-5.1071959 933.355157,1.27099492 C873.057926,7.64918574 792.796701,38.2193551 778.545792,127.929431 C764.294882,217.639506 810.817469,269.585187 885.973241,313.186119 C935.423551,341.874262 955.460771,293.198587 982.969345,282.56881 C1010.47792,271.939032 1035.11317,279.438905 1046.34877,271.917758 C1077.85102,250.830044 1114.46088,222.744513 1112.66656,171.778904 C1110.87223,120.813295 1099.65544,55.0515722 1024.07,16.4469382 C948.484557,-22.1576958 807.881808,10.0515512 788.349101,131.689587 C775.327296,212.781611 816.794147,273.785186 912.749652,314.700313 C924.94293,317.859674 936.360074,314.562697 947.001084,304.809381 C962.9626,290.179408 1012.30202,304.809381 1024.07596,299.083755 C1035.8499,293.358128 1053.20798,284.850617 1059.32522,273.832116" id="Path-3" stroke="#979797"></path>
    </g>
</svg>