<?xml version="1.0" encoding="UTF-8"?>
<svg width="1278px" height="365px" viewBox="0 0 1278 365" version="1.1" xmlns="http://www.w3.org/2000/svg" xmlns:xlink="http://www.w3.org/1999/xlink">
    <!-- Generator: Sketch 56.3 (81716) - https://sketch.com -->
    <title>Path 2</title>
    <desc>Created with Sketch.</desc>
    <g id="Page-1" stroke="none" stroke-width="1" fill="none" fill-rule="evenodd">
        <path d="M0.73,78.7330336 C51.4593625,71.4878054 95.8379105,91.386198 133.865644,138.428211 C190.907244,208.991231 211.427892,290.522824 331.33137,285.620356 C451.234848,280.717887 462.735642,139.219515 392.980152,107.355067 C323.224661,75.4906185 260.11125,110.011522 260.11125,192.158206 C260.11125,240.858478 323.224661,277.446276 364.661587,270.236687 C378.365901,267.852281 370.59583,264.486613 399.816223,234.098756 C430.940822,201.730614 430.360713,221.94935 465.223361,184.724925 C476.002364,174.515642 474.458652,156.946647 490.898933,144.060528 C507.339214,131.174408 540.450695,112.657766 567.755736,110.106259 C631.134165,104.18389 668.23779,174.737698 691.37477,225.114565 C710.335536,266.398429 748.650003,315.068902 805.54484,338.467864 C817.34647,343.321484 843.318231,363.779169 887.584345,363.779169 C931.850459,363.779169 960.826563,322.259409 982.130875,313.422135 C1026.5284,295.005532 1045.63618,294.691072 1066.32239,275.09351 C1116.09733,227.93805 1109.6835,177.700349 1107.00727,125.999713 C1103.21881,52.8125637 1002.17407,-5.27394845 941.359345,1.28492767 C880.544617,7.84380378 799.594557,39.2799836 785.22134,131.531421 C770.848123,223.782858 817.769986,277.200088 893.570777,322.036174 C943.445491,351.537012 963.654679,301.482424 991.399344,290.551519 C1019.14401,279.620615 1043.99069,287.332949 1055.32271,279.598737 C1087.09533,257.913638 1104.98139,213.42706 1118.70259,192.435453 C1141.00086,158.322047 1194.01,141.633503 1277.73,142.369822" id="Path-2" stroke="#979797"></path>
    </g>
</svg>