<?xml version="1.0" encoding="UTF-8"?>
<svg width="1280px" height="365px" viewBox="0 0 1280 365" version="1.1" xmlns="http://www.w3.org/2000/svg" xmlns:xlink="http://www.w3.org/1999/xlink">
    <!-- Generator: Sketch 56.3 (81716) - https://sketch.com -->
    <title>Path 4</title>
    <desc>Created with Sketch.</desc>
    <g id="Page-1" stroke="none" stroke-width="1" fill="none" fill-rule="evenodd">
        <path d="M0.377610456,75.2018824 C148.430751,74.7286695 141.259201,173.926608 198.749662,229.902308 C281.041907,303.421727 356.366329,277.582169 388.141583,261.831629 C419.916838,246.081088 437.266956,209.109944 437.622773,170.950037 C437.97859,132.790131 394.980152,89.5158568 349.819585,91.177573 C304.659018,92.8392893 284.445997,116.996201 278.926159,124.652821 C273.40632,132.309442 259.527191,163.413905 266.955405,205.396445 C269.025143,230.786324 303.809151,263.763272 340.678426,267.531482 C460.581903,262.629013 464.735642,139.219515 394.980152,107.355067 C325.224661,75.4906185 262.11125,110.011522 262.11125,192.158206 C262.11125,240.858478 325.224661,277.446276 366.661587,270.236687 C380.365901,267.852281 372.59583,264.486613 401.816223,234.098756 C432.940822,201.730614 432.360713,221.94935 467.223361,184.724925 C478.002364,174.515642 476.458652,156.946647 492.898933,144.060528 C509.339214,131.174408 542.450695,112.657766 569.755736,110.106259 C633.134165,104.18389 670.23779,174.737698 693.37477,225.114565 C712.335536,266.398429 750.650003,315.068902 807.54484,338.467864 C819.34647,343.321484 845.318231,363.779169 889.584345,363.779169 C933.850459,363.779169 962.826563,322.259409 984.130875,313.422135 C1028.5284,295.005532 1047.63618,294.691072 1068.32239,275.09351 C1118.09733,227.93805 1111.6835,177.700349 1109.00727,125.999713 C1105.21881,52.8125637 1004.17407,-5.27394845 943.359345,1.28492767 C882.544617,7.84380378 801.594557,39.2799836 787.22134,131.531421 C772.848123,223.782858 819.769986,277.200088 895.570777,322.036174 C945.445491,351.537012 965.654679,301.482424 993.399344,290.551519 C1021.14401,279.620615 1045.99069,287.332949 1057.32271,279.598737 C1089.09533,257.913638 1106.98139,213.42706 1120.70259,192.435453 C1143.00086,158.322047 1196.01,141.633503 1279.73,142.369822" id="Path-4" stroke="#979797"></path>
    </g>
</svg>