<svg xmlns="http://www.w3.org/2000/svg" viewBox="0 0 437.3 193.8"><style type="text/css">  
	.st0{fill:#D7DBE0;}
	.st1{fill:#9A5044;}
	.st2{fill:#8A8895;}
	.st3{fill:#5C546A;}
	.st4{fill:#B8BAC0;}
</style><path class="st0" d="M437.3 103.8c0-11.1-4.3-21.6-12.2-29.4 -7.9-7.9-18.3-12.2-29.4-12.2l-275.4 0.1 -68.4-56c-5-4.1-11.4-6.4-17.9-6.3L6.8 0.4c-2.2 0-4.3 1.1-5.6 3C0 5.2-0.3 7.5 0.4 9.6l25.2 71.2c7.4 20.8 23.2 36.9 42.8 45 9 3.8 18.9 5.8 29.1 5.8l312.1-0.1c7.4 0 14.4-2.9 19.6-8.1C434.4 118.1 437.3 111.2 437.3 103.8z"/><path class="st1" d="M434.4 107.7l-312.1 0.1c-10.2 0-20-2-29.1-5.8 -19.6-8.1-35.4-24.2-42.8-45l-20.2-57L6.8 0.4c-2.2 0-4.3 1.1-5.6 3C0 5.2-0.3 7.5 0.4 9.6l25.2 71.2c7.4 20.8 23.2 36.9 42.8 45 9 3.8 18.9 5.8 29.1 5.8l312.1-0.1c7.4 0 14.4-2.9 19.6-8.1 4.4-4.4 7-9.9 7.8-15.9C436.1 107.5 435.2 107.7 434.4 107.7z"/><path class="st2" d="M275.2 152.1l-97 0 0.1-36.5 97 0c7.7 0 13.9 6.3 13.9 13.9l-0.1 8.7C289.1 145.9 282.9 152.1 275.2 152.1z"/><path class="st3" d="M372.2 96.3c-1.7-0.7-3-2.1-3.7-3.8 -0.7-1.7-0.8-3.6 0-5.3 0.7-1.7 2.1-3 3.8-3.7 3.3-1.4 7.6 0.4 9 3.7 0.7 1.7 0.7 3.6 0 5.3 -0.7 1.7-2 3.1-3.7 3.8C375.9 97 373.9 97 372.2 96.3z"/><path class="st3" d="M143.6 96.2c-1.7-0.7-3.1-2-3.8-3.7 -0.7-1.7-0.7-3.6 0-5.3 0.7-1.7 2-3.1 3.7-3.8 3.3-1.3 7.6 0.4 9 3.8 0.7 1.7 0.8 3.6 0.1 5.3 -0.7 1.7-2.1 3-3.8 3.8C147.1 97 145.2 96.9 143.6 96.2z"/><path class="st3" d="M122.7 96.2c-1.7-0.7-3-2.1-3.7-3.7 -0.7-1.7-0.7-3.7 0-5.3 0.7-1.7 2.1-3 3.8-3.8 3.3-1.4 7.6 0.4 9 3.7 0.7 1.7 0.7 3.6 0 5.3 -0.7 1.7-2 3.1-3.7 3.8C126.4 97 124.4 96.9 122.7 96.2z"/><path class="st3" d="M351.5 96.3c-1.7-0.7-3.1-2-3.8-3.7 -0.7-1.6-0.7-3.6 0-5.3 0.7-1.7 2.1-3 3.8-3.8 3.3-1.3 7.6 0.4 9 3.7 0.7 1.7 0.7 3.6 0 5.3 -0.7 1.7-2 3.1-3.7 3.8C355 97 353.2 97 351.5 96.3z"/><path class="st4" d="M319.3 95.3c-0.7-3.2-3.5-5.4-6.8-5.4l-138.6 0c-1.6 0-3.1 0.5-4.4 1.6L58.6 181.5c-2.3 1.8-3.1 4.9-2.2 7.7 0.7 1.9 2.1 3.3 3.9 4.1 0.8 0.3 1.7 0.5 2.7 0.5l62.4 0c1 0 2.1-0.2 3-0.7l187.2-90.1C318.4 101.7 320 98.4 319.3 95.3z"/><path class="st3" d="M431.5 83l-23.7 0c-3.8 0-6.9 3.1-6.9 6.9 0 2.9 1.8 5.4 4.3 6.4 0.8 0.3 1.7 0.5 2.7 0.5l28.7 0C435.8 91.9 434 87.3 431.5 83z"/></svg>