<?xml version="1.0" encoding="utf-8"?>
<!-- Generator: Adobe Illustrator 23.0.3, SVG Export Plug-In . SVG Version: 6.00 Build 0)  -->
<svg version="1.1" id="Layer_1" xmlns="http://www.w3.org/2000/svg" xmlns:xlink="http://www.w3.org/1999/xlink" x="0px" y="0px"
	 viewBox="0 0 479 360" style="enable-background:new 0 0 479 360;" xml:space="preserve">
<style type="text/css">
	.st0{fill:url(#SVGID_1_);}
	.st1{fill:#FFFFFF;}
</style>
<radialGradient id="SVGID_1_" cx="352.2393" cy="137.2632" r="260.1714" gradientTransform="matrix(1 0 0 1.2129 0 -29.2283)" gradientUnits="userSpaceOnUse">
	<stop  offset="0" style="stop-color:#A4CADD"/>
	<stop  offset="9.455016e-02" style="stop-color:#A4CADD;stop-opacity:0.9044"/>
	<stop  offset="0.9892" style="stop-color:#A4CADD;stop-opacity:0"/>
</radialGradient>
<path class="st0" d="M110,4l244,134L0,4H110z M292,1l-64,2l125,129L292,1z M406,0l-49,1l-5,130L406,0z M476,95l-1-57l-123,91L476,95
	z M476,184v-34l-125-18L476,184z M351,130l128,230l-1-105L351,130z"/>
<g>
	
		<image style="overflow:visible;opacity:0.75;" width="505" height="505" xlink:href="288476D913ADC703.png"  transform="matrix(0.24 0 0 0.24 292.92 71.88)">
	</image>
	<g>
		<circle class="st1" cx="353.5" cy="132.5" r="45.5"/>
	</g>
</g>
</svg>
